<mxfile host="app.diagrams.net" modified="2022-03-28T05:01:24.355Z" agent="5.0 (Macintosh; Intel Mac OS X 10_15_7) AppleWebKit/537.36 (KHTML, like Gecko) Chrome/99.0.4844.83 Safari/537.36" etag="o0YRIKQWnYetriutIoeS" version="17.2.4" type="github">
  <diagram id="OAKoiiX6vimHrX1myZKV" name="Page-1">
    <mxGraphModel dx="1426" dy="711" grid="1" gridSize="10" guides="1" tooltips="1" connect="1" arrows="1" fold="1" page="1" pageScale="1" pageWidth="827" pageHeight="1169" math="0" shadow="0">
      <root>
        <mxCell id="0" />
        <mxCell id="1" parent="0" />
        <mxCell id="UPtp2LmFLoY91FLDqyxt-4" value="" style="shape=image;verticalLabelPosition=bottom;labelBackgroundColor=default;verticalAlign=top;aspect=fixed;imageAspect=0;image=data:image/png,/9j/4AAQSkZJRgABAQAASABIAAD/4QBARXhpZgAATU0AKgAAAAgAAYdpAAQAAAABAAAAGgAAAAAAAqACAAQAAAABAAADLaADAAQAAAABAAACpgAAAAD/4hAISUNDX1BST0ZJTEUAAQEAAA/4YXBwbAIQAABtbnRyUkdCIFhZWiAH5gADAA0AAAApAAJhY3NwQVBQTAAAAABBUFBMAAAAAAAAAAAAAAAAAAAAAAAA9tYAAQAAAADTLWFwcGwAAAAAAAAAAAAAAAAAAAAAAAAAAAAAAAAAAAAAAAAAAAAAAAAAAAAAAAAAAAAAABJkZXNjAAABXAAAAGJkc2NtAAABwAAABJxjcHJ0AAAGXAAAACN3dHB0AAAGgAAAABRyWFlaAAAGlAAAABRnWFlaAAAGqAAAABRiWFlaAAAGvAAAABRyVFJDAAAG0AAACAxhYXJnAAAO3AAAACB2Y2d0AAAO/AAAADBuZGluAAAPLAAAAD5jaGFkAAAPbAAAACxtbW9kAAAPmAAAACh2Y2dwAAAPwAAAADhiVFJDAAAG0AAACAxnVFJDAAAG0AAACAxhYWJnAAAO3AAAACBhYWdnAAAO3AAAACBkZXNjAAAAAAAAAAhEaXNwbGF5AAAAAAAAAAAAAAAAAAAAAAAAAAAAAAAAAAAAAAAAAAAAAAAAAAAAAAAAAAAAAAAAAAAAAAAAAAAAAAAAAAAAAAAAAAAAAAAAAAAAAAAAAAAAbWx1YwAAAAAAAAAmAAAADGhySFIAAAAUAAAB2GtvS1IAAAAMAAAB7G5iTk8AAAASAAAB+GlkAAAAAAASAAACCmh1SFUAAAAUAAACHGNzQ1oAAAAWAAACMGRhREsAAAAcAAACRm5sTkwAAAAWAAACYmZpRkkAAAAQAAACeGl0SVQAAAAYAAACiGVzRVMAAAAWAAACoHJvUk8AAAASAAACtmZyQ0EAAAAWAAACyGFyAAAAAAAUAAAC3nVrVUEAAAAcAAAC8mhlSUwAAAAWAAADDnpoVFcAAAAKAAADJHZpVk4AAAAOAAADLnNrU0sAAAAWAAADPHpoQ04AAAAKAAADJHJ1UlUAAAAkAAADUmVuR0IAAAAUAAADdmZyRlIAAAAWAAADim1zAAAAAAASAAADoGhpSU4AAAASAAADsnRoVEgAAAAMAAADxGNhRVMAAAAYAAAD0GVuQVUAAAAUAAADdmVzWEwAAAASAAACtmRlREUAAAAQAAAD6GVuVVMAAAASAAAD+HB0QlIAAAAYAAAECnBsUEwAAAASAAAEImVsR1IAAAAiAAAENHN2U0UAAAAQAAAEVnRyVFIAAAAUAAAEZnB0UFQAAAAWAAAEemphSlAAAAAMAAAEkABMAEMARAAgAHUAIABiAG8AagBpzuy37AAgAEwAQwBEAEYAYQByAGcAZQAtAEwAQwBEAEwAQwBEACAAVwBhAHIAbgBhAFMAegDtAG4AZQBzACAATABDAEQAQgBhAHIAZQB2AG4A/QAgAEwAQwBEAEwAQwBEAC0AZgBhAHIAdgBlAHMAawDmAHIAbQBLAGwAZQB1AHIAZQBuAC0ATABDAEQAVgDkAHIAaQAtAEwAQwBEAEwAQwBEACAAYQAgAGMAbwBsAG8AcgBpAEwAQwBEACAAYQAgAGMAbwBsAG8AcgBMAEMARAAgAGMAbwBsAG8AcgBBAEMATAAgAGMAbwB1AGwAZQB1AHIgDwBMAEMARAAgBkUGRAZIBkYGKQQaBD4EOwRMBD4EQAQ+BDIEOAQ5ACAATABDAEQgDwBMAEMARAAgBeYF0QXiBdUF4AXZX2mCcgBMAEMARABMAEMARAAgAE0A4AB1AEYAYQByAGUAYgBuAP0AIABMAEMARAQmBDIENQRCBD0EPgQ5ACAEFgQaAC0ENAQ4BEEEPwQ7BDUEOQBDAG8AbABvAHUAcgAgAEwAQwBEAEwAQwBEACAAYwBvAHUAbABlAHUAcgBXAGEAcgBuAGEAIABMAEMARAkwCQIJFwlACSgAIABMAEMARABMAEMARAAgDioONQBMAEMARAAgAGUAbgAgAGMAbwBsAG8AcgBGAGEAcgBiAC0ATABDAEQAQwBvAGwAbwByACAATABDAEQATABDAEQAIABDAG8AbABvAHIAaQBkAG8ASwBvAGwAbwByACAATABDAEQDiAOzA8cDwQPJA7wDtwAgA78DuAPMA70DtwAgAEwAQwBEAEYA5AByAGcALQBMAEMARABSAGUAbgBrAGwAaQAgAEwAQwBEAEwAQwBEACAAYQAgAEMAbwByAGUAczCrMOkw/ABMAEMARHRleHQAAAAAQ29weXJpZ2h0IEFwcGxlIEluYy4sIDIwMjIAAFhZWiAAAAAAAADzFgABAAAAARbKWFlaIAAAAAAAAIMKAAA9bv///7xYWVogAAAAAAAAS/oAALQhAAAK4FhZWiAAAAAAAAAn0gAADnAAAMiRY3VydgAAAAAAAAQAAAAABQAKAA8AFAAZAB4AIwAoAC0AMgA2ADsAQABFAEoATwBUAFkAXgBjAGgAbQByAHcAfACBAIYAiwCQAJUAmgCfAKMAqACtALIAtwC8AMEAxgDLANAA1QDbAOAA5QDrAPAA9gD7AQEBBwENARMBGQEfASUBKwEyATgBPgFFAUwBUgFZAWABZwFuAXUBfAGDAYsBkgGaAaEBqQGxAbkBwQHJAdEB2QHhAekB8gH6AgMCDAIUAh0CJgIvAjgCQQJLAlQCXQJnAnECegKEAo4CmAKiAqwCtgLBAssC1QLgAusC9QMAAwsDFgMhAy0DOANDA08DWgNmA3IDfgOKA5YDogOuA7oDxwPTA+AD7AP5BAYEEwQgBC0EOwRIBFUEYwRxBH4EjASaBKgEtgTEBNME4QTwBP4FDQUcBSsFOgVJBVgFZwV3BYYFlgWmBbUFxQXVBeUF9gYGBhYGJwY3BkgGWQZqBnsGjAadBq8GwAbRBuMG9QcHBxkHKwc9B08HYQd0B4YHmQesB78H0gflB/gICwgfCDIIRghaCG4IggiWCKoIvgjSCOcI+wkQCSUJOglPCWQJeQmPCaQJugnPCeUJ+woRCicKPQpUCmoKgQqYCq4KxQrcCvMLCwsiCzkLUQtpC4ALmAuwC8gL4Qv5DBIMKgxDDFwMdQyODKcMwAzZDPMNDQ0mDUANWg10DY4NqQ3DDd4N+A4TDi4OSQ5kDn8Omw62DtIO7g8JDyUPQQ9eD3oPlg+zD88P7BAJECYQQxBhEH4QmxC5ENcQ9RETETERTxFtEYwRqhHJEegSBxImEkUSZBKEEqMSwxLjEwMTIxNDE2MTgxOkE8UT5RQGFCcUSRRqFIsUrRTOFPAVEhU0FVYVeBWbFb0V4BYDFiYWSRZsFo8WshbWFvoXHRdBF2UXiReuF9IX9xgbGEAYZRiKGK8Y1Rj6GSAZRRlrGZEZtxndGgQaKhpRGncanhrFGuwbFBs7G2MbihuyG9ocAhwqHFIcexyjHMwc9R0eHUcdcB2ZHcMd7B4WHkAeah6UHr4e6R8THz4faR+UH78f6iAVIEEgbCCYIMQg8CEcIUghdSGhIc4h+yInIlUigiKvIt0jCiM4I2YjlCPCI/AkHyRNJHwkqyTaJQklOCVoJZclxyX3JicmVyaHJrcm6CcYJ0kneierJ9woDSg/KHEooijUKQYpOClrKZ0p0CoCKjUqaCqbKs8rAis2K2krnSvRLAUsOSxuLKIs1y0MLUEtdi2rLeEuFi5MLoIuty7uLyQvWi+RL8cv/jA1MGwwpDDbMRIxSjGCMbox8jIqMmMymzLUMw0zRjN/M7gz8TQrNGU0njTYNRM1TTWHNcI1/TY3NnI2rjbpNyQ3YDecN9c4FDhQOIw4yDkFOUI5fzm8Ofk6Njp0OrI67zstO2s7qjvoPCc8ZTykPOM9Ij1hPaE94D4gPmA+oD7gPyE/YT+iP+JAI0BkQKZA50EpQWpBrEHuQjBCckK1QvdDOkN9Q8BEA0RHRIpEzkUSRVVFmkXeRiJGZ0arRvBHNUd7R8BIBUhLSJFI10kdSWNJqUnwSjdKfUrESwxLU0uaS+JMKkxyTLpNAk1KTZNN3E4lTm5Ot08AT0lPk0/dUCdQcVC7UQZRUFGbUeZSMVJ8UsdTE1NfU6pT9lRCVI9U21UoVXVVwlYPVlxWqVb3V0RXklfgWC9YfVjLWRpZaVm4WgdaVlqmWvVbRVuVW+VcNVyGXNZdJ114XcleGl5sXr1fD19hX7NgBWBXYKpg/GFPYaJh9WJJYpxi8GNDY5dj62RAZJRk6WU9ZZJl52Y9ZpJm6Gc9Z5Nn6Wg/aJZo7GlDaZpp8WpIap9q92tPa6dr/2xXbK9tCG1gbbluEm5rbsRvHm94b9FwK3CGcOBxOnGVcfByS3KmcwFzXXO4dBR0cHTMdSh1hXXhdj52m3b4d1Z3s3gReG54zHkqeYl553pGeqV7BHtje8J8IXyBfOF9QX2hfgF+Yn7CfyN/hH/lgEeAqIEKgWuBzYIwgpKC9INXg7qEHYSAhOOFR4Wrhg6GcobXhzuHn4gEiGmIzokziZmJ/opkisqLMIuWi/yMY4zKjTGNmI3/jmaOzo82j56QBpBukNaRP5GokhGSepLjk02TtpQglIqU9JVflcmWNJaflwqXdZfgmEyYuJkkmZCZ/JpomtWbQpuvnByciZz3nWSd0p5Anq6fHZ+Ln/qgaaDYoUehtqImopajBqN2o+akVqTHpTilqaYapoum/adup+CoUqjEqTepqaocqo+rAqt1q+msXKzQrUStuK4trqGvFq+LsACwdbDqsWCx1rJLssKzOLOutCW0nLUTtYq2AbZ5tvC3aLfguFm40blKucK6O7q1uy67p7whvJu9Fb2Pvgq+hL7/v3q/9cBwwOzBZ8Hjwl/C28NYw9TEUcTOxUvFyMZGxsPHQce/yD3IvMk6ybnKOMq3yzbLtsw1zLXNNc21zjbOts83z7jQOdC60TzRvtI/0sHTRNPG1EnUy9VO1dHWVdbY11zX4Nhk2OjZbNnx2nba+9uA3AXcit0Q3ZbeHN6i3ynfr+A24L3hROHM4lPi2+Nj4+vkc+T85YTmDeaW5x/nqegy6LzpRunQ6lvq5etw6/vshu0R7ZzuKO6070DvzPBY8OXxcvH/8ozzGfOn9DT0wvVQ9d72bfb794r4Gfio+Tj5x/pX+uf7d/wH/Jj9Kf26/kv+3P9t//9wYXJhAAAAAAADAAAAAmZmAADypwAADVkAABPQAAAKW3ZjZ3QAAAAAAAAAAQABAAAAAAAAAAEAAAABAAAAAAAAAAEAAAABAAAAAAAAAAEAAG5kaW4AAAAAAAAANgAArgAAAFIAAABDwAAAsMAAACaAAAANgAAAUAAAAFRAAAIzMwACMzMAAjMzAAAAAAAAAABzZjMyAAAAAAABDHIAAAX4///zHQAAB7oAAP1y///7nf///aQAAAPZAADAcW1tb2QAAAAAAAAGEAAAoD4AAAAA1RhkgAAAAAAAAAAAAAAAAAAAAAB2Y2dwAAAAAAADAAAAAmZmAAMAAAACZmYAAwAAAAJmZgAAAAIzMzQAAAAAAjMzNAAAAAACMzM0AP/AABEIAqYDLQMBIgACEQEDEQH/xAAfAAABBQEBAQEBAQAAAAAAAAAAAQIDBAUGBwgJCgv/xAC1EAACAQMDAgQDBQUEBAAAAX0BAgMABBEFEiExQQYTUWEHInEUMoGRoQgjQrHBFVLR8CQzYnKCCQoWFxgZGiUmJygpKjQ1Njc4OTpDREVGR0hJSlNUVVZXWFlaY2RlZmdoaWpzdHV2d3h5eoOEhYaHiImKkpOUlZaXmJmaoqOkpaanqKmqsrO0tba3uLm6wsPExcbHyMnK0tPU1dbX2Nna4eLj5OXm5+jp6vHy8/T19vf4+fr/xAAfAQADAQEBAQEBAQEBAAAAAAAAAQIDBAUGBwgJCgv/xAC1EQACAQIEBAMEBwUEBAABAncAAQIDEQQFITEGEkFRB2FxEyIygQgUQpGhscEJIzNS8BVictEKFiQ04SXxFxgZGiYnKCkqNTY3ODk6Q0RFRkdISUpTVFVWV1hZWmNkZWZnaGlqc3R1dnd4eXqCg4SFhoeIiYqSk5SVlpeYmZqio6Slpqeoqaqys7S1tre4ubrCw8TFxsfIycrS09TV1tfY2dri4+Tl5ufo6ery8/T19vf4+fr/2wBDAAICAgICAgMCAgMFAwMDBQYFBQUFBggGBgYGBggKCAgICAgICgoKCgoKCgoMDAwMDAwODg4ODg8PDw8PDw8PDw//2wBDAQICAgQEBAcEBAcQCwkLEBAQEBAQEBAQEBAQEBAQEBAQEBAQEBAQEBAQEBAQEBAQEBAQEBAQEBAQEBAQEBAQEBD/3QAEADP/2gAMAwEAAhEDEQA/AP38ooooAKKKKACiiigAor5N179tH4L6D4u1/wAEGHxDqmqeGLo2WoDTPD2p6hFDcBQ+wy20EiZ2sD16Gvnv46/tra5Lo+han+z5p3iFtSsNWt31Gx1LwdrSwX+n7tk8Xn/Y2aFkzv3Kpb5cDnggH6bUV8eRftufCYxoZtB8ZLIQNwXwjrbAHuATaDI98D6V658G/j38PPjta63deAJb0nw7dixv4b+xuNPnguCgk2NDcpG4O1genegD2eivkvxr+3T+yf8ADrxXqfgfxr8Q7TStc0aY293ayW92zxSryVJSFlPB6gkV8heLf+Clvw00P9obwrL4a+I+keIfhPrNnLa6pAlpPBd6Tdp86XhlkjDTI/3dijI5wpODQB+uNFfEf/Dx79if/oqdj/4DXv8A8j19Za5PrOueC7268A30Fvql/YvJpl1cxNLAsskeYZJI8oxXJBIyDj8qAOqor5u+B/xX8feKvghN4t+KPhm40Hxf4cS9tdUtZonghubrTtyvPbMy4aCcruR1BAyQOlePfE39pDxlqv7C0X7SHgZR4U13V9O06/gjHlXwtftVxEjpmeLZJ8rEZMY65ABoA+8qK8A+JPxpn+G2pfCrRpNKGqP8Rtbg0V5jN5P2UyWktyZwojYScxbdmU65zxg+/wBABRRRQAUUUUAFFFFABRRRQAUUUUAFFFFABRRRQAUUUUAFFFFABRRRQAUUUUAFFFFABRRRQAUUUUAFFFFABRRRQAUUUUAFFFFABRRRQAUUUUAFFFFABRRRQAUUUUAFFFFABRRRQAUUUUAFFFFABRRRQAUUUUAFFFFABRRRQAUUUUAFFFFABRVW+ufsdlcXe3f5EbvjOM7QTjNfmZ/w3J8ef+FMf8NBf8KW0z/hCN+PP/4Sn/Sdn2n7Lu+z/wBnZzv7bunegD9PaK+E/Hv7U/xks/jjd/BH4PfCa28cXun6FY65cTz+II9KCRXrMgQLLbSBtrL1D5Oegrm/HP7T37Yfw48G61498W/s6adaaL4ftJb28mXxpayGOCBS7sESzLMQB0AJoA/RCiuR8BeJ5fGfgXw/4xubUWEmt6fbXzwCTzRCbiJZCm/C7tu7G7aM9cCvzA8T/wDBQbWdV/a0T4efCXRNa8a+B/C1jdLqUPhvT7fULrVL8MqExNPJFst7Zsq0kTnc2QRjBAB+ttFfDX/Damv/APRufxU/8Elr/wDJtdL+zv8AtleDv2jfG/ifwBoHhDxH4b1TwhGrah/bNrbwxxyM20QloLibEvUlWA4B9KAPsCivnv8AaX8TfGLwP8Nz44+DNjDrOoeH7uC91DS3haWfUNMjb/SYLUqflnKfMh2sTjAwTSfGH48N8LPhfoHxJi8PzXn9uanoun/Ybt2sZ7f+17iOAtIGjdleHzMshUZI25HWgD6For5W+MHxI8aeFv2hvgp4G0LUfsuieLp9ZTVLfyYn+0LaWokhG90Z02vz8jLnocjiu50r4xvqf7Q+v/Ag6SI10Pw9Y67/AGh5+TKb24mg8nydg27PK3b95znG0YyQD3CiiigAooooAKKKKAP/0P38ooooAKKKKACiimSiUxOIWCyEHaWG5Q3YkAjI9sj60AfmX418Sal8Pvib8Rvg3+yFa3XiX4tfEW+Gt65e6kwXRfDJlt0hWaSZIRyyIDFD+9ctySQNtfMn7JmhfG3wvp+vfCeb9oS0+GHj3Try71DXdD13wraXN5NLKxeS+ivrm9Q3kDr8wlUAKvVVHX3H45fET9t34VWKa58RfGng7wRpmvakum2Nx4S8OX+v6vPI4YwBrW7k2Fyi9FLgHgcV853/AIY/Zy+JmoReIf2n/wDhb/xf1mGFoYje+G9R0yxt9/LNbWthFH5RJ5x5jKcDINAHr3g34m/tf/Er4x6f4H+CHxstPiV4Z0u5U+I/ECeErTTtGtIkYF4Le7E0/wBquHXICxDaMg78Zx+m/wAOfg54Z+GPiPxz4o0G6vLi6+IGrf2xfrcvG8cVx5KQ7YAkaFY9qA4cuc5+bHFfjKnjWz+Ceg2+lfAf4ufFL4c+GbaRIobPxL4I/tjTbbzXCpEkt3DAYYyzADLHr1zX6y/Ajwp+0h4el1KX48eP9M8Z20qJ/Z/9n6WunOuSS7z4yCcbQoXjrnJwaAPmz9lz/hEP+F8/tO/8JL9h8z/hMYfL+1+Vu2/Y0zt8znGfSvuD/i1f/UF/8lq/MD9nv9mP4C/tOfEH46/Fr4r+EbfxMLrxvfWWmzyyzxhYLKNIn2+TJGCDID1z0619R/8ADuH9if8A6JZY/wDgTe//ACRQBzP7fn/Cvf8Ahj/4m/2R/Zf2v+zR5fkeR5mfOj+7t5/Kp/j74V+B3iTwV8FLP44eBF8ZWGr3mn6LbTPdS26adLqFuuJnWJl3hmjVMdckdBmo/F3/AATE/Y08TeHL7QtO8Dr4duLxNiahp9zP9qtzkHdF9oeaLPGPmjYc9K9D/a0+GOt+Iv2dF8OeBbK41fWvC15omoaZDEA1xLLpV3C64xgbiinJ4HXoKAPmRvhl+yd8C/jt4g8N+A/gjd3eqeE/DEesTXfh+S9v9T26pM9j9nhsd5EhaMu5bfkKCdvQ18+eJYf2PfCfgj+zPGHwp+OWjeD7UQweTfxa9b6bGC4EMeyW8WFRv2hFx97GBnFfR2q+NfEHhzUP2vP2hfDZGn694Z0+10nTppkWQLNpGmfa3ARwVYLLPggggkEdq8g+I3gL9qf4w+MPhP8ABHx18cLS803x9pzeLVlTwpaxC0uNFNtdQwvGl0pnUvKMkug+XlTnAAJtPHwQ03xh4Q8c6b8LPj+954O1BNTs47zS9Y1K2kkWJ4grxX0s6hdrnmPY/bdgkH9ktF1Ma1o9jrAtZ7EX0Ec/kXUflXEXmKG2SxnOx1zhl7HIr8bNH+MX7Y9p8LbL40av8XrLULCHx1H4UuNJXwzZwmeFdXGmvMLoSMULrlwojO3ONx+9X7TUAFFFFABRRRQAUUUUAFFFFABRRRQAUUUUAFFFFABRRRQAUUUUAFFFFABRRRQAUUUUAFFFFABRRRQAUUUUAFFFFABRRRQAUUUUAFFFFABRRRQAUUUUAFFFFABRRRQAUUUUAFFFFABRRRQAUUUUAFFFFABRRRQAUUUUAFFFFABRRRQAUUUUAZmt/wDIGv8A/r3l/wDQDX8/3m/tPf8ADvHy/svg/wD4Vhv/ANb9o1D+3vK/tb/nn5X2Xd5n+3jb78V+/wDrrKuiagzHAFvKST0A2GvwQbTv2iV/4JzR339teF2+HEypKlstjdtq7QPquVxci6+z5LnOfKxt4xnmgD6W1b47/CT4Dft6eJdb+LviSHw3Y6n4A0O3t5ZY5ZBJKJpGKgRI5BA55GK8B8XfFr4V/E+O/wDCPxW/bkbXPh7qs5N3olp4TXTp5rTfuW2bUI42l27QFY7fm6kZr6A8XfDOD4x/tVfGD4aTN5T6/wDCnSraGXvFO00hicHsVkCnNY3i34/H46/s5eFv2bfDyLB8XfHM48Ja7YBf9I0pLAqmrXcw25WPylJRyAG3jGeaAPrr46ReBfiD8C/Duk6N8W7X4YeA9XitXnvmlis5L3QxHzbwTXTxNB5ibQXxkLkEckH4v+MvxD/Yc1Hwj4e+Gf7P99qmo+O/ACb/AAxcfDvT5dR1Gwk7kzqEt5oZW5nR5iH5J55r77+M37PWheL/AIT6X4W8MeD/AAt4l17whbQweH4vF1tJc6VCUVIm85IAZCDGvRQfmxmvzv8A2kr39uL4M/s7eIdE17Tfg9oPhnXYhoqWXhi21iC+ml1E+QkdlDIFgMp3ZG8bQASeBQByXjn4sf8ABRrWfBmgaT8cfCuteDvAV4jLrGt+CtNgv/ENxb5x++gjvH+xb15kdFBXnAIytfVX7OP7WH/BOz4Y+DLf4e/C3xlZeFYLZibmLVoLqxu5bnpJJdT3USCSUn7zbyB0GAMBfhz4T/4Kb+BPAPh3wXoSfCCPTtEsLazt1uj4gNwI4YwqiUoApfA+baAM5xxVn4P6p8Rfi58f/GnwX/a68D/DrxBf+DNK03VILvRtNnulWS9kbywZNTLuGUJn5Y1wcHceKANrxn8HP2TPjr+0xeeGviD8NbfXNd1Xw7a6/Brkl7cCO+tt4thGkUciAeWoUkjghh3zXzvomifspxfDLxTpHh74C+Kz4d1DxVdaXJ/whCajq0003hm4HkXcrxOklr+9ZtgUnJU/MeK+zPjX4c1/w/8AtFfDX40aJpk1xpeiaJ4i07WJ4l/d21o8EdzE0p4AXzYgFHqeB6fI/g3Xfiv4C/Zq/Z48N/CnxFF4L134u+JJZL+8uNPi1JoU1mO81Hc1vMVBbIXo69xntQB5rrN/+ycvivQbDxD8NfjuPE0guH0iK6HiD7cwVR9oa0V73zThMeYY+g+9xXv/AOznqXwv8EfGufX/AAf8N/jLa6l4vtLXRpZ/FOkX9xp9tFDK0qyyXd60ksSgsd2ZSgH3UBJJ+avHNp+1PZeL/jH8ddQ+MlpfeJP2b7OXTLJj4YtUjvrfUbSC+mwguCkDHKpuKynAzkZxX2X8KfF/7SPhj9onwF8Pfin8S7bxzonjbwtqGueVDoNtpLW01sbcIm+KSVpB++POV6dKAP0YooooAKKKKACiiigD/9H9/KKKKACiiigAooooA+Iv22fD3xH1nTvhbqXww8MS+K9V0Hxlp2oNaK7QxCOFJMtPOscvkxZIDSFCFz0rZ/4Wf+2n/wBEK0D/AMLQf/KyvsSigD8s/wBqXUf2xPib8GtS8Han8E7G0tby7095JdK8RHVrtFhu4pCUtEsIjIBt+b5xgZPbFfcvxw174heFfgp4k1f4W6DJ4i8WwaeyafZRkK7TuAgbDEZ8vO8qOTjA5r2eigD55/ZX+DUnwF+Bfhn4d38oudXgia61Scf8ttRu2M1y+e/zsQD6AV9DUUUAFeBfHH4K+IfjLFpVhpfxL8R/D2xs/O+1jw3cJaXN2JAu0G4ZHaPZg42jnPtXvtFAH5ifFD9gb4T+Afgr8TvEHw60nW/FvxI1Xw9q9vBf6jqV3qWo3dxe25jceXvETyS8Anytx45r3zRPgv4vv/if8Efio729pp3gjwlfaVqFrcGRL37TfwWgQJH5ZXCGFhJudSDjAPOPr+igD8h/EvwR/aE0HwJpH7PWneBhrtvqXj5fFc/iGz1CEWFlZtrZ1Dy5o5xFMZViAyEVlyeCe/68UUUAFFFFABRRRQAUUUUAFFFFABRRRQAUUUUAFFFFABRRRQAUUUUAFFFFABRRRQAUUUUAFFFFABRRRQAUUUUAFFFFABRRRQAUUUUAFFFFABRRRQAUUUUAFFFFABRRRQAUUUUAFFFFABRRRQAUUUUAFFFFABRRRQAUUUUAFFFFABRRRQAUUUUAeR/Ht/HS/Bjxmnwz03+1/FE2l3MWn229Y980qFAQzcZUEsB3IwOTXwN8UPhp8Z9K/Zz8P/sYeAPhpe65appejWcniYX1nDp8Mkcsct00scjrNlGRyQqndkY5OB+qtFAH5heNNF/aH8CftZeNPH/wg+H58WTXvgzRNHsri9mNjp32lLlxK7TMu1xAGDvGrK5XO05rnIf2LP2i/hnr837TPw38f2mu/HDVGll8QWV9bRw6DqsEm0/YoAirJB5YRVSUtlsAsU5NfrBRQB8g3f7QXxt0T4J6X491r4Fa1c+NtSumsj4b027trkwSAsqz3FzlRFbuV++Ek2gqW4O6vNPhv+z18Z/i78TNH+Pf7X93awz+HHM/hzwXpsnnadpMx4FzdS8i4ugOhGVU8g4wo/QmigD44+J3x7/aS8FfEDUvDXg79nq98b+HbZY2ttZs9etLYXBdAzKbeeIMmwkqTvbOMjrWN+yp8Ofi9/wsD4lftC/G/QYfCXiD4hSWFva6JFdpevY6dpsbLEs00f7tpGLknb+IHQfcFFAHx/8AFj9ky7+M3jDUdZ8V/Fvxppvhq9VIx4d0TUV02w8vyxHIkxSNpJVkOSwJHXFeJeKf2QvA/wAGPFHwTtvgN4SvUsbXxxa6jrc4nur9kgg0+6gSed55JPLRS6r8u1RkcV+ltFAHwR4z/Zc+IOv+Gv2m9Jsb7TBP8Z3hbR98swWAR6fFaH7WRCdnzoSPL8z5cHrxWZ4D8MfGfxH+1X4R8T+KPAM/hnw18OfC2o6CdTmvbeeHUri4ktwj2yRkShCIS37xFODyAcZ/QqigAooooAKKKKACiiigD//S/fyivz7X9p/47694t8UaV4E8B2etad4av5rOTa7icKsjpGWzIuWbYSdqEda1h+0h+0ZafJf/AAanmduQYZJcAe+Efn8fwoA+7qK+ET+0z8f9Q40v4K3tuX+59pkm42/e3boYuuDjp2692H4zftiaj/yCPhfp9t5n3PtUvTHXduuouuDjOO3XuAfeNFfBv/CzP25f+ieaB/3+T/5Y0f8ACzP25f8Aonmgf9/k/wDljQB95UV8H/8AC8f2tLM7r/4VWsyNwBDK2QffEz8fgKeP2nfj1Y86l8E7+cR8P9nknyx6fLtgk4z6Z4796APu2ivhP/hrf4qx/vLn4F65FEvLtvuflXuebEDj6ilP7YnjWUeXZfBrXJp24VMzDcfqLVj+hoA+66K+DX+OP7WfiIkeFvhZbaYrcA6jIwK57/vJbbpg9vTj1jF3+3RcE6j9q0K1/wCnPbEevvtbpn/np279wD72or4M/wCFoftq6JzqngLSNVgXkvbyKJD34C3ZPQH/AJZ9fyqT/ho/9o5x9lj+Dc63I4LtJL5Rx1x8gH0+f86APu+ivgw/FT9tTVhjTPh7pGnxt/HcSruXPIOGvF7cH5D+FN/tj9uef975Wg2+/ny/3Z2+3Vv5mgD71or4JP8Aw3Pefvf7X0Kxxxs2RnP+1/qpPp17dKBN+3PZHYdQ0K/3c7tsa7fb/Vx/yNAH3tRXwZ/wnn7c1md//CIaDf7uNvmRjb7/APH5H/M0Hx7+3Ne8/wDCHaDYbO3mI27P/b7J0/CgD7zor4JNx+3PfHYL7QtPx827bG2f9n7kn8vxpRrP7c+m8eToOq7fk/5Zrn/b+9F6fr09AD71or86de/aQ/af+G0mmXHxN8F6Pbadf3UdqkkMhLu55PMd1NglQSCUA/lX6LUAFFFFABRRRQAUUUUAFFFFABRRRQAUUUUAFFFFABRRRQAUUUUAFFFFABRRRQAUUUUAFFFFABRRRQAUUUUAFFFFABRRRQAUUUUAFFFFABRRRQAUUUUAFFFFABRRRQAUUUUAFFFFABRRRQAUUUUAFFcR8SvFzeAvAGv+Mo4VuJNHs5rhI3barui/IpI5wWwOK+LvD37SX7TevaNa+IrD4Y2uo6dqC77eW3d13KCQSQZGbBxxkD8aAP0Ior4R/wCGg/2nI/3k3wgLIvJCySbiPbGf5Gj/AIaA/ag/6JEP+/r/AONAH3dRXwf/AMLq/a+m/ewfC2xSNuVDy/MB75uF5/AUv/C+/wBqeH91c/CSN5V4Zo5X2k+2Hb+ZoA+76K+Ev+Gnfj2nzyfBO/ZF5YLJPkgdcfuDz+B+lL/w1p8XP+iD65/33c//ACBQB92UV8J/8NbfFjOw/AnXN/ULvuenc/8AHhSf8NS/HC7O6w+B+qQovBEz3GSfbNrHx+BoA+7aK+Dz+0J+05fZOmfCA24f5U+0SScN0y27y+M/T60h+Kf7bN9zY/DrRrWM/KTNKu5T/eGb1eB/un8elAH3jRXwZ/wmv7c1v++/4RfQbrb/AMs98Y3fj9rX/wBCFOHxZ/bTs+L/AOGukTFvu+RMuBjrnF7J/SgD7xor4OPxf/bNuP3Nn8M9Ljlbo0so2DHJzm7Qf+PCmnxr+3NffN/wi+g6dv8Alxvjbb/tf8fcn17/AEoA+86K+C/7S/bn9dB/KOl/4Sb9ue0/c/2ToN7jnzN0Y/DHnJ0+lAH3nRXwaPiT+27pn/H34D0TUYk5Zo5UDnPAAAvQeD/sdPzp4/aB/afsR5ep/CETyfczbyPt3noflMnyjvzj3FAH3fRXwefjT+1/qXGkfC2xti3A+1S9COSTuuIuMdOn1qM+NP257gib/hGNBtcnPlb4zjtjP2p/r940AfelFfBo+IH7c1n+7/4QrQb/AHc7/NQY9v8Aj+j/AJH615p4z/bF+Pvw31SLQPHXg3SNP1GSFZwm6Rw0bMyB1MdxIMFkYfePSgD/0/vf9npzZfG745WUvEk2teaMdNv2m8P54cV9i+d718ZfCdvsP7S/xgso+UmuFmJPXcZC2B04y5/Svrbz/egDX873o873rI8/3o8/3oA1/O96PO96yPP96PP96ANfzvejzvesjz/ejz/egDX873o873rI8/3o8/3oA1/O96PO96yPP96PP96ANfzvejzvesjz/ejz/egDX873o873rI8/3o8/3oA1/O96PO96yPP96PP96ANfzvejzvesjz/ejz/egDX873o873rI8/3o8/3oA+Tf2r3F9r3wt0TODe66nPXGHiT7vf7/AK/zr9Ca/O79oaQR/F34JX1x/wAe0GujcRwVJubM5J5yPlzjHY888fojQAUUUUAFFFFABRRRQAUUUUAFFFFABRRRQAUUUUAFFFFABRRRQAUUUUAFFFFABRRRQAUUUUAFFFFABRRRQAUUUUAFFFFABRRRQAUUUUAFFFFABRRRQAUUUUAFFFFABRRRQAUUUUAFFFFABRRRQB4B+1NdG0+AHjOUY+a1jj56fvZo0/P5uPesP4CILT4MeDoVJIOmwPz/ANNF3n+fFO/bE/5Ny8Xf9uH/AKX29O+EkuPhT4MHpounf+kyUAesef70ef71k+d70ed70Aa3n+9Hn+9ZPne9Hne9AGt5/vR5/vWT53vR53vQBref70ef71k+d70ed70Aa3n+9Hn+9ZPne9Hne9AGt5/vR5/vWT53vR53vQBref70ef71k+d70ed70Aa3n+9Hn+9ZPne9Hne9AGt5/vR5/vWT53vR53vQBref70ef71k+d70ed70Aa3n+9flR+3M2/wCLWkn/AKgkH/pTc1+oPne9fmL+3Cwf4haE3f8Assf+j5KAP//U+5vh2+z9qH4tH/bT/wBCFfVHne9fJXw0kNx+0b8X72U4eO8EIA6bRK68++EH619Pef70Aa/ne9Hne9ZHn+9Hn+9AGv53vR53vWR5/vR5/vQBr+d70ed71kef70ef70Aa/ne9Hne9ZHn+9Hn+9AGv53vR53vWR5/vR5/vQBr+d70ed71kef70ef70Aa/ne9Hne9ZHn+9Hn+9AGv53vR53vWR5/vR5/vQBr+d70ed71kef70ef70Aa/ne9Hne9ZHn+9Hn+9AHy5+13KdP8PeE/FSAl9I1mJhjkjcjSfziHcf4fpMjrIodCGVhkEcgg9xX5x/tabJvhHKXGTHe2zL7HLDP5E199+D5ZJ/COiTStueSxtmYnqSYlJNAHR0UUUAFFFFABRRRQAUUUUAFFFFABRRRQAUUUUAFFFFABRRRQAUUUUAFFFFABRRRQAUUUUAFFFFABRRRQAUUUUAFFFFABRRRQAUUUUAFFFFABRRRQAUUUUAFFFFABRRRQAUUUUAFFFFABRRRQB83ftd27XX7O3i+NCAQlm/PpHeQOf0Fc98ILxZ/hT4PZcgLpFknPqkKqf5V1n7V3/JvnjH/r3g/9KIq82+DUuPhR4TH/AFDbb/0AUAexef70ef71ked70ed70Aa/n+9Hn+9ZHne9Hne9AGv5/vR5/vWR53vR53vQBr+f70ef71ked70ed70Aa/n+9Hn+9ZHne9Hne9AGv5/vR5/vWR53vR53vQBr+f70ef71ked70ed70Aa/n+9Hn+9ZHne9Hne9AGv5/vR5/vWR53vR53vQBr+f70ef71ked70ed70Aa/n+9fnB+20iHxf4duB99rGRSfZZSR/6Ea/Qjzvevzq/bPu0l8Y6Bag/PFYM5+jysB/6CaAP/9X7K+E8v2n44/Ge9PyGPWGh29c7bi5XOf8AgH619Led718s/Bibz/iZ8XtSb5WutdlJUdB/pFy3H/fVfR/n+9AGv53vR53vWR5/vR5/vQBr+d70ed71kef70ef70ATatrmmaDpl3rWs3UdlYWMTzTzysEjjjjBZmZjwAAMmvy1m/bN/av8AjPqWuax+yX8MLLWvBGjyNbLqOr5Se5kUEmSJGu7UdOREqyuON2CwQdt/wUq8T6zY/AvTPCOlzG0g8Ya3Z6beXIYqIrc7pTuxj5WZFDAkAjjvX2H4H8P+Bfgn8L9N8PabNb6N4b8N2S77ieVYoUjRd0k8srkKNxy7ux7kk0AfnPqn7Vf7TPh/4T/A7VPFe/QvFHirxTJp+sLd6alvJc2STiNFMEsY8sOjg74whO0EEAkH9evO96/J/wDbn1zR/G/i/wDZ3/4Rm+t9WsdT8TRXENzaTxzRSxLNAC0bqSrDGeQSOMV+pPn+9AHxd+09+114i+Gfi/R/gr8EPDieM/ibroV0tZCTbWcTchpwjoxZgCcF41VfndwAA3zhq3j/AP4KdfBDS/8AhZ3j200Xxx4e+zNd6lpsa2qyaVErKzoTbLbyNIFJUNG11GoBZs4BOx+xsll4i/at+P8A428Tbf8AhKrbUTZQxuVaSKyErpuTuFKxRA44wADX2D+1d8RNF+HP7PvjbXdZlQefp09lbxuQDNc3SGKONcg5JJyeDwCaANrQv2mvh5qX7P1v+0Zqksmm+HXsftc0bDzJopAdjW6gY3v5nyLjAY4PAr4w079qH9vv4rW//CbfBD4L6VH4MvjnT31qdVu5osZEuZL+y3JIDuUpEUwcB3xuM3wP+CXhHxR+wx4T+CXxa1ZdBl8aNJdWAaZILo3E07XlusMcx/eOFAZo1GWXPTJNU7f9l79tL4P+HBafBr9oIavGgVXtdesv3MEECEIts1z/AGlsx02Ksa45J4AoA9f/AGnvjf8AHb4e/sin4nCzj+H3j5LiyiubaN7bVEg8yfy3Cu6yQnevzDhtoONxI3V886X+yz+278TfCknxH1/9oq/0nxDrUEV3aadYXF9baeyyRKYxIbZ7ZLYkcOIrVwD83zEmvFfjB+0j4q+P37BusXPji3ii8R6J4kstLvpbYBIbgx/vUlCKWUEjhgp27gWUBSAPYvBn7Hf7Y/iezGqeN/2iNQ8MrJBbfZLbRLm+nhWIRBQpiSWwihKqFGI1YMcknPJAP0q+BukfF3w38ONP0j44+IbTxP4thaX7Re2UYjiaMuTEvEcO4quAW8tSe+Tlj6953vXmHw18O614J8B6H4T8ReIbjxVqWlWyQT6pdArPdun/AC0cF3bJ/wBp2Y9SxOSe48/3oA1/O96PO96yPP8Aejz/AHoA1/O96PO96yPP96PP96APEP2olWf4Q6gxJzDcWrj3PmBf/Zq+8fh3cNd/D/wxdsNpm0uycgdAWgQ4r88/2o9SFv8ACyW2J/4/by3iH4FpP/ZK/RrwfpjaJ4S0TRnyGsLG2tznrmKJU5zj09KAOjooooAKKKKACiiigAooooAKKKKACiiigAooooAKKKKACiiigAooooAKKKKACiiigAooooAKKKKACiiigAooooAKKKKACiiigAooooAKKKKACiiigAooooAKKKKACiiigAooooAKKKKACiiigD55/au/5N88Y/8AXvB/6URV5F8H5sfC3wqM9NOt/wD0AV7j+0tZfb/gP41g279tg8uM4/1LLJn8Nufevm34J3xufhT4akLZ22gj6Y/1bMn6YoA9p8/3o8/3rI873o873oA1/P8Aejz/AHrI873o873oA1/P968i+N/xx8F/AP4fah8Q/G85FragJBbx4M93cP8A6uGJSeWY9SeFUFjgAmvRvO96/Lf9ozTLb4x/t0fC74QeMv8AkVdF06TWPs7sRHe3GZG2FeASPJQEc/LuHGTQBxniz9qX/go5rvgI/ETwj8KrLRfC+pPFNYz21ub/AFRbeSQeWGt2uXkcOOGk+xqCp3LsyGH034X+P/xO1f8Abcb4N6jcJbeFx4Uh1B9PMEYeO+ZY5HfzSomBy5QoW2gAfKDk19d+IfGng7wVBZt4q1uw0GG9mW1tTe3MVqsszA7YovMZQzkDhFyeOlfnd4UJ1L/gp94svYx+703wukbMGB+dlt8ZHXoTx7UAfqaZwASTgCvy7+In7W3x++MXxI1r4PfsZaBbXUWhOLfUvE975bQ28hcIzwea3khIyG+8kzyAMUi+UFvtX48a7rGg/BXx1rPh9S+pWei30tuFOG8xYWwQexHWvmf/AIJw6L4a0X9lzQ7zQWjkudVubu41B027vtIkMe1yO6RqgAPOMUAeQ2/7SP7ZH7MPirSdJ/au0nT/ABV4K1bUFsh4j04RJIrzBSCqwCIeXH82UltY3fDbXIAz9oftIftPeGf2efCun6nLp8/iTxB4hmFto2kWhImvZ2xgbgrlU+YDIRmJIVVJNfIf/BS/XoPEfhDwT8DdFxdeJfGGt27QQJ80kcKbo/MKgE4LuB1HAbng167+0F+zd4S/aBu/DGj6T4+fwj8RPAFvFNbT2Mqz3UFvMVHmSW6yxTgM0f7qUSLg5+90oA4Xwr8aP+Cld7rGnX+u/BPQH0C4kR5YUvorO8Fu/ON82oymN1B53W5PBGwHgJ+2j8Wf2jNC+Lvwv+FPwL8UQ+GbrxzDcwyCa2gnj89XUBnlkt55EVQTzGoPfB4x5P8AFfT/ANuv9lPwa/jjTPi/Y+PPBvhkQPNDq9mi39x5su1kkMiSzSICw+b7cJNuQoGAK83/AGkPFXj74+/GX9nbXfhHdxeGvE/iTQpL/T5rpz5VpPKGkk3ERy/dVGAYIxPBHY0Ae0w/sfftx+E/7F8ReDf2kLzU9dhYG7tdXub6TT4tyEPsE7Xkd1gnCiW2jHRvlYAV+rWnvexWFtFqUyz3aRIJpEXYryBfnZVycAnJAzxX5b+AP2Mf2oNOudF17xn+0rr32yyuIri60+3mv721kWKQMYhNcXkW9XUYO+3xyQVYdf0987jrmgDX8/3o8/3rI873o873oA1/P96PP96yPO96PO96ANfz/evzL/au1D7d8V2hzn7FY28P0yWl/wDZ6/R3zvevzI/aXtmh+LmpzsSRdQ20gz6CFY+PxSgD/9b6j/Z+nFxdeOdSQ70utZlYSHq3LNznn+LPPrX0f53vXy3+zXOJ/DOu6hHxHc6rKVB+8P3cbc9ujDvX0b5/vQBr+d70ed71kef70ef70Aa/ne9Hne9ZHn+9Hn+9AHB/GX4TeD/jn4A1D4d+No5Dp99tdZYGCTwTRndHLExBAZT2IIIyCCCRXwbH/wAE6/FWsx2Hhz4i/HbxD4k8GWTof7HKSxpsiUiJYzNeXEUezjBEB4yFC5BH6Xef70ef70AfCP7Qf7JPjDX9P+GUf7N+qab4Sl+GbyGyhv8Ae0SBtrLKH8m5MkgZPmEikNuLMSevFaZ+yj+1/wCOddXXvjV8fbqxWCe2b7H4ee4W3nhgcOcpH9hhhkyOHEEnOGOcYr9I/P8Aejz/AHoA+Jfj1+xcvxB8Xv8AFj4ReM774d+O2tzDcXdo8iJfbU2r5rwPFLG74UPIpYFRzGx5rzbwt+xD8U/iD4o0/wAWftdfEh/GsGkyiSDRLN5XsHKKqozNIsKqGC4lRLcGTq0hyc/pH5/vR5/vQB83ftNfszab+0L4d0Gy07XpvCGteFLkXOl31rHvWAjb8vlq8RGNqlGR1KEAjI4Pyxefsm/tn/FCybwt8aPjrHbeHYLc26x6Qksj3kT4V47tFSxEoZBy0rzHOcg5JP6cef70ef70AfG3jT9irwTc/szXX7Pfw+um0tvOS/iv7v8AfST30Z3b7gqF4cDYdi4VfuqcYPkVl8Kf+CnWnWcFhZ/F3wtHBbRrFGv2aI7UQbVGTpBJwB35r9JvP96PP96AMbwBb+MtM8FaLp/xC1OHWPEtvaxpqF5bxiKKe4A+d0QKgAJ9FUdwq9B2Hne9ZHn+9Hn+9AGv53vR53vWR5/vR5/vQBr+d70ed71kef70ef70AeD/ALQKHW7vwN4S++NX1mJdnXdysXQ8f8te4P8Aj+rNflT8RX3/ABk+DXtr8P8A6VWlfqtQAUUUUAFFFFABRRRQAUUUUAFFFFABRRRQAUUUUAFFFFABRRRQAUUUUAFFFFABRRRQAUUUUAFFFFABRRRQAUUUUAFFFFABRRRQAUUUUAFFFFABRRRQAUUUUAFFFFABRRRQAUUUUAFFFFABRRRQB5t8ZLIah8I/G1lgEy6LqIXd0DfZ32k/Q4NfC37PV75vwk0RCSWhNyhz7XEhGPYAgV95/FeaO2+FvjG4mOI4tG1B2PXAW3cmvzz/AGfC8Xwq0stwHkuSPcec4/mDQB9Bef70ef71ked70ed70Aa/n+9Hn+9ZHne9Hne9AGv5/vXyx+0l+y/oH7QX9ja7a67d+EPGHhti2m6zY5MkIZgxV0V4ywBGUKyIytyGwWU/SHne9Hne9AH5++C/+Cf9mfGtj42+PPxJ1j4rz6OY2sINQ82OKNkYviUy3Ny8ibtrBFaNcg7w4JFZ3xO/Zo/alt/2gvEnxo/Z88c6LoC+JLWC3kGoR7pkSJEVogjWV1GUygYNkNyR0HP6J+d70ed70AfEHwN/Zb+NHhPxlZfED40/GTVPGEywXST6IstxLp3mXXDLvnl2vDjnYLaMZ24wFwfOfE37DvxS+HniS88Vfsj/ABOn8GQ31z9ofQ7ySVdOV2DBmzGJUkVQQI45bZyo/wCWnAx+kvne9Hne9AHxX+z5+xt/wrjxl/wt/wCMHiy4+IvxAaJUiursvJDZEptYRNMzySMvKpIdgCnAjU81U+PX7J3j3xR8Vf8Ahf3wE8eN4N8cC3jt5YrhWazuhGVA3uofamxRujeGVHKr8q4Jr7f873o873oA/NFP2GvjH8XtTtNZ/at+Ltz4itoLnz5NF0sOti2xNiNEzCGKFmBIfy7QNgnD5O4esftF/sueNfF+teAPHX7PeuWHhHxJ8PYWs7FLyLdarbFdq4PlXHzRjIAaJgwYkkEZP2t53vR53vQB8AeF/h3/AMFJLfxLpVx4r+LXhq40WK6he9iitImkkt1cGRFA0uE5ZcjiRDzww61+i3n+9ZHne9Hne9AGv5/vR5/vWR53vR53vQBr+f70ef71ked70ed70Aa/n+9fAv7Vlps8caZqCji4sFQ+7Ryvn9GFfcfne9fDf7U1/wCf4s0iwzn7PZGT6GWRh/7JQB//1/f/ANmrdD4Cuyx4k1GVh9PKiX+lfQnne9fNf7Odw3/CDXiMeE1CUD2HlRH+ZNe/ed70Aa3ne9Hne9ZPne9Hne9AGt53vR53vWT53vR53vQBred70ed71k+d70ed70Aa3ne9Hne9ZPne9Hne9AGt53vR53vWT53vR53vQBred70ed71k+d70ed70Aa3ne9Hne9ZPne9Hne9AGt53vR53vWT53vR53vQBred70ed71k+d70ed70Aa3ne9Hne9ZPne9Hne9AHmXijF58dvhHbTcxx6tHIB0+YTwsP1UV+rlfkf44uPsvxX+FGqc4t9cg3beGK/aLckfkCPxr9cKACiiigAooooAKKKKACiiigAooooAKKKKACiiigAooooAKKKKACiiigAooooAKKKKACiiigAooooAKKKKACiiigAooooAKKKKACiiigAooooAKKKKACiiigAooooAKKKKACiiigAooooAKKKKAPJ/jxcPbfBXx1JGASdFv059JIWQ/oeK+DPgltt/hdoUak42TNz6tNIx/nX2z+0szL8B/GpU4P9nuOPQsoNfEXwqkCfDvQlHGLcfzNAHrHn+9Hn+9ZHne9Hne9AGv5/vR5/vWR53vR53vQBr+f70ef71ked70ed70Aa/n+9Hn+9ZHne9Hne9AGv5/vR5/vWR53vR53vQBr+f70ef71ked70ed70Aa/n+9Hn+9ZHne9Hne9AGv5/vR5/vWR53vR53vQBr+f70ef71ked70ed70Aa/n+9Hn+9ZHne9Hne9AGv5/vX5+/tA3xvPiZexE5+yQ28Q/GMSf8As9fdfne9fAnxyTb8TNVkznzVt2+mIUX+lAH/0PW/h3cXfgey1LTrywldbm8kniWIxhY1IChWDupB+UcAHFeh/wDCZ3knFtp24+jS4P8A46rV6jaWdo/j3xrFJAjrBqc4TcoYqPOlHBPPQCuvREjG2NQo9AMV/Dmd/SC4gp4ipQhyLlk1dR7N92/yP2fDcD5fyRlJSd0nv5eSPBH8VazGV36TtB9ZWH5fuuajHjWYZ8yx+myXP57lWvoLJpjqknDqG+ozXj0fpC8Rx+KcX6wX6WOiXBGXPaDX/bzPn9/G8uB5ensST/FIoAH4Z/lUT+NdSLKsOnRvnrm4YH8AIjmvoMQwg5Eagj2FS5Naz+kTxE9nBf8Abv8AwSVwNly+y/v/AOAeCQ+KtRkIV9MIJ7I7N/7IK0F1++cYTTJ2buApP9K9ryaMmuOp4/8AEstqyX/bkf1TNo8F5av+Xb/8CZ4t/bep/wDQIuP++W/+Jo/tvU/+gRcf98t/8TXtOTRk1h/xHrif/oJX/gEP/kS/9Tcs/wCfX/k0v8zxb+29T/6BFx/3y3/xNH9t6n/0CLj/AL5b/wCJr2nJoyaP+I9cT/8AQSv/AACH/wAiH+puWf8APr/yaX+Z4t/bep/9Ai4/75b/AOJpP7d1Anaul3BYdRtbj9K9qyaMmmvHvif/AKCF/wCAQ/8AkRf6m5Z/z6/8ml/meKNreq4+XSLg/UMP/ZaYNc1rPzaNMB7b/wD4ivbsmjJpf8R64n/6CV/4BD/5Ef8Aqbln/Pr/AMml/meLf23qn/QIuP8Avlv/AImmP4jng5u9PnhHqVP9cV7Zk0ZNXT8feJ4u7xCf/bkP0iTLgzLWv4X/AJM/8zweXxraR/ctLiX/AHRH/wCzSCqw8dxvkLptyp/2zCB/47Ix/SvdprCxuc/aLaOXPXegb+YpsOnadb/8e9rFFj+6ir/IV7S+khn/ACcvLTv35Xf/ANKt+ByPgLL73970uv8AI8Tj8U6jcNi10xph22uxP6IaH8T6rFnzdKZOccuw/nHXvOTRk15T+kDxLzc3to27ckbflf8AE6VwVltrezf/AIEz5C8Y3WoeINQ8PahBbrA2i38d0+JCW2Iysdp2j5uPb61+t+g+OPB3igA+Htbs9QY/wQzozj6oDuH4ivhfxZzqXh4/9P0X/oQr7g174e+BvE5L69oVneSk581oVEoPtIoDj8DX9K+BvH+Mz6jiZZm1eDjZxVt+a9112XY/PuNcjpYKVL6qvivdN9rdTsaK8k/4VOmmfN4P8TaxoW3lIluftlsv/bK7Eox7Aij7N8atFz5N5pHiaFecTxy6dcMPTdGZo8/8BH9K/ePq0JfBNfPT/gfifDe2kvij92v/AAfwPW6K8l/4WXrWl/L4t8F6rp4HWWzVNSgA9S1uTIB9YxWxo/xX+HWuTfZrHX7Vbnp5E7G2mz6eVMEfP4VMsFVSvy3Xdar70NYmDdr/AH6fmehUUisrKGU5B5BHQilrlNwooooAKKKKACiiigAooooAKKKKACiiigAooooAKKKKACiiigAooooAKKKKACiiigAooooAKKKKACiiigAooooAKKKKACiiigAooooAKKKKACiiigAooooAKKKKACiiigDwr9phZ5PgX4tgtl3ST20cXIJAEk0aE8egJP4V+d3hTxbb+GfCunaVdWlw/wBlhCCQKNjtz0JI4zmv0y+N8zwfCXxU6dTYyL+D4U/oa8Z+Ee2H4b6CidPs+78WZif1NfSZTgaE6EqlWN3e29uh42PxVWNVQg7aX2v1Pjy4+LKR48jSJpfX95Gv9TVq1+K+nygC6026gbvzE6/mJAf0r7qudG0K8/4+9Otp/wDfhRun1FVo/DXheFt8Wj2aN6rbxg/oK7f7Lwe/LL71/kc/13Ed19z/AMz40T4keH3XLGVD6FOf0Jp5+I3h4fxyn/gBr7Q/sXQf+gbbf9+U/wAKa+h+H3Uo+mWrKeCDChBH5Uf2Zg/5Zff/AMAPruI7r7v+CfFb/ErQUxtWd8+iD+rCoX+J+iKMi3uXPoFT+rivtH/hFfCX/QFsf/AaL/Cj/hFfCX/QFsf/AAGi/wAKX9lYPtL71/kP69iO6+5/5nxSfino4GfsV2fbbF/8cqpN8WLQZ8jTLl/Tc0S5Pvh2r7ni8O+GoN3kaTaR7uu2CMZx9BUv9i6D/wBA22/78p/hT/svB/yy+9f5C+u4juvu/wCCfBI+LTE4OjyD6zJ/hV6H4p2T486xmj6Zwyt9ccjP6V92R6Vo0Lb4bC3RvVYkB/QVdiWCDd5Eax7uu0AZx9Kf9nYNfYf3/wDAF9cxH8y+7/gnwn/ws7RP+eFz/wB8p/8AF04fE3Qz1iuB9VX/AOLr7w86qzw2cjF5II3Y9SVBJo/s/Cf8+3/4F/wA+t4j+dfd/wAE+G2+JWggZCzt7BB/Vqzbj4s6TB9zTr6bnHyLD+fMor7mn0Lw9dZ+06Zay5OTvgRufXkVkT+A/AlzkzeHtPJJySLWIEn6hc1LyrBvpJfNf5FLHYhdV9z/AMz4pi+L+lvgSaTqEZI5JSEgH8Jc/pWpF8T9DlUM0FzHnsyLkfk5r65/4Vx8Pf8AoXrH/vwv+FWV8B+AkUIPDmm4HraQk/mVzS/sjB/3vvX+QfX8R/d/H/M+OZfilo0f3LS7k/3Vj/8AZpBWfL8V4MnyNLmYZ/jdF4/AtX3HF4U8IwBRBoljGE5XbbRDH0wtaUWm6RBkwWUEeeu2JRn8hVLK8GvsyfzX+QnjcQ+q+7/gnwvB8T7CUhWspw7dFXaxJ9Ooq+PHTuC8WkXjon3mEf3fyzX3QrpGoSMBVHQAYAp3nVSwGE/59v8A8Cf+RP1rEfzr7j4Pl+I9jApNxY3UZOdu5QAT+LV81/EizvfGXieTW7CNYYnjjTbI3zZQYJ4Br9hPOr4x/aZeI+ItIjQAN9md2wMZ3PgH9K6MLk+ErTUORr5/8Axr5hiKcebmT+R//9H7/l4+J/jX/r9f/wBDeugzXNFxL8S/G0qfdW/lQ/USSA/qDXQ7q/yw4pknmeJa/nl/6Uz+lcDH9xTv/KvyRJmjNR7qN1eFc6uUkzRmo91G6i4cpJmjNR7qN1Fw5STNGaj3UbqLhykmaM1Huo3UXDlJM0ZqPdRuouHKSZozUe6jdRcOUkzRmo91G6i4cpJmjNR7qN1Fw5STNGaj3UbqLhynG+LD/wATHw+QM4vouP8AgQr9E6/OzxKGm1nw3bpy8l/EFHvvUf1r9E6/sT6L6/2bGvzh+Uj8t8SPioLyl+gUUUV/VB+ZBWNrHh3w/wCIYfs+vabbajHjG24hSUAe24HFbNFVGTTumJxTVmeTN8GfCVoxk8MXGoeGpD30y8lhT/vyxeL8NmKT/hHfi3o3Oj+KrTWoxwItVswj4/672pTn3MZ/GvWqK6vr1R/E7+qT/F6mH1WC+HT00PJP+E2+IOkceJfBE1xGvDT6RdRXYPuIpfJlA/A1ZtfjN8PpJ1s9U1B9Du2OPJ1SGWxcH0zMqqfwY16lVe6s7S/ga2voEuIX+8kih1P1ByKPbUpfFC3o/wDO/wCgezqLaX3r/Kw2zvrLUYFutPuI7qFujxOHU/QqSKtV5fe/Br4d3M7Xljpf9j3bc+fpksli4Pr+4ZAfxBqr/wAIL480jnwx44uZIxyIdWt4r5T7eavkygf8CNHsaMvhnb1X+V/0D2lRbxv6P/Ox61RXkn9vfF/R+NW8M2OuxjkyaXeGF8f9cbpQM+wlP40o+MvheyITxTZ6l4af11GykSLPtNGJIse++j6jUfwK/o7/AILUPrUF8WnroetUViaL4m8O+JITceH9UttSjAyTbzJLjPrtJx+NbdcsouLs1Y3jJNXQUUUVIwooooAKKKKACiiigAooqOaaG3he4uHWKKJSzuxCqqqMkkngADqaaV9EDZJRXIad8QfAOsXsWm6R4l0y9u5iRHDBeQyyOQMkKiuSeBngVd0zxb4c1jWtT8OabfJPqWjFBdwgMGi8wZXqAG46lScHg4Ndc8vrxvzU2rK70eiva78r6X7nLDHUJW5Zp3dlqtXa9l5219DoqK57xL4r8PeD7GLUvEl6tjbTTR26OwY7pZThVwoJ57nGAMk4AqraeOPCt/4qvPBNrqCPrdhGss1ttdWVGAIIYgK3DDIUkjPNKngK8oe1jTbjq72drK13fyur9rruOeNoxn7OU0paK11e7vbTzs7ej7HV0VVvb2206yuNQvX8q3tY3lkcgkKiDcxwMngDtWd4c8R6J4t0a28QeHboXmn3YJilUMudpKnKsAwIIIIIBrFUJuDq8r5b2vbS/a/fQ1daHP7PmXNa9utu9uxt0UUVkaBRRRQAUUUUAFFFFABRRRQAUUUUAFFFFABRRRQAUUUUAFFFFABRRRQAUUUUAeOftAySRfBzxO0RwTAi9M8NKgP6E15F8NWSPwBoKx9PskR69yMn9a9x+NNubr4T+K4hn5dPmfgZ/wBWu/8ApzXzf8KroS/D7RW4+WJl4/2HZf6V9lkavhJL+9+h87melden6nq/nUedWV5wo84V6Hszk5jV86jzqyvOFHnCj2Ycxq+dR51ZXnCjzhR7MOY1fOo86srzhR5wo9mHMavnUedWV5wo84UezDmNXzqPOrK84UecKPZhzGr51HnVlecKPOFHsw5jV86jzqyvOFHnCj2Ycxq+dR51ZXnCjzhR7MOY1fOo86srzhR5wo9mHMavnV8Y/tHTNJ4y0+I/dWwQj6tLLn+VfXPnCvjD4+SiTxymGzts4h16fM5x+tejlcLVbnFjpfuz/9L7ysXE3jrxrcp9yXU5yP8Av9Kf6101cb4ckM+seI7pjlpr+Ukjocsx4/Ouv3V/lHnlXnxlafeTf4n9O4eFqcV5L8h9FM3Ubq8s2sPopm6jdQFh9FM3UbqAsPopm6jdQFh9FM3UbqAsPopm6jdQFh9FM3UbqAsPopm6jdQFh9FM3UbqAsPopm6jdQFjltaITxP4Ukc7VXUYSSeg/eJ1NfohX5v+O5WtrOx1GPl7W6RxjjoCev1Ar9HkdZEWRDuVgCD6g1/Yv0XcQnh8bS6pwf3qX+R+V+JVO0qEvKX6f5jqKKK/qs/MAooooAKKKKACiiigAooooAKQgEYPINLRQBjWXh3w/pt/LqmnabbWt5OuySaKFI5HXOcMygEjPPNbNFFVKTerYlFLYKKKKkYUUUUAFFFFABRRRQAV8pftKtqS3PhuTWrO9vfAcEry6xHYLlmKYMYlIZSEz3LAZ77ttfVteHeJfjr4e8DeNrrwt46tZtGsRCk1nqJSSaK6JA3qEjjJUqTjgsOOdvAP1PB7xEMaq2Fo+0lFN8q3ta149eZXurJtPW2h85xSqEsI6WIq+zjJpXe197S6WdrO7Se19TlvCfiT9lzxLrVhpXhm10hdUV0ktgdONrIZEI2hZJIkDPnou4knsah+NOm3Hw/8TaV8c/DyFTZyR2msxJ/y8WchChiMcleBk99p7Vw/xW8a+DvjcdE8K/C5H1nxEl5HMt6ltLD9ggjI3u8sqoyqSR04yOfm2g/S3xP17RvC3w71nVPEcK31nHbNG8D8C4aQbFQ+m5iBkdOvavq60KmFxWFny1L1eaMqVSV5craXaOkr6XirNX10Z81SnTxOHxMOaFqdpRqQVo8yTfeWsba2b0du54lqN5Z/GX43aPpVjKLzw14Ptk1KZlOYprqcBoR0wcAqQPQN71514y8K+K9S+PvizxF4Im8nXPDtpZ39vEBkXP7tFeIgdd6ZGO5475HuX7N/w7fwJ4CS7voRDqWusLuZADmONh+6iyeflU5OTwSayvB88kn7TXjlOGRdMtASOxURYH6mvQw+bxw2JxVLBNSp0KLir6qXvw521t7zbv5WOKtlcsRh8PUxd41K1VSdtHH3JcqT391JfO56l4I8baH8UvBh1XTxjz43gu7Z+Xgm24kidfx49Rg15f8Aspuw+Fr2jDAtNSu4h9AVb+bVH8QfC/iT4beJZ/i98Nbb7VBcDOuaUvC3Ma8meMAcSLySRzn5sEFwZ/2V2Sb4YSXkaFFutSvJRnqQWA/pjivFxeDoQyfEV8LK9Kc6bSvrGSU7xfpfR/aVnvdL1sLiq0s1oUMSrVIRnd20km4WkvW2q6O62tf6Sooor81PvwooooAKKKKACiiigAooooAKKKKACiiigAooooAKKKKACiiigAooooAKKKKAOJ+JQhb4c+KluGKxHSr4OR1C+Q+SOvavjb4PTOPh7piuMAGcL7jznP8APNfV3xsvPsPwm8VTZ27rCWLrt/1o8vGffd079K+Uvhsv2XwNpEWMZiL9Mffdm/rX2vDkL4ab/vfofNZxL99H0/U9M86jzqy/Oo86vb9mebzGp51HnVl+dR51Hsw5jU86jzqy/Oo86j2YcxqedR51ZfnUedR7MOY1POo86svzqPOo9mHMannUedWX51HnUezDmNTzqPOrL86jzqPZhzGp51HnVl+dR51Hsw5jU86jzqy/Oo86j2YcxqedR51ZfnUedR7MOY1POr41+NrbvHUp/wCmEP8AI19bedXyh8cFx4ut5M5ElnGfydxj9K7cvjaocuLd4H//0/tjwK4ltL+4T7kt05H0wD/Wu5ya4D4dn/iST/8AXw3/AKAld9mv8lK8nKbbP6o5eguTRk0maM1kFhcmjJpM0ZoCwuTRk0maM0BYXJoyaTNGaAsLk0ZNJmjNAWFyaMmkzRmgLC5NGTSZozQFhcmjJpM0ZoCwuTRk0maM0BYXJoyaTNGaAscV4/ZRoBDdTKmPrz/Sv0M0JJo9E09LnmZbeIPn+8EGfXvX57+Kbb+1L7Q9DA3fb72OPHruIT/2av0dr+u/ouYR8uOrvb3F/wClN/oflniXUX7iH+J/kFFFFf1qflQUUUUAFFFFABRRRQAUUUUAFFFISFBZjgDkk0ALRXz8fjXrviLU7y1+Ffg2fxbY6e5imvmu4rG2aUdVheUMJQO5GPXGCCfU/Bmu+Idf0t7nxN4fl8OX0UrRtbyTx3CsB0ZJI+GU57gc5xkc17OOyDFYan7SukttOaPMr94X5l80jysHnWHxE+Si2/Pllyu3aVuV/JnXUUUV4x6oUUVnaxdzafpF9f2yCSW2glkRW6MyKWAPsSKunBykorqTOSinJ9DRor5++A3xtj+LGlXNvq6QWmv2DEywQ7lSSFj8skauzNgfdYZODg/xAV0Pxn+Ies/DTQdN8QaXZw3dvJqENvdiXdlYJA2Sm1lw3GATkDuDXu1eGMZTx/8AZk42q3ta+j7Wfn0PGpcRYWeC/tCEr07Xv+enl1PYKKajB0V16MAR+NOr589sKpajpunavZS6bq1rFe2k4AkhnRZI3AOQGRgQeRnkVdoqoTcWpRdmiZRUk01oZ2laRpOhWSabollBp9pGSVht41ijUsckhEAAyeTxUmoabp2rWj2Gq2sV7ayY3RTIskbbTkZVgQcEAjjrV2iqdafP7S75t79b9yVSjy8ltNrdAAAGBwBVCHS9Mt7+41WCzhjvbtUWadY1WWVYxhQ7gbmCjoCeO1X6KmM2r2e5Tgna62CiivFfAPjLXtf+Jnj7w7qM4fT9DltEtIwijyw6MX+YAM24jPzE47cV24TLqlanVqwtamk36OSjp82vkcmJx0KVSlTlvN2XyTlr8ke1UVyPg7UvF+qWV3N4x0ePRblLqVIIo51uA9uD+7csuQCRwRx0zgZxXXVz4mg6U3Tk02uzTXya0ZvQrKpBTSav3TT+56oKKKKwNgoriYfHujTePp/h0sU41O3s1vi5VfIMTMFwG3bt2T0K4967aujEYWpS5faRtdJrzT2ZhQxMKl/Zu9m0/VboKKK5G51LxcnjS00u20eOTw5JbO8+oGdRJHcZ+RBF94jA5OCPmzkbcFUKDqNpNKyb1aW3a+77JavoOtWUEm09Wlom9/TZd3sjrqKKKwNgooooAKKKKACiiigAooooAKKKKACiiigAooooA8N/aTleH4KeJHjOCRar+DXUSn9DXzp4RdY/CmjqvA+xwH8TGCf1r6W/aGG74NeJhjP7mI/lPHXyj4Omx4V0oA9LaP8A9Br7/hhXwsv8T/JHymdu1den6s7rzvejzvesnzvejzvevf8AZnlc5red70ed71k+d70ed70ezDnPmf46ftDa/wDC34ufCr4c6Np9td2/jq+lgvJZw5eOFGjQeSUdQr5kzllYYGMDrX1d53vX5kftYj7f+1f+zzZpkOl5cyEgZ4EsLf8AspzX6Q+d71w4VylUqp7Jr8kdNdJQg11X6n5jfFP9vj45fDHx5DpWtfBS40/RFurixU3Utxv1OZWxC1ndrbiHkYYoscxbOAw619dfs/fHfx/8X4tbl8e/C/VPhquleUYW1NpNt0JAxbZ51vbMPL2jOFI5HOeK+XP+Cgcnn618FrST5on8URbl9fniHXr0Jr9BvE+lJ4l8Oar4dlne2TVLWa1MsZw6CZGQsuCORnPWuXDU63tqkXNtRtpZdV6G9edP2UGo2b9ejPiXxh+3+svi7UPCvwG+GusfFZdFYx393p3nJBE+4qvl+TbXLOhKsA7BFJX5N6/NXqGm/H741+OPgnrvjHwX8I9S0Xx3psiQwaNrwNvFMWYFpYnl+zPOiRkkjbGWYbFJPX5a+H3wQ/bj/Zq0a70j4Va54Y8XeG7OSZ7XSLqMwzXDTOP3pYxwFZMc7WvSgHALYFfQH7Mv7S/jX4n+J/FHwq+L3h2Dw3468J4e5js33W0kbtj5QZJirJlckSOrAggjpWOHqVXJRrScXK+llb5PX8TWtCCjzU0ml56/NaHz4v8AwUT+Nvhb+xvDvxC+AuoReJNWykCCS7077bICARbWs9nNIcblBUSOcnryBXt/gH9rn43eM9fbRda+AWt+EbMWt3O2p6hJcLawNBC8ieZ5tlbghmULhX3c8A81wX7dMp074hfAnxGi7mtvEscRyCRteSEnuBnAOK+6/iLqBsvh/wCJrsEgw6ZeOMYJyIXPfiqoUq3tJxlVdo26LXS/YmrUp8kZKHxeb7n5lfDj4w/8FCP2pNMh8T/De88O+BtCtjNEbxYY/JuZkK5Ro7kahcBlz8pWNEIJyScV7JpHxY/bP+EXwb+IXir47aNpGoXfhe3V9Jvi8O6+kecqzzR2Uir5KIVKjZBIQMNliSPjD9lqz/bn1j4baNo/wMu9P8MeCzPeyLqd2LORZZi+HEqypc3HyspVPLgUddxPUfYXxD0L9oLQv2Sfita/tEeJdM8U6lJal7KXT4ljEUI2ZV9tvbAneMj92SP73QDhwjnKn7S872bu/h2/q2h1V1FT5Pdtf57n0T+yv+0vo37R/wAPV15UjsfEOmkQ6rYxltsUpGVkj3EkxSDleSRypJIyaH7R/wC0Lr3wP8S/DWystOtrvSfF2sDT9Qmn374YmKKDEVdQrAvuJYMMKRjJzX56eHfhz4z+B3wz+HH7WnwMtPtMkeiW6+KtIBxHe2pGXnAAJBwPnIBKkLIAcPnuv2rfir4O+OPhP4HeMPBV6J7O98UwRyIcebbTHy98UqdnXP0IwQSCDXS8bUWHanpNJP1V1r/mY/VoureOsXf5P+tj9fPO96PO96yfO96PO96+h9meRzmt53vR53vWT53vR53vR7MOc1vO96+bvjcA2s6dLnk27D8nP+Ne9+d718+/GV9+p6d7Qv8A+hVvhoWmY15Xif/U+0/AYaHTbq1kGJIbhw312qP6V3G6uatIDp/jHxbpeNot9QmCj28xwDzz0Arod1f5N5nh3QxNSi/str7nY/qihU54RmuquSbqN1R7qN1cPMa2JN1G6o91G6jmCxJuo3VHuo3UcwWJN1G6o91G6jmCxJuo3VHuo3UcwWJN1G6o91G6jmCxJuo3VHuo3UcwWJN1G6o91G6jmCxJuo3VHuo3UcwWJN1G6o91G6jmCxj+YkHxD8F3M/zRLqMIOegJlj5/Dr+FfobX5r+MZ3so9O1SPlrO6Rxj2y381r9JkdZEWRDuVgCD6g1/Zf0XcWpYTGUOqlF/emv/AG0/IvEyk1Uoz7pr7rf5jqKKK/qc/LwooooAKKKKACiiigAooooAKr3dtHe2s1nNny50aNscHDDBxViuU8b6DqfibwtqGiaLqkui31ygEN3CzK8TqwYcoVbBxg4PQmt8LFSqxUpcqute3nproY4mTjTk4x5nZ6d/L5ngvhn4cfHH4W21xoHw/wBW0TVtAVmkto9UiminjLEswH2cfMSTjczkHHAUcVqaH8c9Ql8CeLdT8T6WmneJfBqtHd2qtuhaVhiJlOWwrPxjc2McMcis63vv2srG8t/D50zw/ewxxqjao7yeWxC8s6iVJd2eDtgxnoMc10fh34HrF4N8S6T4v1I6jrnjHMmo3kaBVWXqgiXA+WNjkcDd6KMAfp2OrYWSdXNZ0pycoNOn8T9733LlstY3vdKXNbTc/PMHSxMWqeWxqQilJNVPhWnuqPNd6StazatfyPm1tW13X9Pgi8L+NPEvib4gXypcS22lXOzSLJ5WVgJvlESxqG2na23cCG29K928d65481vxF4U+DumamdK1HUbJL3WdQtTslSOPh1gK/cLMp5GOoHAyDn+H/D37R3gyztvBvh2y8LDT44nIv1jlhG4HAMscZT96wwcrEynHzNnrtat8KPiNBf8Ah3xvoHiK2v8AxhpMElrdy6hEY7W8hlZmwVgBZdm7AwOeDlSOfUx+Y4N14tzpWXPyPSXvNPlckoqMYJpWi1dNpu+rXnYLA4pUZJQqXfLzr4fdTXMleTcpNN3knZpNK2ieN4Y0rWfB3x9tfCMfibWta02TRpLt01O+a5HmGTYCFwq8Y44J5PNfS2uKraLqCucKbeUE+g2GvmD4YxeMr79oDxPeeO3spNT03SreA/2f5gtkWVkdVUSgOeASSe/TjFfUOs2893o99a2yhppoJUQE4BZlIAJ7c96+N4ubWMoKck5KELtbNv3r9Oj3Pq+F7PC1nBNJznZPdJaW+9Hw/wDD/wAA6vN8I/C/xL+HqhPFegm6YJyRfW3nyb7dx3JGdv1I6kEdb8YfHWifE39ny48Q6Q3lyxXNoLi3bmW2uBIA0bDqDzwccjnvgey/Anwhrfgf4Z6Z4e8RRC31CJpnkiDK+zzJGYDchKnjB4JrzP4ufs63nizU59c8AX8WkT6syDVLaZnS2uQjB1lwiviQMOflweuQd2762lxDg62dN4uqkqdVyhU3XLzNuL7xe8X0fk9PmKmR4ullKWGp3c6ajOGz5uVJSXmtpLqvNa7ng3WdZu/j3rejXV7O1jZaFZtHbGRvKV3ERZthON2WPOM1ymo63r+p+KvjRpsmoTtZafpKpbwNM5iiZrdizIn3VLc5IGT3rpvHHgz4p+HvHh+I/wALILHVLi8sItPurS8ZlPyMD5ifPGuAFGcvnrhT2xvD/wANPibc3/xKuvF0FhDd+K9PjgglspGNs83lMmAshMigZG4sBz93IrDD1cFy/W/aQSdOnG11zKUZ0+b3d9k3fqr+ZvXp4vm+q+zndVKkr2fK4yhPl126pW6O3keDrD8VdN+D2jfENfFF3pUVvJZWWm2VrMUtxbhihluFUkOWfswPHB4IUe12uleNfhd8UPBFvqni/UfEVr4l+1W94l3MzW/nhdymKMsQg5XA5PBwcHaOh8VfDXxZe/s62PgK0skuNes4LQCCOVAvmRSKzfvJCq8LnPOM8AkYzv8AxN8F+KvEcnw/1TR7YS3ugalbz3Y8yNPLiIXzWyx5wV6LknsDXdieI6GJk6c5U1Cc68XpFe7yr2bvvbmbad9ZXZxUMgrUI88YzcoxoyWst+b31ba9kk1bRHvdeJ6l8Fm1PULnUX8e+K7c3MjSGODUxFEm452oixYVR0AHQV7ZXiepfs6/BvV9QudV1Dw8JLq8keaVhdXSBnc7mO1ZQoyT0AAr8yyHHwoSk51ZQv8AywjO/wD4FKNvlc/Qs6wU60YqFOM7fzSlH8oyuepeHdGPh/RrbRzf3Wp/ZlK/aL2QTXEmSTmRwF3EZxnHSvKvjX4o8R6dZ6N4L8GyG31vxbdG0iuB1t4VAM0oIOQwU8HtyRyBXrGgaDpHhfR7XQNBtxaWFkmyGIFm2rnPViWPJySSSa84+KfgLXvFE2h+JfB13BaeIfDdw01t9qDG3lSQBZI5NuWAYDqB7cZ3DbI6+H/tJVcQ043k05LS9nyuSV7Lmtdaq190ZZvRrfUHTopqVkrRetrrmUW7XfLez0d/Mj8L/CrV/Cmv2esQeOdc1S2jSRLm01O4F3FNuA2lNwHlbW5yAxPTIGc8V8K2x8WfizeRkFUubVffckb5/UV0fgy6+Pmua7aXvjSz0zw3o9puE9tCftFxdsYwMhg8iom/5h8wYYwQw5rS8B/D3WfDPinx1r2qXEEkfie7Wa2ETMWSNQ4AkBRQG+YdCw9697EYuVOnioYutCc5Qily2a/iRdrxSTaSb3ellfSy8ahhlOeHlhqUowjOTfNdf8u2r2buk27bLXW3V+L+Fvif4k8Ofs53njS9vpL7V57yeC1lu3MhR5ZfLQlpCcrHywB44x0riYpfEWpX9hp3ws8Z+JfFvie3nia/uRck6DbtkmUN5ihWU7TsUFkYfdJPy17ZpPwKvn+Ckvww8QX0P24Ty3MNxCGlijk80yR5EiqWHZhjoTiqWm6X+0xY2g8H6fb+F9IsLe3VEv7WOVFUscMYoVwokHLEGFYyTx6D6qjmuAU8TPCyp8zqTfvNKLjpy6crcorX3YtPq7qx81Vy3GuNCGIU+VU4r3U3JS15vtJRb095prorHKfGGPxdqvx38OeHfBuoPpuoX+kvBPcx5PkQPI7SyKAeDtXg8HOMEHBG58PdI1Dwz8VfFnwpTXtTvtKudLW7Wa5uS91DcTECSSOQABWJkLZAznBOSMnvLD4d+J7T4uaP4yvr1dRtbLQjYXFy+2OWW5D53eWvA35zxwMEE5xmxH4J8QWvx7l8dW8QOjXmji2mk8xcidHG1dmdx+UA5xj3zwfJqZ5QeFWCjOPKqG9lrUU7rVq90vhXntqepDJ631l4twlzOttrpBxs9E7Wb3flvoeCJ8LlT4/P4VHi7xEC+jC4N8NQxfHEmPLM3l8x99uOvOa+2NLsBpem2umi4muvssSR+dcP5k0mwY3SOfvMepPc15RN4M8QS/HeDx0ERdHh0ZrQvvG5pjKTs2dehznp754rsrv4kfDvT7qWxv8AxTpVtcwMUkilvoEdGXgqys4II7g14PEuYYjMFh403z2pxvZXtLVO9l6aHs8P4GjgnXlNcl5ytd2utLWuztK8Bg1vXJ/2kLnQhezjS7bQVlNtvYwGRpR8+zO0NzjdjOOM4r0L/hanww/6G/R//Bhb/wDxdcxp/gy/uvizcfFHTtQtZtI1DR0tIfLcyMz7w6ycDY0eOQQ/Pp3rz8pofV413ioct6clHmT+K6203tc7szre3dFYaXNaabs1trv5XsfK/irVtN1v4g61o/7QWra5oumm5c6baRxtHpjwQuVjY7AzSFs/fVPUmToB0nxS0bUPh78Nfhv4f8Jap/bF9baqslhcIoVJmfe8ZCKzArlwBycj64rsNcs/2pNQtJ/AuoadoOsadqMLwS6o+VUJLuGXTzEIZAR92Bh0+8cmt+6+DfiC00P4YaNYXEV23hC+jmvHZioKH53KZGSAw2qOpBHTnH6c86w9KWGdStDli37kZKUHanJKXwpwbeji23K93sfniymtUWIUKU+aS+OUXGavOLcfialZappJK1luchaaB4m+FvxV8DpeeJ9Q1y78Vi4h1UXMxeB2iTKeWnYIWO3JOO2ASK+x68T+J3gnX/EHjXwD4l0GISLoV+zXZMipst5Au5sMefukYGTz0xk17ZX5rxLmMcXSwtdyTqOLUrWWqnK10tvdtbysfoHD+BeGqYiik1BSTje70cY3s3v717+YUUUV8mfShRRRQAUUUUAFFFFABRRRQAUUUUAeV/G+F5/hL4qROosZG/BMMf0FfEngmcHwppu3tFj8iRX3l8U7f7V8M/FkG0uW0q9KgdSwhYr+oFfnp4DuN3hSxBOSvmD8pGx+lfoHCOtCa8/0Pk+INKsX5fqeh+dR51ZfnUedX1fszwec1POo86svzqPOo9mHOfCX7V3wz+O+sfF/4e/F74K6DZ+I7rwnFOpt7ueKJFldiVZ1lng3KQ3Gx8gjnisvwro3/BRDx34ottb8aeINI+H2hw3sBn0yCO2uHaCLazmHy1umZX5UrJdKc54C4z+gPnUedXmyyiLqOfPJXd7J2X+f4nbHMGoqPKtOtj8yfjH+zT+2l8X/ABTbaxrXjbwwbHQ9Se/0aAeZH9jIfMWdtgWcgKuRI7jI716rP8Cv2ofiP8IvGPw++OHxE069v9UNrJpU+mwiJIXt2MjLcNFb2pMcjBQQEYrjcCfu19w+dR51KOS01KUm2776vUbzKdkklptofm3ZQf8ABS61srb4ZW50KGG0fy18Vu9tI7RICV3KxdmUjCZNj5h4LHOXr3v9mT9mvUfgzd63488f6+3ijx74ox9vvAWaKNd24pG0gDvlsEuyrwAAqgc/VPnUedVUcphGSm5OTW13exNTMJSi4pJX3sfNn7TfwN8SfG+TwG3h3UrXTv8AhFtbi1G5a5MgLQLjPleWrZkBUYDFQc/eGOfozxNpieIvDmq6BI+xdStZ7Yt6ecjJn8M1P51HnV1xwcFKUustzB4mTSj2Py0+GGjft+/s/wDhYfC7wN4B0DX9F0u4uGt724uoy0wmkLllB1C3YKScgNEpHfmvfNa0v9pz4x/s2ePvC3xV8L6Xovi3UEMWmWdhcIEniUI/zu1xcRqzMCFJlA/vBcZP2f51HnVxUsnUY8nPJq1rXVrfcdM8xcnzcqve9/6Z5t8C/BuqeAPgx4S8CeJAj3+labDb3SBhIgk25dAejKpO30IFfDvjv/gn7J/wubRPHPwn1O00fwsmpW+pX+lXDyoIJYJVdvsaxxuhV1BwjlRGeFJQhU/SvzqPOratldKpCMJrbYzp4+cJOUXuannUedWX51HnV2+zOXnNTzqPOrL86jzqPZhzmp51eEfFxw+pWAzyIm/9Cr2Pzq8O+KThtYtPaD/2dq0pQsyKkro//9X701Zlk+KfjF0GxRdspUdCQxBP44z+NaFY9zIZviN41mbgrqMyceiyyD+lau6v8q+LJ82aYmXecv8A0pn9R5XC2GpL+6vyH0UzdRur587+UfRTN1G6gOUfRTN1G6gOUfRTN1G6gOUfRTN1G6gOUfRTN1G6gOUfRTN1G6gOUfRTN1G6gOUfRTN1G6gOUfRTN1G6gOU47x44XRFU/wAcyD9Cf6V+j+m2zWenWto5JaCJEJJycqoFfnP4hhF9qOhaZ1+1XsSY+rBe/H8VfpLX9gfRbwtqeOrP+4v/AEtv9D8k8T6mtCH+J/kFFFFf1oflAUUUUAFFFFABRRRQAUUUUAFFFFABRRRQAUUUUAcLoXgLTdB8Ya/4zt7meW78QiESxyFTHGIF2jZhQefcmu6ooroxOLqVpKdV3aSXySsl8krGGHw1OlFxpqyu3827v72wooornNwooooAKKKKACiiigAooooAKKKKACiiigAooooAK4u7+G/w71C6lvr/AMLaVc3M7F5JZbGB3dm5LMzISSe5NdpRW9DFVaTbpScfR2Ma2Gp1FapFP1Vzg/8AhVfww/6FDR//AAX2/wD8RXaWlpa2FrFZWMKW9vAoSOONQiIijAVVGAAB0AqxRV18bWqpKrNy9W2TRwlKm704JeiSCiiiuU6DyU698X9HJGq+GbHXYhz5ml3nkyY/643SgZ9hKfxoHxl8L2RCeKrPUvDT+uo2UiRZ9poxJFj33161SEAjB5Brs9vTl8dP7nb87r8Dn9lNfDL79f8AL8zD0XxP4b8RxedoGq2upJjObeZJcfXaTj8a3a4HWfhb8PNfl+0an4ftGuM586KPyJs/9dYtr/rWH/wrHU9L+bwj4x1bTNv3YriRNRtwPTZcqzgfRxR7OjL4ZNeq/Vf5Bz1FvG/o/wDP/M9aoryTzPjVov8ArIdH8Twp/wA82l065YeuG86LP4ij/har6Z8vjDwtrGi7fvzLb/brZffzbQyHH1UUfUpv4Gpej/Tf8A+sxXxXXr/nset0VxOhfEjwF4lYRaJr9nczE48rzVSYH3ifDj8RXbVz1KUoO01Zm0JxkrxdwooorMoKKKKACiiigDkfiAyp4D8SMxAA028JJ6AeS9fmf4Fk2eGrcHj5pP8A0I1+kfxS/wCSZeLv+wPf/wDpO9fmj4Ql2+HbQenmf+htX6HwVG9Op6o+Q4llacPQ7vz/AHo8/wB6yfPo8+vt/ZnzXOa3n+9Hn+9ZPn0efR7MOc1vP96PP96yfPo8+j2Yc5ref70ef71k+fR59Hsw5zW8/wB6PP8Aesnz6PPo9mHOa3n+9Hn+9ZPn0efR7MOc1vP96PP96yfPo8+j2Yc5ref70ef71k+fR59Hsw5zW8/3o8/3rJ8+jz6PZhzmt5/vR5/vWT59Hn0ezDnNbz/evFfiO2/XID/07r/6G9eqefXj3jty+tqfSFf5mlyWDmuf/9b7jSTz/G/jG5AwJdTnIHpmaU/1razWBaHHivxV/wBhGf8A9GPW7kV/lFxBK+Ort/zS/Nn9V4CP7iHoh2aM03IoyK8g6+UdmjNNyKMigOUdmjNNyKMigOUdmjNNyKMigOUdmjNNyKMigOUdmjNNyKMigOUdmjNNyKMigOUdmjNNyKMigOUdmjNNyKMigOUdmjNNyKMigOUwr2X7P4r8K3hO3yNRhbd6YkQ/0r9Hq/NPxPIYJdKu14aG7jIz04Oefyr9LK/sr6Lla+FxtPtKD+9S/wAj8c8UIWq0ZeT/AECiiiv6qPywKKKKACiiigAooooAKKKKACiiigAooooAKKKKACiiigAooooAKKKKACiiigAooooAKKKKACiiigAooooAKKKKACiiigAooooAKKKKACiiigAooooAKKKKAOa13wb4T8ToU8Q6PaajkY3Two7D6MRkfga4r/hT+i2HzeEtX1Xw4RyEs7x3gz7w3Hmx49gBXrVFdFPF1Yq0ZO3bp92xjPDwk7tankv9lfGXRv8Ajw13TPEUY/h1C1azl47ebbFkz7+UKP8AhYPi/SuPFPgbUI1H/LbTJItRj+u1SkwH/bMmvWqK0+tJ/HBP8PysvwJ9g18Mmvx/PX8TzTTvjB8ONRuBZtrUVhdn/lhfq9lKD6bbgISfpmvRoZobmJZ7eRZY3GVZSGUj1BHBqrqOlaXrEBtdWs4b2E/wTxrIv5MCK84m+DHgRJWudCt7jw9cMc+ZpV1LZ/8AjkbCM/ihotQl3X3P/IP3q7P8P8z1ao5JooQpmdUDMFG4gZZuABnuewryn/hEfiZo3Ph7xmNQiT7sGsWaTZHoZ7cwv+JBrn/Ez+ONW0mXRPHfgePW7IkP9o0a+UyxuvKyRR3AhkV1PIKuT26ZzUMHGTVppr7n+NhSxDS1i/69LnoHxRg+0/DTxZCE3s2k320ereQ+P1r8wfC83/EithnJG8f+Pmvq+D4zLaWmsfDLxq955t1Z3MNleXls0F0S8bKsV1HjaZOwkjJVuN205J+XtH8O6rp1glrMqMyk/dbjk574r6bJs9wOVSlQzCvGm5armaV13V7HgZrga+MUamGpuSWjsr2ZpedR51RtYagvWEn6YP8AI1Eba9HWB/8Avk19nS4pyqouani6bXlOL/U+cnlOMi7SoyX/AG6/8iz51HnVnuLpCFNvMSfSJz+oFSJDeSfdglGfVGX+YFXU4lyyC5p4qml5zj/mTHK8XJ2VKX/gL/yLnnUedTBp2pEZ8g/99L/jTWsNTAJNu34Mp/8AZq4Fxzkbdvr1L/wZD/M6f7AzC1/q8/8AwF/5EvnUedVRre/XlraTn0Gf5ZqIi6H/AC7zf9+n/wAK7aPFGV1P4eLpv0nF/qYTynFx+KjJf9uv/I0POo86s0PKTjy3/FSP6U799/cb8jXd/amE/wCf0f8AwJf5nN9VrfyP7maHnUedWf8AvjwEb8jUv2e9/wCeEn/fBqZZxgo714/+BL/MpYOu9oP7mW/Oo86q32a9P/LB/wDvk1Mun6i/SIj6kD+tefiOLcopfxcZTj6ziv1Omnk+Nn8FGT/7df8AkP8AOo86g6ZqI6RZ/wCBD/GmNp+or1hP4EH+RrmhxzkctsdS/wDBkP8AM0lkOYLfDz/8Bf8AkP8AOo86q72t8nWBzn0Gf5VWf7Uhx9mnb6ROf6V10+Ksqn8OLpv/ALfj/mYyyjGLejL/AMBf+Ro+dR51Zw+1Hpbzf9+n/wAKk8q8/wCeEv8A3w3+Fa/6x5b/ANBNP/wOP+ZP9mYr/n1L7n/kXfOryvxk27Vwf+mS/wAzXpDQ3oGfs8p+iGuM1/w5r2o3wuLeycoEC5JUcgn/AGq48RxdlEVrjKf/AIHH/M2p5NjW9KMv/AX/AJH/1/tHQZRcahrd4CSJ72VsnqcsTz+ddNurjPBReTTZ55OXknYk+vyr/Wuwr/JHHVfaVpz7u5/WtCmlBIfuo3UyiuU25R+6jdTKKA5R+6jdTKKA5R+6jdTKKA5R+6jdTKKA5R+6jdTKKA5R+6jdTKKA5R+6jdTKKA5R+6jdTKKA5R+6jdTKKA5TmfEqG4n0m1XG6W7jUZ6cnHP51+l1fm7cxfafFfhazxv8/UYF2+uZUH9a/SKv7O+i3RthMbU7ygvuUv8AM/GPFGX72jHyf6BRRRX9VH5WFFFFABRRRQAUUUUAFFFFABRRRQAUUUUAFFFFABRRRQAUUUUAFFFFABRRRQAUUUUAFFFFABRRRQAUUUUAFFFFABRRRQAUUUUAFFFFABRRRQAUUUUAFFFFABRRRQAUUVy2v+NfC3hchNb1GKCZ/uQAmSd/92JMu34LXNi8ZRoQdWvNRiuraS+9mlKjOpLlgm35HU0V5f8A8JV448QfL4U8PGwt26XmsMYR9VtkzKfbcUo/4VzPrP7zx3rl1rYPW1jP2Sy+nlREM+P9t2z6V4v9vTraYKjKf95+5D72uZrzjGS8zt+oRh/Hml5LV/ctPvaNLVPiX4U0+6Om2k76vqI4+yadGbqYH/a2fKn/AANlrzfxN4L8bfFG9iuNRWTwxpiRhPIe9lleQZLB2t7d44g/OPnd+OCO1e6aXo+k6HarZaNZw2NuvRIUWNfyUDn3rSrSngMbUfNiMQ4/3afu/fPWfzi4ehM69CKtTp385a/ht8nzHzyPgN4B8KeGtVu7a0N7qKWk7pPOQNsixttZY4wqAg9DtJ96d8OtP0zUfBlg15aRTsplUmSNWziRsdQe3Fe66rCLjS7yA9JIZF556qRXg/wkl3eEgp/5ZzyD+R/rXxHEWV4fD4+l7OCXNGV+rbTjq27tvzbbPYwGJnOhLmezVvLfZbL5HTz+CvCdxnzNJtxn+4gT/wBBxVP/AIV34M/6Bif99v8A/FV2eRRkVwSwGHerpr7kbKvNfaf3nEN8NvBTsGOmDI9JJQPyD4q3F4D8IQ/c0qE4/vAt/wChE11mRRkVKy7DLVU4/cv8hvEVP5n95hx+F/DUSlU0q0AIwf3Ccj345preFPC7AqdItMH0gjH6ha3sijIrb6tS/kX3In2su5zD+CfCUg2tpNuPogH8sVQk+HHgqX72mKO/yySL/JhXbZFGRWUsBh5b019yKWIqLaT+889/4VZ4M/59H/7+v/jR/wAKs8Gf8+j/APf1/wDGvQsijIrL+ycJ/wA+o/civrdX+Z/eee/8Ks8Gf8+j/wDf1/8AGp/+FZeCP+gb/wCRpv8A4uu7yKMimsqwn/PqP3IX1qr/ADP7zjYvh54Mh+5paHjHzM7f+hMa0ovCXheE5j0m1z1yYUJGPqK6DIoyK2hgqEfhppfJEuvN7yZiv4a8OSEGTSrRyPWCM/0qF/CXhaQANpFoMekKL/IV0GRRkVbw1J7wX3ISqy7nLP4I8JSY3aVAMei7f5Yqu/w98Gu246XGD7M4H5Bq7HIoyKzeAw73pr7kNYip/M/vOM/4V34M/wCgYn/fb/8AxVH/AArvwZ/0DE/77f8A+Krs8ijIqf7Ow3/PqP3If1ip/M/vOSHgPweBj+yofyP+NeE/FTT9N0vX7e00y2jto/sysyxrtyxdxzj2Ar6jyK+XPizIZPF7qf8AlnDGo/U/1r53irD0qeEvCCTutkj0MsqSlV1fQ//Q+v8AwOcaTN/13b/0Fa7PdXH+FFEEN9bp9yO5cD8AB/Surz71/kdiYuNRpn9d0bOKZLuo3VFn3r4F/wCCgvifxzoXwy0iy0D7db+GtTvhF4gu9OUmeKyGPk3DARZMkHcwVjhCcMQfY4WyCWaZhRy+E1Fzdrvp1+b7Lq7I481x8cLh54hxvyrb+vxfQ+tIfjT8HrjWB4et/HWgyaq032YWi6pam4M+7b5YiEm/fu424znjFabfErwKvjwfDBtZgHilrX7aLAk+aYM43Zxtz3253Y+bGOa/Jn4ft/wTB1fRNNtdYtL6x1Fitu39syapHcuwO0SzvYytZoH+8SrKqjqFHFfSX7W3wpurXRvDX7RnwVjUeIvACQSq1qQ4utKjXoCM+YI0J7nMZcc8V+jY3w/y+lj6eAqOvSdTmjGVWmoRc/sWfNK8G9H2unc+cocQYieHliI+zny2bUJOT5eullZpbd9T7o8X+MPDfgPw3qHi/wAXXyabpGlxGW4ncMwRB6KgLMScAKoJJ4AJq/omuaT4k0ey8QaDdJfadqMKXFvPEcpJFINysp9CDX5W/G34z6d+1svwt+C3w4uQV8XTQ6jr0SMC1lFBkvBKwztZNrv7kJzhhn1X9uu/8UeAfg14b8KeCYL3T/BjXEVlrM+mITNb6dEqqsW4YVFkGQSzBWOEY4Yg8FHw0nz4LAYibp4mvKV1LaMI6JtbuUmpcqvZ2Xe50T4ljy169OPNSpparrJ6/ck1ftqfY8Pxp+D1xrA8PW/jrQZNVab7MLRdUtTcGfdt8sRCTfv3cbcZzxivS91fjD8P2/4Jg6vomm2usWl9Y6ixW3b+2ZNUjuXYHaJZ3sZWs0D/AHiVZVUdQo4r9iNHGmR6TZR6I8b6ckEYtjE2+MwhQIyrAncu3GDk5FeRx1wrRyucIUoV43un7WmoJ26wak7r8tNdTryHNZ4qMpTlB7fBLmt66KxrbqQuFBZjgDqfSo8+9fnD/wAFDPFHi3StC8KaHKNStfh7ql0w8RXeloGnMSsgW3Jcqi+YCxUOwVmHIIGD4nCPDks2zGll8JqLnfV+Sbdl1emi6uyO7N8xWEw08Q43t0/D5Lu+iPtrTPjP8INa1eLw/o3jnQr/AFS4cxR2lvqdrLcPIM5RY0kLFuOgGa534rftE/CD4J3NnY/ErXTpV1qMTzW0S21zcNIkZwSDBE6ryQBuIz+dfnN4AP8AwTB1qHR1ktpdL1SVo1CavPqsMiSKcBriWKVrNckbiRIIxnnHQdd+2vrfgHRvj/8ABvUfHsUVz4WsYLme8R4BdQyW+9dq+VhxICVAxgjkfWv03C+G2ClnFLATpYlRcajanCMJScItr2bvNSu1bbtZ66fMVeJKywc8QpU204q6k5JczS97a1t9z1HRP+Cln7POq6pBp99aa7o0ExIa7u7OFoIgATlxbTzSnJGBtjY5PPGSPrex+M/ww1Px2nwzsfEEEviWWzS+SzAcF7eRd6srlRGzFTu2Bi4XkrjmvhSD9t/9k3x/PoHgTUvh9f3tolzBb2EF5o+nT2to8hESNHF9ok2BQcfu0LY4APSvE/2jvh/448Vftnak3wqufsfiXRNDttaslj/dtLJZov7lSCAGZeBng/dPBzXqPw2wGJxTw9fDVME/Zznec1KLcXFRb91NL3ve7aW6t8i4kr06XtKdSNf3or3U09U79d9ND9pC4UFmOAOp9K8Gv/2oPgRpngyX4g3vi2CPQob99MacQ3DObyPO6JYVjMrEAZyqFdvzA7eayP2b/wBoDQvj74IF6dtl4l0sC31nTW+WS3uBkFgh+bypCCVPYgqfmU18gfsa/DfwP8SvCvxZ8HePNDt9Z0VPFE5hhnT/AFLlGQvDIMPFJswN8bKwHQ818LlvBlChDGzzlTi8NKmpRjy3alJp2umr7OL2a73R72JzmdR0VguV+0UrN3tdJNXt801ufdVr+0Z8ALy2iu4fiR4dVJ0V1Emq2sTgMMjcjyKyn1VgCOhGa6vwz8U/hn41vZNM8G+LtI168jQyPDYX9vdSKgOCxSJ2IXJAzjFflZ47/Zl+CPhr9sLwL8NYPD3l+EvEmmzPJZG7vGD3EazHcJvN81T8q8CTbx055/RX4Zfs1/BH4Oa1P4i+HPhlNJ1K5hNu85ubm5fyiQxVftEsgXJUZ24JwM108VcO8P4LC0quHq1nOrDnheMOWzbjaTUrppxd7J/5Z5VmGYV6so1IQShLllZyvsnpp59bHvO6jdUWfejPvX5WfVWKdsc/ELwV/wBhS3/9HxV+jdfnFaHPxB8Ff9hS3/8AR8Vfo7X9sfRe/wCRdiv8a/I/EPFH/eaXowooor+oD8vCiiigAooooAKKKKACiiigAooooAKKKKACiiigAooooAKKKKACiiigAooooAKKKKACiiigAooooAKKKKACiiigAooooAKKKKACiiigAooooAKKKjmmit4mnndY40GWZiAoA7kngUm0ldgkSUV5tc/FDQZZ3sfC8Nx4lvEO0pp6eZEp/wBudtsKj/gZPtUH2P4n+I/+P28tvCto3/LO1AvLwj0aWQCJD7qjY9a+flxLQm3HCJ1n/cV185tqCfk5X8j0FltRa1WoLz3+7f8ACx3uq61pGhWpvdavYbGBf45nWNfoCxGT7DmuC/4WLda18ngTQrrWVPAuph9js/qJJRucf7iHPrWnpXw18J6bdDUri3fVdRHP2vUHN1Nn1UyZCf8AAAtd7U+xzLEfxJqlHtH3pf8AgUlyrzXJLykPnw1P4Yub89F9yd3969Dy/wD4RTxt4g+bxb4hNlA3Wz0cGBcejXD5lb327K6nQPBnhbwuCdD02K2lf702N8z5/vSvl2/E109FdOE4fwtKarcvNP8Amk3KXybvb0jZeRnVzCrOPJe0ey0X4b/O7CiiivaOIKKKKAMvXJvs+i6hcZI8q3lbI6/KhNeHfCmPy/CETYx5k0rfrj+leveNZvI8H63KMgiyuACOoJjIH615d8N4vK8F6cOMsJGOPeRsfpX5pxfO+YUY9oSf3tf5H0WVL9xN+a/JneZFGRUdFeRzHUSZFGRUdFHMBJkUZFR0UcwEmRRkVHRRzASZFGRUdFHMBJkUZFR0UcwEmRRkVHRRzASZFGRUdFHMBJkUZFR0UcwEmRRkVHRRzASZFfMvxeh8vxVG4/5a20bfkzL/AEr6Wr56+MiAatp8ndoGB/Bj/jXznFKvhH5NHoZY/wB6j//R+w/DZ51Ef9PUldNk1zehmM3ertCMQm7k2D0GTj9MV0Wa/wAkcx0rzXmz+vMJrSi/Idk18X/Gv9q2++A3xi0jw5468PyJ4B1azUrq0EbSzC7LkPxuCmOJcF0CmTB3LnhT9nZrO1fSNI1/TbjRtesoNS0+7XZNbXMSzQyqf4XjcFWHsRXo8PZjg8PiObH0Pa02mmlLlav9qLs9V0umn+KxzHDVqlO2HnySTve116NdmflD+0x+018AvjTpV34A+G3g6Tx/4z1eBLPTdTGmBHgMhLHyHlX7XvQ87FjVTkndjOftv4W2938Bv2YNMX4mnMnhXR5Jr6MfvNiIGfyBjIYqpCcZBPtXt3hjwZ4O8EWcun+C9CsNAtZ5PNki0+1itY3kwF3ssSqC2ABkjOABW/dW1rfW01lewpcW86NHJHIodHRhhlZTkEEcEHg19VnnGeCq4SjlWDoSjh4T53zT5pydraOyjBWvpFWvr5HkYHJK8K08XWmnUkrK0bRXXu29e78j81f+Cfnwkt1TxD8f7/Ro9HbxNPNDpFogOy2sTIWcx7xnazYRT0Kpxwa9j+Nf7Vt98BvjFpHhzx14fkTwDq1mpXVoI2lmF2XIfjcFMcS4LoFMmDuXPCn7DsLCw0qyg0zS7aKzs7VFjhhhRY440UYVURQAqgcAAYFQ6vpGka/ptxo2vWUGpafdrsmtrmJZoZVP8LxuCrD2Iqcx44oZhnNXMczw/tKU04qPM04xtaPLLX3orXVNN3vvcrDZFUw+CjhsLU5ZLW9tG93ddn5bH5Q/tMftNfAL406Vd+APht4Ok8f+M9XgSz03UxpgR4DISx8h5V+170POxY1U5J3Yzn9Bv2c/BviT4ffBLwj4O8Wn/ibabZKk6Bg3lEksItwyDsBC5HHHHFeh+GPBng7wRZy6f4L0Kw0C1nk82SLT7WK1jeTAXeyxKoLYAGSM4AFeI+Mvhl+0RrXibUNU8I/Gv/hG9HuHDW+nf8I3Y3n2dQoBXz5XDvkgnJHfFd+YcRYDH4OGTYRrD0IPn5q0pzlKVuWy9nTko6Nuyik9730OfDZbiMPWljay9pUkuW0FGKS3+1JX9b38j6Wya+Ivib+16/wV+PB8B/FHRH0/wRfWUUljq8MUkshnJHms4BIeJc7SsaGRCASGDDHQ/wDCnf2q/wDo4f8A8tLTf/jle3+HPAupTeBE8H/GDVLb4i3Ds5ubi70y3t4bhTIXjVrRd8Q8sYAPcjPWvIwFDKcBN1MXVhioSXK4wdWM43+3FzpRjeNtne97WtdrsxFTF4hKNGEqUlreXI0/7rUZt6/ofmB+038fPgt+0LDP8O/g74Fk8aeN9WeCC21pdPWGZIoj5mYZGX7WQvKsrrGgUsxYqMGT4w6Do3wp+JP7PQ+PCQahoGi6G1lqsl1A17btJCjAq8apL5mxnTACtnGenNfrP4c8K+F/B2nf2P4R0ez0OwDs/wBnsbeO2h3t1bZEqrk45OMmk8S+E/CnjPTxpPjDRrLXbFXEggv7eO6iDrkBtkqsuRk4OM19fgvFTCYV0cJhcPOOGgqid6l6j54cnMpW5YWWqila549fhOtV561WonUfL9m0Vyy5rNXu7vq3ex8w+EP2wP2RbT+zfBngvxJa6dDLKltaWltpN7aW6vM+FVQLZI0BZuScAZyT1NeWafNPL/wUh1ALHuWPwwFYj+FdsZyf+BED8a+wNP8Agh8FdIvoNT0rwB4fsry1dZIZ4dKtI5Y3U5VkdYgysD0IORXdpoWhR61L4kj062XV5oVtpLwQoLl4EYssTS43lAxJCk4BOcV82uJ8qwk8RLL6VV+1pTg3UlFu8mve92MdrO97ts9J5Xi6yprESj7klJcqa0V9NWz4S/aK+CXjnwF4yH7TP7OaCLxBZgtrekRISmp2/WRxGuN74HzoBuf76HzAA2N/wTevbrWfA3jzxHcQeQNW8QyTgDO3LxIzBSeoUtjNfo5mjNRW8Rq1bJZ5TiKSlJ8qVS/vKEHdRenvJP4W2mlpqrWqHDcIY6OLpyaWrcel2rNrt59/z/Pf4/Wlz/w2n8DLy3tZJd0d2GZVYjam7ccgEYQPk+gIzX6FZNNzRmvnM64heMw+EoOFvYw5L3vf35Svtp8Vra7X8l6WBy72NStUvfnlf00S/Qdk0ZNNzRmvneY9GxlysF8VeGHbhV1CDJPQfvEr9Ka/M3U/+QvoX/X7F/6EK/TKv7R+i3O+Dxi/vR/KR+I+Kkf39F+T/QKKKK/qk/KQooooAKKKKACiiigAooooAKKKKACiiigAooooAKKKKACiiigAooooAKKKKACiiigAooooAKKKKACiiigAooooAKKKKACiiigAoorF1p/ESwbfDsNo8zfx3UkiqvvtRGLfTcv1rGvWVODm03bsrsunDmdrm1XEa18RPCeiXX9nSXn2zUT92zs0a5uSfTy4wxH/AALArH/4QHV9cO/xx4hub+NutnZ5sbTH91hGTK4/3pPwrttF8O6F4ctfseg2ENhD3WFAmfdiOSfc814X1jMq/wDCpqlHvP3pf+AxfKvJ8784nd7PDU/ik5vy0X3vX/yX5nEf2r8S/EfGkaZB4atH6T6ifPucHutvEdqn2eT8Kki+GGlXsq3fjG9ufE1wDuxePi2Vv9i2j2xAfUN9a9MoprhqjN82Mk6z/vv3f/AElD0fLfzB5lOOlFKHpv8Ae9fxt5EFtbW1nAlrZxJBDGMKkahVUegA4FT0UV9DGKSstjz276sKKKKYgooooAKKKKACiiigDjfiFIsXgjW2bobWRePVhgfzrz/wCpj8H6Yp/wCeZP5sTXdfEr/kRNZ/64H+YriPA3/IpaX/ANcR/M1+W8XP/hTh/wBe/wD24+lyr/dn/i/Q63dRuptFePzHWO3UbqbRRzAO3UbqbRRzAO3UbqbRRzAO3UbqbRRzAO3UbqbRRzAO3UbqbRRzAO3UbqbRRzAO3UbqbRRzAO3UbqbRRzAO3V83fF6483xJBCDxDbKD9WZj/LFfR9fLPxNlaTxleqekaxKPp5an+tfN8VVLYW3dr9T0MsV6nyP/0vrnwnI0tlc3D/flnZj+IB/rXVbq5TwiQdKbHaVv5Cuor/InENubbP7DoR9xWH7qN1MorE2sP3UbqZRQFh+6jdTKKAsP3UbqZRQFh+6jdTKKAsP3UbqZRQFh+6jdTKKAsP3UbqZRQFh+6jdTKKAsP3UbqZRQFjH1E51fQ/8Ar9i/9CFfppX5lah/yF9D/wCv2L/0IV+mtf2h9Fn/AHXG+sP/AG4/D/Fb+PR9H+gUUUV/Vh+TBRRRQAUUUUAFFFFABRRRQAUUUUAFFFFABRRRQAUUUUAFcLrnxM8DeHL06bq+rRxXKjLIiSTFfZvLVtp9jg+1dffxXE9jcwWcnlTyRusb/wB1yCFP4HmvnbwNqmpfDazvNM8Q+EdRlvN5lmvrOIXQnBy2Wk+UAKO25uc5AOa+T4jzythalKnTtGMr3nKMpRVtlaLWr6Xklo93ofT5Bk9LE06lSd5Sja0FKMZO/W8k9F5JvVbI9Tu/id4Rt/D8fie3uXvNPedbdnhQkxu3eRX2lQOvIz0wDkV3sU0U0KXETh4pFDKwOQVIyCD6Yrh9I1Lwl8SfC90tgoksr3clxGyhJEkYAncB/EOCGBPPINeEHxlqXg/wlrXw3vWdtZtJRaWTYIMkE54YfRen+8vpXmYri2WDUcRiZxnRnBuMoqy54pvl3fxr4dd00ehhuGFi3Khh4ShVhNKUZO75W0r7L4X8WmzTPZJ/i14Xh0G88RrHcy2dnd/YyUjXLv8A3kywBXHOcg+1ehadqFnq1hb6lYSCa3uUWSNh0KsMj/647V4B8QPDEfhj4MW+hxgB7eS3MxH8UjNlz78n8qu+G7qf4V63D4Y1eVn8O6uQ9jcP92CZuWiYknAJ7/j3bHLhOKMbQxkaOYpcnJBya05JzcrX/u6ct+jt3OnFcOYOvhJVsA3z88+VPXmjFRvbz1vbqr9j1SXxjpEPi2LwZKJFv54PPRio8pgM/KGzndgE9Me+eK6uvDvGQaH4w+D7lOskU0ZPsN3/AMVXtdxcW9pBJdXUqwwxKWd3YKqqOpJPAA9a+oybM6lWpioVmv3c7Lp7vLGSv9+585m2XU6VPDTpJ/vIXfXXmknb7iaivDrj42eHbXxlLpU19AdEigz9pjSWVjcbvugpkFcdwpH+1XtFneWuo2kV9YyrNbzqHR1OQynoRXRlfEGDxspww1RScG00mr6dfTs+phmWR4vCRhPEU3FSV02n93r3RZrCPibQhr48L/bFOqGPzfIAJITrycbQcc4JzjnGKq+MfE9p4Q8PXeu3eG8lcRof+WkrcIv4nr7ZNfLPhySHS/F3hXxVc6rBqGqa3cy/bUimSRoROAqBgpO3Abp68dq8Difi/wCo4ijhqaTbcXO7+GDko3XdtvTyTdj2+HeFvrlCrXqNpJNRt1kouX3JLXzaR9m15jrHxi+H2iy3NtNqXn3NrkNFBG7lmH8Kvjyyf+BY9TVL4s65qdtYaf4V0J/L1HxFN9mV84KR8BznqM5Az6Z711GkeAfDWk+GG8KLaLNZzJtuNww0zd3Yg5znkYPy8YxgV14/MsbXxNTCZdypwXvSkm1zNXjFJNa21b1smtGc2Cy/B0cPDFY/mam/djFpOydnJtp9dEtLtPVCnx1ogvdCsMS+Z4hjMtudgwq7Q3z88E5xxnn25qxrfjHRdA1XTNEvXd73VZBHFHGu5gCcb3GRhc8Z6+g4OPEfilq1l4G8V+Fbq0td0Ol2s6wRA8Z27IwSecA4yc5/Gu7+Hngm+trubxx4vcXPiDURu65W3jYcIvYHHBx0HA758fC8R46tjKuXUknOEo80rPljDli2/NyfMor5vRHq4nIMHRwlPH1G1CUXZX1lLmkl6KKs5P5LVnrtFFFfop8EFFFFABRRRQAUUUUAFFFFABRRRQAUUUUAFFFFABRRRQAUUUUAcF8UJDF4C1lgM5iC/wDfTqP61x3gxfL8K6WoOcwIfzGf612PxQjMngLWFHGIlb/vl1P9K4zwbIH8K6WR2gQfkMV+UcYO2aR/69/+3M+oyn/dn/i/Q6nJoyaZmjNeJznYPyaMmmZozRzgPyaMmmZozRzgPyaMmmZozRzgPyaMmmZozRzgPyaMmmZozRzgPyaMmmZozRzgPyaMmmZozRzgPyaMmmZozRzgPyaMmmZozRzgPya+XvicCPGF0SMZSIj/AL4FfT2a+Zvikc+LJP8ArlH/ACr53id3wy9V+p35b/E+R//T+u/D8P2M6hYH5fs9y6464x8vX8K6LNZEDq+v+IHiGyNr6YqvoN7cVp5Nf5JZpSUMTUhHZNn9hYBuVGEn2JM0ZqPJoya4Ds5STNGajyaMmgOUkzRmo8mjJoDlJM0ZqPJoyaA5STNGajyaMmgOUkzRmo8mjJoDlJM0ZqPJoyaA5STNGajyaMmgOUkzRmo8mjJoDlJM0ZqPJoyaA5TLvznWND/6/Yv/AEMV+m9fmLenOsaH/wBfsX/oYr9Oq/s/6LP+6431h+Uj8L8WF+/o+j/QKKKK/q0/JQooooAKKKKACiiigAooooAKKKKACiiigAooooAKKKKAOd8V3ev2Gg3V54Yto7zUYQGjhkBIcAjcAAyknbnAzyfXpXmMXxw077QmkXHh/Vl1goN1osCl9+3cQAXDkd87c45xXuFFeDmWXYypVVTC4nkVkmnFSXXVaqz131W2h7WX4/C06bp4nD873TUnF+j3uvLR+Z5L8LfD2sae2teJNatv7Pm1+4+0LaZyYkyxG70Y7unUdwDwOfi07/hOfi5PqU9uIrDwptiDFMNNccsMnqQp5HbAH96veqK4v9U6X1ehheZuFOXM018Tu3rtb3nzaK2ltjs/1mqe3rYnlSnOPKrfZWi03v7qtq+t9zxz467z4BlWMElrmAcAn+LvXeat4csPFHhr+w9ci3JNEgPQNHIBwynsyn/DpmunorveR05YmtXqvmjUjGLi1pZc3335jiWczjh6NGmrOnKUlJPW75futynzHo+geO7L4ieH9M8QQSahZaL5wh1BUYo0Lodm9+QGUjGCc/Xgn6bIDAqwyDwQaWis+H+H4ZfCpCE3JSlf3tWtFFK/WyS1epeeZ7PHSpznBRcVbTRPVtu3S7fTQ8+sPh5pWl+L5PE+mrDa28tobZrSKBUQktkvlSByBgjb+Nd9HHHDGsUShEQBVVRgADgAAdAKfRXpYHLaGGUlQhyptt+r39PRaHn4zMK2IadaV2kl8lt/w+54b438N33jr4g6Tot/Yy/2DpkTTzTEMscrPjMauMc8KMA56mofiH8NtJsPB6t4K0ZEvtOninj8mMyXDqG5XecyN1zjJ6V7xRXzuK4KwlZYmVVXnVv71lzRVkkovtGy+e572H4uxVF4dU3aFK3u3dpatttd3d/I8U8fab4g1BPDXj3RLCS4vNIImlsSCshSRQWUKRncuCCACeehxTb7xx498QyQ6T4N8NXelyygGW71OExRwjODtByGx68nGcJ3HttFaV+Gajq1KlLEygqludJK7aSV07Xi2kk7fKzIo8RQVOEKtCM3C/Le+ibvZq9pWbbV/nc+eviDo1v4g+J3hfRdYjE9vcWc6yBQVGcPkr1IwQCOTjirug3PjT4caivhjU7C78QaC5xZ3dtGZZYE7LIo6AZ7kYH3cjge8UVzrg6McTUxtKq41ZS5rpfZtFOEk78y0v0ae1uuz4rcsPDCVKSlTjG1m+t21JWtyvW3W638iiiivtD5IKKKKACiiigAooooAKKKKACiiigAooooAKKKKACiiigAooooA5Dx/EJfBOtoV3YtJWx/uruz+GM15l4Bk8zwhprZzhGH/fLsP6V634tj83wprUQON9lcrn6xsK8X+G8m7wfZLjGwyj6/vGP9a/KeN1bMKT7wf4SX+Z9Pk+uHkvNfkd7mjNMzRmvmuY9DlH5ozTM0Zo5g5R+aM0zNGaOYOUfmjNMzRmjmDlH5ozTM0Zo5g5R+aM0zNGaOYOUfmjNMzRmjmDlH5ozTM0Zo5g5R+aM0zNGaOYOUfmjNMzRmjmDlH5r5f+JbK3jC8AOSqxA/Xy1P9a+nc18ufEb/AJHLUP8Atl/6KSvnuJZfuF6/ozvy5e+/Q//U+udEl+0S6jdFt5muZG3f3s85/Wt/Ncn4UONOk/66n/0Fa6fdX+ROMqOVWUn1Z/ZWDglSiiXNGai3Ubq5To5SXNGai3UbqA5SXNGai3UbqA5SXNGai3UbqA5SXNGai3UbqA5SXNGai3UbqA5SXNGai3UbqA5SXNGai3UbqA5SXNGai3UbqA5SXNGai3UbqA5TNvP+Qxof/X7F/wChiv07r8wro51jRP8Ar9i/9DFfp7X9pfRY/wB0xv8Aih+Uj8J8Wv8AeKPo/wBAooor+rj8jCiiigAooooAKKKKACiiuB+JHjD/AIQvw1LqESGS7uG8i3UDI81wSCeegxnj2FcWY4+lhaE8TWdoxV2deAwNTE1oYekryk7I5PXfi0LHx/p/hHTIY5rYzpb3k7bjskkOAiEEAFe+c9xgYzXtVfD1xYeKLHwJ9puPDFxZyWd8t7c6jcShJXkzgfuXVXx8w5GRnJ9cfQnxH8SX7eFdMtdAk8m68TSw28UmcFEmXLEHscHGe2eOa/NeG+Ma7hi8RjbuyjOMeVxspXSguZK+qS5tm29T9Bz/AIUoqeGoYSyu5QlK6d3GzcnZu2jbtuktj12vJ/DmqarN8U/FGl3F1JLZwQWzRRMx2RkqPur0GcnJHXvmp9G+EPg/QbzTtT0tJ7a+sCGMyTODMduCJFJI2t1IXGenTivGPEXiXxF4f+IHjKTwtZtdXU0MQeVVLi3jjQFpCBxkds8Z9eld/Eme4jCww2JxtPktU2hJzuvZz0+GPXS1rdb21OLIMmoYmWIoYSfPenvKKjZ88dfil01ve/Sx9WwX9jdTz2ttcRzTWpCzIjhmjLcgOAcqSOma88+LniHWvDHg99V0GcW9ys8S7yiv8rE5ADAjnjtUfwm0XQrHwzHrGk3LX9zqv726upP9Y8vO5WBJI2kkY9ecnOaofHPZ/wAK/n3/APPxBj6769HN8yxFTIa2LvyTcJSXLK9tG1aS62tquuxwZVl9CnndLDW54qai+Zb62d0+l76PpudV4A8ZW/jTQkvseVewYiu4TwY5R14POD1H5dQawNU8T65pvxW0rw60ytpOp2jsItoysi7ju3Y3Z+UDGcY7ZrB8TaRqHg2+h+JPhOLzYTEg1OzThZoQB+9UD+JRyT+PTdnP1jV9M8TfEXwLrWizC4t50nII4I2jJDDsw7ivHxmd4mFGnha82q8J09Vp7SDmo8y7pp2kukvKx62EyfDzrVMRRjejOFTfXkkot8r7NNXi+q+Z9BqytnaQcHBx6iqt5f2Onokl/cR2ySOI1MrhAzt0UFiMk9h1rxb4OO6eB9ZuT/rTe3bEnqWCKea8gljuP+FP6DJauBcNrLGPI/jJYD16H2rqxnHkqeEp4mNHWdOU7X25XFW21vzeWxzYXgqM8VUoSq6RnGF7b3UnffS3L+J9p0V8k6j8MrO08c6D4cvtRuGbWbaZ7+4WQ77iVSzsvOeCQByPfrXoPw40+Dwt8QPFPhCwyliqQ3MMRYttDAZwTk8bgOTngZroy/i/E1MTGjiMMoJz5G+e7UuTnWnKumjd99r7mGO4Vw9Og6tDEc7Uee3JZOPNyPXmfXXbbe2x7rRWTrtvpN1pF3b666x6fIhE7PIYVCHrlwVIHryK8et/CPwDjuIntriwEyspTbqb53A8Y/fdc19BmmZ1qFSMaap2f89RwfyXJK/3o8LLcvpVoOVRzuv5YKS+b542+5nu9FFFe6eMFcZ8Q72707wRrN7YytBPFbsUdCVZSeMgjkH0NebRaLbfFDxxrT+JAbjRvD7/AGS3tlkZFMx+/IShB7evp6VreK/C2leDPhj4isNIab7LKjyLHJIZBFvKjameig885PqTXw2MzvEYjB4mrTppUlGolLm95uKavy8uiunZ819L2PssLk9ChisPTqVG6jlBuPL7tpNO3NzauzV1y26XN7T5PF2pfD7RZ/D11ANUmgtnkmvNzhl2gvyAxLN6kevQ4Nejru2jfjdjnHTNfNvjBJB8N/A1ojH97cWAJHB/1Zx/Ok+Jeu6XqHjy38MeI/tNxpVlCkgsbRWaW8uZSAqYUr0ByOR3AOTXmx4rjg6bdRNyUaMVeVotyTfZ8tkm21dvRJXsejLhqWLqJQaScqsnaN5JRaXdX1sknZLXW1z6UrOTV9Jktpb1L2BreFzHJIJFKI4OCrNnAIJxg85rx34XeENW0jWr7Xxpx8O6TeQqkWnGd55CwwRLJuzg9Rg4IyRgd/NfAHgWz8X2mu61rvmS6baz3P2S3VykfnMNzudpByBtA9e/AxXVU4uxrjQjTwvv1OfRyaSULe9dxUuVp31insra3OWnwthE6zniPcp8mqSbblf3bKTV010k1u76H1nfXP2OyuLzbv8AIjeTbnGdoJxmue8E+KB4x8OWviAW32T7QXHl7/M27GK/ewuc49BXkXgjw1o3jX4W2DeJLY3smmC6W3O90KgE4HyMuegwDnpUnwR8G+GpPD9j4reyH9qxyTKJvMk6AlfubtnQ46frSwfEeOxOMwrpQiqVWm5Wcnf7F38D1jdpK9pbtx2HisgweHwmJVScnUpzUbqOn27L49pWTbteOyTPoSiiobhilvK69VViPwFfoMnZXPhoq7sYfhuLxRFbXA8VTW01w07tEbUMFWE/dU7gDkc+vHcmrc3iDQbbUF0m41K2ivnKhbdpkWUlvugITuOe3HNfPvhDTvEupfBW7tfDLN/aF1cylQJBGxQyAOFYkAZAPUjv61l+DdH8B/2npGi6xoeoeGtdimWaKSdiVunhPCh3A4Y8kKijgAMTjP5lQ4wrxp4WnSpWVSMZc1SUrPmduVS5bOW27jurJ3P0OtwrRc8TOpUu4SkrQirqy+Jx5rqPons9UfUKajp8klzCl1E0lnjz1DqTFkZG8Z+XI557VYhmiuIkngdZIpFDKykFWUjIII4II6Gvl2w8IReN/ip4nt9Qdxo1pOj3EKMUE0qjaisRg4+8cj8Dzmu5+C6/Y4/EmiwEi00/UpY4EJJ2L6ZPPavTyfi6viMTGlUoqMJSqRjLm1bg3ra2zS3ve99LHn5rwvRoYeVWnWbnGMJNW0Smlpe+932263PbaK5Txff+KdP0wy+E9Mj1O6bKlZJhF5fHD4bAcDuN6npjPOPHPgrN44XRrTyILGXRJLqcTEtIt0jclm7oRuwAACT7dR6uN4ljRx9PAeyk3JN3SdlZpdrNa6tP3dL7nmYTh+VXBVMb7SK5WlZtXd0/PTbRNe902NLxF468bQ+P9I0WGzfSdHmvhamR1Rnu8FdxG4HCYYYK+p+bPA98rxP4gn7R8R/A1keiTSze2V2kf+g17ZXNw0631rGwq1XNKaSv09yLskrJJX6er1OniBUvq2DlTpqDcG3br7zV23q3p/loFFFFfXnyoUUUUAFFFFABRRRQAUUUUAZOvxiXQtSibo9tMDj3Q14F8MnLeFIVP8MkgH55/rX0BrXGj35/6YS/+gGvnv4YceFk/wCusn86/KuPtMZh3/dl+cT6fI/4U/Vfqei5ozTc0Zr5LnPUsOzRmm5ozRzhYdmjNNzRmjnCw7NGabmjNHOFh2aM03NGaOcLDs0ZpuaM0c4WHZozTc0Zo5wsOzRmm5ozRzhYdmjNNzRmjnCw7NGabmjNHOFh2a+YfiOhXxhfMf4xER/37Uf0r6czXzP8Sf8Akbbr/ci/9AFeDxC70F6/ozuwC9/5H//V+rPC/wAunNjvIx/QV0e6uZ8MHOnuPSQj9BXR1/kLiPjZ/Z+FX7uI/dRuplFYnRyj91G6mUUByj91G6mUUByj91G6mUUByj91G6mUUByj91G6mUUByj91G6mUUByj91G6mUUByj91G6mUUByj91G6mUUBykEOH8V+GkblTqEGQeh/epX6b1+X80/2PWtEvzx9nvYXz1+66t0/Cv1Ar+1foszX1PGR680fykfgfi1FrE0n5P8AQKKKK/qs/JAooooAKKKKACiiigArhPEvgiPxP4h0XWL28ItdHZpPsuzKySHBDFt3GCBxtOfau7orjx2Ao4mn7KvG8bp2807rbzW2z6nXgsdVw8/aUXaVmr+qs/we+/Yx/EOjQeIdEvdEuW2R3sTRlsZ2k9Gx3wea4e5+GwvfBWneFrnU3+16UyvbXyR7XR0J2HZuPABxjd2ByK9Qqvd3lpYWz3l9OltBEMvJIwRFHTJY4ArkzDJsJXcquIje8XFu7Xu3v36PVPddGjpwObYqio06ErWkpJWT961u3bRrZ9UeW6P4Y+Js2pW0/irxNGbOykV1is4gjXO0t/rW2ptByAVG5SPQ/NXR6J4MXR/FGueJGu/tH9s7P3RjCiMIMY3ZO7P0H41t6f4m8N6tcfZdK1a0vZ8FvLhnjkfA6nCsTityuPLskwVoVISdRxldSc5Sd7OO7b6O1tuu+p14/OMXeUJxUOZWaUFHS6eyXdXv8ttDgvCfggeENU1WfTr0nTNRcSpZbMLBJ3KtuPB6Y2jjHpSfEnwpf+M/DLaJp0sUMrTRSbpdwXahyeVBOfTiu+orqlkGFeDngIxtTldWTf2tXbtvolouhzRzvE/Wo41yvUjZ3sum1++271fUgt7dYLWO1++saBOe4AxzXk9j8INK0nxvB4t0i7NrbRM8n2IJlBI6lWKNuG0cg42npgHGAPX6wB4o0E+ID4V+1qNVEfm+QVYEpjPDY2k45wDnHOKnNctwFV0Xi0rxkuS7s+bolqr7bdbbOxWWZhjaSqrCt2lF81lf3eremm+/S+55ZH8NvG+j6jd2vhPxJFYaJqEss8sb2ySyRtJ/CodSGGMDO9fp6stfhRqy+DNH8O3F9At1puoC8LqrNGU3EkAHBJwc9hnj3r3KSRIo2lkO1EBJPoB1rK0LX9I8S6euqaHci6tWZlDgMvzKcEEMAR+Irxf9TssjU9m27yUkouctItxb5Yt6JNLbv6W9b/WvMZU/aJK0WryUFq0mlzNLVtN79vU5TxL4T1LV/GPhzxHYyxRw6S0vnh2YOyuAMIApB75yRSw+Eb+D4lT+Mo5o/sdxZC3ePLeZ5gIwcY27cAd/w716FRXtT4fw0qjqtO7mp7/aUeVfgjyY55iFTVNNWUHDb7LfM/xILm2tr23ktbyJJ4JRteORQyMD2IPBFYEXgvwbBIk0Og2EckZDKy2sQKkcggheCK6aivSrYKjUalUgm13SZ59HF1aacac2k+zaCiiiuk5zyDWfAvizT9bvfEHw91eKxk1Rg11bXSboWfBHmKwVyDk5xt65ycfLWi/gTW9Q8Iap4e17xBJfXmqsrNcNENkOCp2xxhh8vy9iBznA5r06ivnI8KYNSm7S5Zc1480uX3r81o3sr3e23Sx774lxTjBe7eNrS5Y83u25bu13a3Xfrc851z4fR6zoGhaF9tMA0SS3k3iPd5nkLtxjcNu7r1OPejxR4H1DUtZj8T+GNXbRNWSEwu4jE0c0fVVdGOOD3wcemQK9Goratw3g6iknC1+XVOSfuaRaad013VvMxpcQYuDi1Pbm0aTXvfFdNWafZ38jy/w74P8AGC6lZ614z8SyahNaK222t0WCAO3BLFQvmDHTKrz7ddPwH4Nk8I6FdaLdTrdC4uZ5cqCBskwADnvgc+5x713tFGD4cwtCUakU3KN9ZSlJvmSTu23f4V6dLBis+xNaMoSaUXbRRUUuW7Vkkrbv16nnnw+8H3/hHwxPoN7PHK7zTOjR7iqpJ93O7Bz3I/XvVXwpp1t8LPA2zxJeII7aR5JpY1d0XzXwoAC7j1Hbr+dem0UUOH6NCNP6vpKnFxg3dpJ23V1fZdV6odfPK1aVT2+saklKSVk21fZ2dt30foeWf8Lq+Gf/AEGf/Je4/wDjdaGl/E7wJ4lvU0TSdU8+6ugyonkTLn5STyyAdB3Neh0VNLDZnzL2lem49Uqck7dbP2rt62foOpiMu5X7OjNPpepFq/p7JX+9ep5JZ/DfWdG8JW3h/wAPeIpLK7tLl7lbhYgFk3ZIjdNxyucZySPVT0rM0j4f+OdS1zTta+IWuw3o0eXzbeG2jUAsR1ZwkWMEDja2fUV7dSEhQWY4A5JNcsuDsDenbmUYWtHnlyvlty3jeztbr87nSuK8Zad+Vylf3uWPMub4rO11e/8AlY4bwx4Qm8P+I/EWtPcLLHrUySogBDJtByG7dWOMdh+Ag8HeD7zwzrniS/llje21i5WeFE3bkHzFt2QAOW7ZrrtJ1rStetTe6PdJdwK7Rl4zkb0OCP8APUYI4INaddmEybB2pVKOqg5Si07q87316p8zOXFZti71adbRyUYyTVn7trejVkFU7HT7DTIPs2m20VpDktsiRY13N1OFAGT3q5RXtuEW1JrVHjqbScb6Hj3iH4b+KNe8Qwa+PFf2drGV5LNPsMb+QH/hzvG/AwMsDXrVrHNDawxXMv2iZEVXk2hd7AYLbRwMnnA6VPRXmYDJcPhqlSrRT5pu8rylK79JNpaaaW0SWyR6ONzeviKcKVVq0NFaMVZeqSb769bvdhRRRXqnmBRRRQAUUUUAFFFFABRRRQBjeI3aLw9qki/eS1nI+oQ14J8NVC+E4CP43kJ/76I/pXvHif8A5FrVv+vSf/0W1eEfDg/8Unbf70v/AKGa/JvEB/7ZQ/wy/NH1GRL9zP1X6neZozTc0Zr43mPX5R2aM03NGaOYOUdmjNNzRmjmDlHZozTc0Zo5g5R2aM03NGaOYOUdmjNNzRmjmDlHZozTc0Zo5g5R2aM03NGaOYOUdmjNNzRmjmDlHZozTc0Zo5g5R2a+ZPiK5bxffA/wiID/AL9qf619M5r5v+JcHk+KpZP+e8cb/kNv/steLnzvRXr/AJnZgV75/9b6s0JBbpd2ynKxTuoJ68YH9K3d1UPJ+ya9rtkMAQXsycdOHYcflVvNf5GZpS9nialN9G0f2dls1KhCXdEm6jdUeaM1w8x3WJN1G6o80Zo5gsSbqN1R5ozRzBYk3UbqjzRmjmCxJuo3VHmjNHMFiTdRuqPNGaOYLEm6jdUeaM0cwWJN1G6o80Zo5gsSbqN1R5ozRzBYk3UbqjzRmjmCxh+JCwsUkQlWjlUgjqOD3r9S7S4W7tYbpMbZkVxg5GGGevevyy8RbmskjQbmeRQAOp4PQV+p1tAttbRWy8iJFQcY4UY6V/Yn0VOblx/b93/7efhPi/b2lDv736E9FFFf16fjIUUUUAFFFFABRRRQAUUUUAFfOXxOmS38dabd+N7W4uPCUEa7PKQtCLhiRmXBHTrjqQMAEZB+ja8lf4weH9K1nUdE8WxSaLLZybYmdZJVnj5xIuxMjOM9x6E818hxmsNPDwpYmuqSck05K8W462leyafZtXtofVcJvEQrzq4ei6jUWmou0knpeNru67pOweFtT+D+uaxF/wAIrDYjUrYM8fl2v2aTkYJXcibiBnpnHWtDXfH19beIW8L+FtFfXr+3jEtyBMlvHCrY2gu4ILH04/HnHnGrarpPxG8eeHrjwNG08mlyia8v1iaJViBGI2ZgrE8HAI78d8czrMFlpHjrxDY+NtcvND03U5ftCi2ibF3GQVVTKgZtqgkFCpU88g4r4qvxPXpUGsPyKPtOX2tNRhBrlvdOblFO9ottyXRJuyPrqPDlGrWTr8zl7Pm9nPmlJPmttDlk1b3klyvvZXZ7d4Y+I9prNlrM+tWn9jy6C5W7UyrPGoAPSRAAx+UjAHXpmuSuvjBr0eiy+KbXwlI+hqxEdzLeRxM67tobytjNyfTI965/ULrw54i8F614Q+FelyvbQwpM08cTqkrrIrGItJiR5NvIzkkDA4rG8ZfEfwrrPw2tPC+lSMNQkFtC9uY3XyvLI3ZYgKcFccE9enXGOYcWYmnh2pY1JxpykpRUbVJ8zSinKNpKNlflinK99FoaYHhnDzrprCNqVRJxblenCyfM0pXTld25m0rW1Z9S2Nz9ssre827PPjSTbnONwBxmvmTxx4e1fWvi1cyaBN9m1KysI7u3b+/JEQNp/wB4ZHPHrxX05ZwfZrSC26eUip/3yMV4zBK5+PNwi/MBpYB9uQa+u41wUcRh8LQr396pBO2jvaWq7NbnzHCGLlQr4mtRt7tOT11VrrR9zufA3i+08Z6L9oK+Te258q8t2GGilHBBB52nBx+XUGvDvBHi0+A/CGtTJafavK1k2yR7vLH7wY64OMBa9C8beGdZ0PV/+Fh+Bow18i4vrQfdu4h1IA/jGO3Jxkc8N4jGH1X4Ya5rkELBV1xbpx3CYHX6b+a+O4jzbHUK1OFTSvShValbSUeVWkt1fT3o9H5NH1eQZZg61KpOGtGrOmnG+sZczvF9ba+6+q80z6c8a+Ml8HW2nTtafan1C6jtgvmbNu/q2drZx6Y/GuE1f4tX+k+MdT8LRaX/AGjLE0EdlDCSssryKGcu53KFA9F478ZI5L4hfEDwl4tl8N2+hX4uJoNRhkdDFKm1ScZy6KDg+9dh4Yghm+NHiq4mRTNDbwCPI+YBlUEjP5HBr08bxHiMXjfY5fiVyOpCKceWSs6c3LybutE7pNLTo/OweQ0MLg/bY7DvnUJyafNF3U4KPorPp0b16mVB8cNXvNPutRsfCM00OnBjdubkLHEQ2MBvLO44IJAAI5OMDNe5aNqlvrek2er2vEV5Ekqg9QHGcH3HSvC/AMPn+DvG+gFdxgur5AuP76YHfnketdz8Hrz7Z8O9IJ6wq8R/4A7AfpivQ4PzbG1KtKOLrc/tKbl8MVaUZqLS5Uu+t767W2OHirK8JTpVJYalyck1HeTupR5le7fbp077nQeJNZ8U6ZLDH4d8PHWldSZH+1xWwQ54GHyWJ+mBTPDeteLNTuJYvEPhw6LEibkk+1xXIds424QAjjnPSneJP+E782H/AIRD+zfK2nzft/nbt2eNvlcYx1zR4b/4T3zpj4vOmeTtHlCxE27dnncZeMY9K+kc6v1+3PV5e3LD2e383Lzf+Tb+R8+oUvqV+SnfvzT59+3Ny/hsdNeXUNjaT3ty22G3RpHPXCoMk/kK8Im+JXxH1zTX17wZ4XU6XGX2yXBaWWcBgB5cUbI2eucbhwfm4r2LxPqWn6P4fv8AUdWhe4s4Ym86ONd7MjfKQBkdjzyOK+UdR1XwL4fKar8J9bvYNTmnh/4l4ExgkHQqwdBu6/xO3U47EfNce51Uw04QjiFCNm5KMoxqPs4qSfMlZ3imm+59DwVlFPERlKVDnldJNxk4LupOLXK3de800ux9B6/49udHk0rSLDSpNU13U4hL9jVxD5a4yxd2DBcHIGfQ5I7t8MeP7vWPEF74X13R20jUbOET7FuEuVKHGcsgAVuQQOcj04z5V48S50v4gxaxr2q3Ph/TdTs4ojdWsRdgY8M8IkXLRkkZDKG9wVzXU+Btd+HFjex6B8P7Sa/lukZrq8ET5QKv3ppJQpwxHRRtyeBk4rkw/EeKlmbo1K6hGM+XkbheStZWjZ1G5N83NzRil0aTZ1V8gw0cvVWnRc5Sjzcy5rRd7u8rqCSXu8tpNvqnZENr8a9Q1TTrnUNG8LzXS6esj3bG4WOKJEPGJGT52I5KgZA6Z5x1dh8S4rvVfD1jPp5toPEVr50U7S5CyjOYtu0Z7YORnI4rK+CVvBN4AaGaNXjmubkSKwBDgnBDA9cjjntVr4s6ED4Th1bSI1huPDckd1AEUAKkZAZVA6ADB4/u1pgsVmyyyOaSxHP7kZuPLFbNOSVlfWF166q2xli8NlbzGWXKhy+84qXNJ7ppN3dtJW+W99zoLjxzBD42PhBLbekFq11dXJk2rAoGQCu05yMc5GM1xsvxZ1ybTLrxHpHhV7nQrYti8lvI7cuqcFhGylsZ4GM5PHXIGP4S0LVvEXgzxP4rkTGreKUm8lSekKgiNBnoDyB7YrgfDV38OBY2kfxF1u7ubnTh5a6ZNBLHb2zR/Ljy4lZWbIOSWG4H5lzmvLx/E+YNU37ZUo1VKcZScIpK6UE3OMr2j7zSi5NytdJHpYPhzAp1F7J1JU3GMklOTbs3JpRkra+6m2oq17Ns9w8QfFXTdC0HQ/Ef2KWe01lgMZCyRqVyTtwQzdgMgH1qLRPiRq2oeJ7Hw7rHhyXSf7SikmgeScO5RASC8QQFCccgnIrjfFesWviOHwLfW2ny2Fo+qokUM8YTMS4CMqjIClcY/TjBP0E9lZyXUd9JBG1zEpVJSoLqrdQG6gHuBX0mW4nH4zFTdLE+5D2eiirSTinLdcyvrazTV9+h4GYYfBYTDQVTD+/P2mvM7xak1HZ2duujvbYs1XupktrWa4kGViRnI9QoyasVma0CdGvwOSbeX/0A197iJuNOUl0TPiqEVKcU+55tofjzQLD4dP4zj0ldLtA74tbcLhpN+wYIVASx6nH54rLtfGvxTu7/AEy9bwvHaaNfzQxlSWnuFjk+9ISjKEAHd0GOOtc54a1Pwnp3wc0i38aWskumX07wvtVmCt5rsHYqQygY/h59AeaxPDGqaLovjLQ9J+GWt3mqafeyyLd2c6uYokOCXQMiAEDJyATxyecV+My4hruODU8SoxlCneMHBT55W1cHG8ou+0Gratp6H6zHIqPNi3HDtuMqlpSUnDljfTmT0krbyTvpqjur/wCK+t23i3VfCGn6MNTvopUjs442KZXYWd5XbIwDj+6MdT3rufAPjGXxfptw99aCx1DT5jbXMIbeokUclT6E545x6nqeI+HlpFJ8SfHGoSpm4jnSJWPZGJJH47RUvwm3Qa942sZRiSLUmc89nLY/lXs5DmePeKozr1nKFSdaKjZWSi5W1te+j62tpbqeTnWX4JYarCjSSnThSk5Xd25KN9L2tqul763PbaKKK/Uj83CiiigAooooAKKKKACiiigAooooAwvFDBfDOrsxwBZ3BJPb921eEfDnI8J2uRjLS4/77Ney+P5/s3grW5PW0lT/AL7Xb/WvJPA0fk+FNPT1Rm/76dm/rX5B4gz/ANuox7Qf4tf5H1eRR/cyfmvyOvzRmmZozXxfMetyj80ZpmaM0cwco/NGaZmjNHMHKPzRmmZozRzByj80ZpmaM0cwco/NGaZmjNHMHKPzRmmZozRzByj80ZpmaM0cwco/NGaZmjNHMHKPzRmmZozRzByj814T8WYcapZXP/PSEp/3wxP/ALNXuea8I+K1xv1i0tgciKDd+LsR/wCy15mby/cO/kdOET5z/9f7P8TxiD4j+LowchtQnf8A76ldv61TyKk164+1+PfFd2TkPqNxtzwdolfH6Yqvur/JziyUZZniXHbnl+bP7I4fi1gqSfZEmRRkVHuo3V88ezYkyKMio91G6gLEmRRkVHuo3UBYkyKMio91G6gLEmRRkVHuo3UBYkyKMio91G6gLEmRRkVHuo3UBYkyKMio91G6gLEmRRkVHuo3UBYkyKMio91G6gLFaSD7ZrOjWI5+0XkSY6Z3OF6/jX6jV+X9m6p4q8OSucIl/ASfQCRK/UCv7X+ivBfUsZLrzR/KR/Pni9J/WqS8n+gUUUV/Vp+QhRRRQAUUVS1DUtP0m1e+1S6is7eP70kzrGg+rMQKipUjCLlJ2SHGLbsi7RXmJ+JcWqsYfA2kXXiJ8485F+z2Y+txNgH/AIAGpv8Awj3xB8Q/N4k11dGtm/5ddIXEmPRrqUFs+uxF9jXgf6yUqmmChKr5x+H/AMDdovz5W35Hof2bKP8AGah67/crv77LzOv17xZ4a8LxLLr+ow2W/wC6rt+8f/cQZZvwBqPw54lj8TRTXNtYXdnbRlRHJdwmDzgc/MiN8+0ccsBnPFVdB8B+E/DcputL09Bdvy9zKTNcOfUyyFn5+uK6+unBwx8qiqYiUYx/ljd/fN2+5QXq0Z1nQUeWmm33en4K/wCb9AqjqGl6Zq8AtdVtIb2EMG2TxrIu4dDhgRnnrV6ivWqU4zi4zV0zlhUlFqUXZogtra2sreO1s4kggiG1I41CooHYAcAUl3Z2l/bPZ30CXMEow8cih0YdcFTkGrFFDpx5eS2m1ulg9pLm5r69xqIkSLHGoREACgDAAHQAV5j8UdD1jX7PRrLS7Y3KR6jDLPhlG2NM5J3EZHNeoUVw5rlsMXh5YabajLt/TOzLcwnha8cRBXa7hVRbCxW9bUlt4xdugjaYIPMKA5Cl8ZIz2zirdFd8oJ2utjijNq9mFFFFUSZEfh/QYYRbxabbJEsouAiwoFEw6SYAxv8A9rrWitvAk0lwkarLKFDuAAzBc7QT1OMnHpmpqKxp4enD4YpfI1nXnL4pN/Mo2ul6ZYmc2NpDbm6YvL5cap5jHqz4A3E+pp9lYWOm262enW8drAmSscSBEGTk4VcDk1bopwoQjblilb9dwlWnK/NJu/6BRRRWpkFZVtoWh2V7Lqdnp1vBeTZ8yaOFFkfccnc4AJyeTk1q0VnOjCTTkk2tvL0NIVZRTUXa+/mNdElRo5FDo4IYEZBB6giobSztLC2SzsYEtoIhhI41CIo64CjAFWKKrkV+a2pPO7ct9CrZ2Nlp0AtdPt47aFSSEiQIoLHJOFwOTyatUUUQgopRirJBKTk25O7CqkthYz3UN9PbxyXFtuEUrIC8e7htrEZGR1x1q3RROCkrSVwjNx1TKtxY2V48Mt3bxzvbP5kTOgYxv/eUkcH3HNVdatNTvtNmttHv/wCzLt8bLjylm2YIJ+RsA5HHNalFZ1MPGUZRenNvZtPturNPzTuuhpTryjKMlrba+q+53XytZnln/CJ/Ez/ofP8Ayl2//wAVWpo3h3x3ZalDc6v4u/tK0TO+3+wQw78ggfOpJGDzxXf0V49HhzDwmpqVS611q1WvmnNp+j0PUq5/XnFwcYWfalTT+9RuvVajXRJUaORQ6OCGBGQQeoIrO03RdG0ZXTR7C3sVlILiCJIgxHQnaBnFadFe1KjByU2ldbPqjyY1ZKLgno90QpbwRSSTRxqkkxBdgAC5AwCx74AwM9qjgsbK1mnuLa3jiluSGldECtIwGAXIGWIHrVqin7OOjtsL2ktddwoooqyAooooAKKKKACiiigAooooAKKKKAPNfi7P5Hw+1THWTyUH4ypn9M1yHhyPydA02PuLeLP1Kgmuy+LcXm/D3VhxlRCwz/szIf5VxPhuTzPD2mt/07RDn2UCvxTxAbWZxv8A8+1/6VI+wyJf7M/8X6I3c0ZpmaM18fznrco/NGaZmjNHOHKPzRmmZozRzhyj80ZpmaM0c4co/NGaZmjNHOHKPzRmmZozRzhyj80ZpmaM0c4co/NGaZmjNHOHKPzRmmZozRzhyj80ZpmaM0c4co/NfOvj0T3/AIqu1gUyC3WNOO3yg/zJr6HzXhOsf8jVrH+/F/6BXDjYKoowfV/ozai+Vtn/0Pq23lNzqOqXTcGa6lYjr1Ynr+NX6zbVGt77U7d+WjuZFJHTIJHH5Vobq/yKzWT+s1Obe7P7WyqK+rwt2HUU3dRurz7nfyjqKbuo3UXDlHUU3dRuouHKOopu6jdRcOUdRTd1G6i4co6im7qN1Fw5R1FN3UbqLhyjqKbuo3UXDlHUU3dRuouHKOopu6jdRcOUr/8AMa0b/r8h/wDQxX6lV+WTOqaxpEjnaq3cRJPQAOK/RbxX4tk0i4ttA0KFdQ8QahzBbE4RIwfmmmYcpEvr1Y8KCen9k/RlzClhsBjqtV2SlDzbb5kklu23oktWz8B8WcPOpjKMILo/0/BdTt6K43XPHvhXw462mq36G+bgWsAae4ZvRYowX/EgCsH+3/iH4h+Xw7oaaJbN/wAvOrN+9x6raxEtn03uvuK/qDE8RYWE3Sg3Oa+zBczXrbSPrJpeZ+TU8uqyjztWj3ei+Xf5XPTmZUUu5CqoySeAAK89v/if4ZhuX07RTN4gv04MGmxm4Kn/AG5B+7T33OKqr8M7fVGE/jjVbrxG+c+VK3kWYPtbxYU/8DLV6FY6fYaXbJZaZbRWlun3Y4UWNB9FUACsOfMsR8MY0Y+fvz+5NRi/PmmvIvlw1Pdub8tF971f3I87x8UvEfU2vhK0bsMX17j68Qpn/geP53dP+GPhe3uk1LV1l1/UE6XGpSG5YH/YRv3ae21RXodFXT4aw7kp4m9WS6zd9e6jpCL84xTFLMqiXLTtFf3dPve7+bEVVRQqgAAYAHQCloor6A88KKKKACiiigAooooAKKKKACiiigAooooAKKKKACiiigAooooAKKKKACiiigAooooAKKKKACiiigAooooAKKKKACiiigAooooAKKKKACiiigAooooAKKKKACiiigDiviNF53gbWk44t2bn/Z+b+leUeDZPM8L6e3pHjn/ZJH9K9Y+Ishi8D60wGc2zr/31x/WvJfBqhPDGnqP+eefzJNfi3iM19fp/4P8A25n1/D6/cS9f0OpzRmm5ozXwnMe3yjs0ZrkvGvjrwd8OPDl34u8eaza6Do1kMy3V3KsUYJ+6oJ+87HhUXLMeFBPFfOXgf9u/9kz4i+JbPwh4V+IVtJquoMI7eO6tbywSWRjhY1lu4IYy7EgKm7cx4UE8V10cHXqRc6cG0t2k2l+BlOrCL5ZSSZ9dZozXgvw0/aO+GfxX+IHjX4ZeFp7lNe8CXIt76G6h8kSD7plgOSXjVwUJIVgRnbtZWax8af2hvhv8BE8Of8J9cTrL4q1GLTbKK1i86UySEAyMuQRGmRvIyeQApJxR9Tre0VHlfM+ltdr/AJB7WPLzX0Pcs0Zr5o8K/tX/AAk8XfHfxB+zrYT3Vt4t8PqWb7TCsdtdMihpUt5N5ZnjDAsGRMjJXcAxH0HrGq2mh6Rfa3fki10+CW4lKjJEcSl2wO5wDxUVsPUpyUZxabSa9HsOE4yV4s1M0Zrx74GfG7wZ+0J8ObH4neBFuYtLvpJovKvY1iuIpIHKOkio8i57ja7AgjmvX81nWpypzcJqzWjRUGpJST0HZozXzF+0t+1h8NP2WNJ0bVfiHa6lfnXZ5IbeDS4Ippf3S7ndvOmhQKMgfeLEkYXGSML4A/tu/s//ALRtyujeC9Yl03xCwdhpGrRra3rKhPMe15IZcgFtsUrsq8sq12Ry3Euj9YUHyd7aGLxFNT9m5K59dZozUTyJGjSSMFVQSSTgADqSa+HvHH/BRz9kXwPLqdjJ4zOtalpbmNrXS7K5uTK4OCIbgxrauBnO4TbeDgk8VlhMHXrvlowcvRNl1asIK85JH3NmjNfPvg79pj4X+Ovize/BnQJ7ltfs9JttZDSQeXbzWt0quPKctuLIsiF8oF+YYZiGAvfH79ob4cfs2+C4/G/xInnFrcXCWtvb2kay3NxK+SRGjMinaoLMSwAA9cAn1Kt7SNLlfM9l3uHtY8rlfRHumaM18gfG39tv4K/ADXvCehfEIapEPF1sLyK5t7TzIrS3JAElypdZh1PyxxyOMHKg4z7z8Nvi38NPjDoK+Jfhj4ksvEenkIXa1lDSQmRdypPEcSQyY5Mcqq47inVwNeFNVpQai9nbQUa0HJwT1PRs0ZpuaM1x8xtyjs14Xq//ACNWr/70X/oFe5Zr528aXU9n4s1EWzbA5iJ4Bz+7U9/rXLiq6hyyfR/ozWlBu6P/0frZtG8TXviHW4dFsTdmK9mWQryFbew65Axwea0U8E/EqbO3SguPWSJf/QpK9X+FLiR/ElynMcuoOVPr1P8AIivXt9fgWF8HuH6y9vUw927/AJ+ZvS4+zpwSWLkl2Vl+h8qL8O/iS+N1rGmeuZYuPrhj0q2nwx+IbnDG2j9y4/oDX1Bvo316tPwj4ej/AMwsfuX+RlLjHOJb4yp/4E1+R8r3Hw9+I1pnZaQ3YHdJE/kzKf0rBudF8dWeftGiTHHUpEzj81zX2Nvo31wYzwU4drb4dL00/Kx1Ybj7PKXwYyXztL/0pM+PLfQPHt1/qtDmXP8Az0jaP/0MrW1D8P8A4j3Ay1lFb/70qf0Zq+qd9G+jC+CnDtLbDp+uv53Cvx9nlX48ZL5Wj+SR8rP4A+JEYJGnxSY7CWP+riqzeDPiMjeW2jjce4kjI/MOR+tfWW+jfWtTwY4dl/zDIiHHWdR2xk/vT/NHyvH8PviPN96yhgz/AHpUOPyZqtf8Kv8AiDs3+Za567d/P0+7j9a+nt9G+uql4RcPQVlhYv1Sf6GFTjHOJO7xlT/wJr8j5Tm8B/Ee3z/xLo5wO6Sx/wAt4P6VSHhjx+zeWuiOG9TgDj33Y/WvrnfRvrhreCnDs5c31dL00/Kx1U+Ps7grRxk/nZ/mmfKsXgH4jz9dPigB7tLH/R2P6Vab4ZfENQCPszbuwkHH6CvqDfRvrspeEHD0I8qwsfmk/wBDnqcZ5xJ3eMqf+BW/I+VH8A/EiMZGnRSZ9JY+PzcVXPg/4iKSp0bkccOhH/odfWe+jfXLV8F+HZa/V1/Xobw48zuO2Mn+D/NHyX/wiPxD/wCgMf8AvtP/AIunJ4M+I0h2po4B6/NJGB+rivrLfRvqF4J8OJ3+rlPj/PHp9cl/5L/kfKq+APiQ43HT4o/Yyx/0c0P4B+JEYyNOik9hLH/VxX1Vvo310f8AEG+HbW+rL8P8jH/XfOr3+uT+/wD4B8X+INB8XaEtrda3YLboJl8sh1fc/JC/I7ehr1/TLrxZBr96fHazQ3+quDNE17/ZTT44VPOeEB4x0VI5goHYnrpfFn/SP+Eesc4E+oIOOvpx/wB9V9qXthY6lbPZ6jbx3UD/AHo5UDo31VgQaWW+E2WwrTjg3Kko2dlazbT3TTT0bWq2b7nTg+M8yquar1PaWtrJa/JqzWyOI+H2m2NhYyi18LL4abI/jhmadWGd3mxM5f8A4Ec16FXmTfDK00xzP4I1S68NyE58qFvOtGP+1bS7kH/ANtN/t34ieHuPEGix67ar1udKbbMB6taykEn12O3sK/VstorB0I0HHSPVJW+6Kil/4CkeficbKpNzqRtf1f53f3np9FcdoXj7wn4imNnYX6perw1pODBcqfQxSBX49QCPeuxr1qdWM1eDuiYTUleLCiiitCgooooAKKKKACiiigAooooAKKKKACiiigAooooAKKKKACiiigAooooAKKKKACiiigAooooAKKKKACiiigAooooAKKKKACiiigAooooAKKKKACiiigAooooAKKKKACiiigDh/iV/yIms/wDXA/zFeU+ED/xTOn/9ch/M17B4+58Fa3n/AJ9Jf/QTXjHgo/8AFL2H+63/AKG1fifiVpj6T/ufqz7Dh5/uJev6HV5ozTc0Zr4DmPcPyB/4KF+Bvi1rvxk8AeK5/hzqnxZ+GGjQP5mg6TJOhfUGL7muPsqTyqpUJh/K24BTd8xBg8B/tX/sJ6V4/wBG8JeMPgYnwr8YwSwLLJqHhnT4F028YK0eZkAuk5K7ZTAnBDtsGSO2+In7Y3xs/Zh+OnjCD49+DdS1n4T388J0LVNKtY9lpG0Z2xCUiOOZ5GU745plkQgsuUKivAPjB8Sfjp/wUXsdG+GHww+E954Z8CXF99vHifWUfynggbyxKkuxIEYbm3QxSTu54U4VjX6Vg8PUnQp08TFKkl8cZ2ST11Wza6q136Hz9WpFTlKm/evs1f8ApHu37Z3gTXvgX8VPDv7c3wltRJ/ZjxW3iu1t1J+22EhWPzm2sAcx4RmPAIjc8Ka5D4aeJdN/bk/bbh+KOlCW6+G3wl0+JtOFxE8ay6jcfMH2MowxcFiG7RJxg5r6x/bK8bav8FP2UNSsfDumSeIdQu7a08OwB4DcLm7AtvNlQBgSRkKCMNIyr3rof2Kv2f0/Z2+BOj+FNQgWPxFqX/Ew1hhgn7XMB+7LDqIUAjH0J715UMyUMv8AbT/ia04Pry9fuWifmdMqDdflXw/E15/8Hf5H5R/Er4GeNfit+2z8ctY+FOrzaX428CfYdc0jy8fv7hIYC0WccMwJ2ZypPysCCa/UX9nD9qLw5+0v8IdYa5jGm+M9Cs5bbXtIlBSSCcRshkVGAJikKnHHynKNgjnwj9njSfEKf8FEP2gdWurOSOxNpZIZpI2QHekPkhSQAQyo31Az61a/a8/ZU8cW/imX9qD9l2Z9M+IVnE41TTrdQU1i2ZdsmI+jyleGQj96ACMSKpbrzDE0a8qeErySajDll2birp+T79H5GVCEoKVWCvq7r5vVef5j/wDgk4s6/svzNKT5ba5emPJyMbYwcDtzmv04zX5+f8E1PAvjL4ffs0W+jeOdEvfD+pS6rfTfZNQt5LW4WNmVVZopVVwG2kjI5HNfoDmvmeI6qlj60ovTmZ6OAjajBPsflt/wUI1XTNE+LX7Ousa1eQ6fYWXiR5Z7i4kWKGKNGgLO7uQqqBySSAK+Vf26fiJ+yT8TL3Sr79nOUal8a7bXYfs934dsZYvtMofLPPP5aRXTFwpiljMr7gMNsLV9hft9fCLW/jD8QfgfoEXhbUPEfh5dalXWGtIZnhgtJTCHM80GDCpUN85Zehwc14V4+/Yd+KH7Jni4/tB/sZXj67JpqSC48Pahbre3JtpDuljt2UK86EAL5a7LgKPlkkZsV9fkmJwsKWHlOo1USlZXtF+89JOz0Z5WMp1HKolG8dL99uh6x+2n8R/ir4i034X/ALKHg25GmeM/ipBENanU/Nb2yoBOhK4wrsJC+3qkbLwGr6F0L9gj9l3S/hba/DDUfBFhqixQLHNq0sKrq08udzzG9QLOpZudquEA+QLt4r5o+PmgfH/WNU+D/wC2z8OvAlxN4n8PacE1vwlMrtepDcZLxpHtEpYB3XAj8xSVYxnDrUA/aD/b+/aC8R6V4W+FfwqufgtYwSpJqer+IIGnAi3dI/t1rbq64yGjiiklJwd8a5NcHsa7w9OOGqRhGN3N8yVpXe9tXZW5bXNueHtJOpFtu1tL6f1uUP2gdI079m79tz4KfFbRE+xeHfEdqnhi7DFnjiSIC2jy7bmzskjOST/qyT3NXfi8qftLf8FCvBnwqiUXXhr4R2rarqitlomu2KSbGHK5yYFGefv8dc+9f8FC/hTqPxJ/Zp1K/wBJiN14h8GSQ61aNFEWkLW3E+xBuPMZY456d68z/wCCY3w18Q2Hw28QfHbx6ZbjxN8Tb5rs3E6hZJLOMko/HaSRncYAG3bgAYzVHGw+orHOX7yCdNd7vZ/KLYTpP23sUvdb5v8AgffY5v8Aal8N+HfF/wDwUG+A3hvxXpdrrOk32nX6z2l5ClxbyqsdwwDxyBlbDAEZHBAPUVyH7SP7HJ/Zhhuf2pf2RdSufCmoeFU+0alpBmee0nsgQZtnmFnMfG6SGRmQgZTYUAOp+274q1L4N/tcfCT9oLxF4c1TUPA/hSynjvLzT7bzVWa58+IRGR2SJZDvUqrum4ZxmuS+Lv7cuofte+Dr34Afss+A9dvdX8Vp9k1G81GGGKKysZWCyO32eW4VVcEq0kjIqDpuYgDtwMcY4YWdH+Fy2ndrltzSvzX02+ZjWdK9RT+K+nfZWsfqv8EvibafGT4T+F/idZwG1XxDYxXLQn/llKRiRBychXBAOeRivUs15R8D/hnB8G/hJ4V+GNvcfa/+EesYrZ5unmygbpHAPQFySB2Feq5r89xcqftZ+y+G7t6X0Pdpc3Kubcdmvnb4ggDxTdEd1jz/AN8CvofNfPfxEUL4mmYfxRxk/lj+leTmDvT+Z1Yf4j//0v0Y+EeY7TW4H4kS/fcO44A/pXr26vJvAiiz8V+N9MHAttSkAA6f6yVeP++a9SzXxuWu1FLtf82fLUF7tifdRuqDNGa7uc1J91G6oM0Zo5wJ91G6oM0Zo5wJ91G6oM0Zo5wJ91G6oM0Zo5wJ91G6oM0Zo5wJ91G6oM0Zo5wJ91G6oM0Zo5wJ91G6oM0Zo5wJ91G6oM0Zo5wPMPiCc+JvBf8A2Eo//RkdfblfDvxHcw6x4TuxyYdRQgevzof6V9xVpkz/AH1b/t38jtyv4p/L8gooor6A9cwdd8LeHfE0Ig1/Tob5V+6ZEBdPdX+8p9wRXHf8IT4k0H5/BXiKaOJellqQN5b+yrISJkH0dvpXp9Fc9TCwk+ZrXutH96Mp0Yt3tqeYf8J1ruhfJ448PT2sa/evdPze2uO7MFAmQfVD9a7TQ/EugeJbf7VoOoQ38Y6+U4Yr7MvVT7EA1t1xeufD7wnr9x/aF1ZC31AcreWrNb3IPr5sZVj+ORWfJWh8L5vXR/ev8vmTy1Fs7+v+f/AO0orzD+x/iR4d50TV4fENovS31NfKuAB2W5iGGP8Avxn60+P4nafp7rbeNNPuvDMxO3fcpvtWb/ZuY90f/fRX6UfXYrSouX12+/YPrCXxaev+ex6ZRVa0vLS/t0u7GdLmCQZWSNg6MPYjINWa6076o3CiiimAUUUUAFFFFABRRRQAUUUUAFFFFABRRRQAUUUUAFFFFABRRRQAUUUUAFFFFABRRRQAUUUUAFFFFABRRRQAUUUUAFFFFABRRRQAUUUUAFFFFABRRRQBzPjQA+Dtdz/z4XP/AKKavCPAhP8Awiljn/pp/wCjGr3Dx6SPBWtkHH+hzfqprxLwVgeF7ADj5W/9DavxPxPl/tlFf3X+Z9jw4v3M/X9Dq80ZpuaM1+b8x9BYdmjNNzRmjmCw7NGabmjNHMFh2aM03NGaOYLHzz8YP2ev+Fva5aa5/wALM8b+CvskHkfZvDOs/wBm20vzFvMkj8qTdJzjdnoAK8k/4Yh/6r98W/8Awqv/ALmr7hzRmvSo5ziKcVCEtF5L/I554SEndo8a+Dnwb/4U7Y6lY/8ACc+KfG/9oyJJ5vijU/7Slg2AjbA3lx7FbOWHOTXs+abmjNcVbEyqSc5u7ZrCmoqyHZozTc0ZrLmLsOzRmm5ozRzBYdmjNNzRmjmCw7NGabmjNHMFh2a8B+IykeJGJ/iiQj9RXvma8J+JSlfEEZP8VuhH/fTD+lcmMd4GtHc//9P9JtMAt/i543gXlXn35PXJYn/2avRd1eeY+z/GvxjAOQ4WTPuQhx/49Xe5r4vCOyku0pfmz5WOjkvN/mTbqN1Q5ozXVzF3Jt1G6oc0Zo5guTbqN1Q5ozRzBcm3UbqhzRmjmC5Nuo3VDmjNHMFybdRuqHNGaOYLk26jdUOaM0cwXJt1G6oc0Zo5guTbqN1Q5ozRzBcm3UbqhzRmjmC55h8TDm88M/8AYQj/AJivuavhL4qsY7fRZ0OJI76MqfTgn+lfdtdGSv8AfVv+3fyZ3ZU/en8gooor6I9kKKKKACiiigApkkcc0bRSqHRwQysMgg9iDT6KAPOLv4YeHRcPf+HHn8N3rnJk06TyUY/7cPMTD1ynPrVf7R8UPDv/AB8wWviu0X+OAiyvAPUxsTC5+jJn0r0+iuR4OC1h7r8v8tvwMPq8fs6en+WxwGmfEvwrfXS6bfTSaNqDf8uuoxm1lP8Au7/kf/gDNXf9eRWfqek6XrVq1jq9pFe27dY5kWRfyYGuAPw4k0f954F1u60LHS2Y/a7L/vzKSV/4Ay/SlzVobpSXlo/uen4oL1I7q56fRXmH/CT+OvD/AMvinw//AGjbr1u9HYy/i1tJiQe+0v8A49LoHjbwt4nZotF1GOa4T78DZjnTHXdE4Vxj3FXTxcJPlvZ9no/+D8io14t22Z1VFFFdJqFFFFABRRRQAUUUUAFFFFABRRRQAUUUUAFFFFABRRRQAUUUUAFFFFABRRRQAUUUUAFFFFABRRRQAUUUUAFFFFABRRRQAUUUUAFFFFAHFfEaYQeBtac45t2Xn/b+X+teOeEE8vw1YKf+eef++iT/AFr0/wCLs3k/D3VTnl/JUfjKmf0zXnegJ5WhaenQi3iz9SozX4T4n1f+FCnHtD85P/I+14cj+4k/P9EbWaM0zNGa/OeY98fmjNMzRmjmAfmjNMzRmjmAfmjNMzRmjmAfmjNMzRmjmAfmjNMzRmjmAfmjNMzRmjmAfmjNMzRmjmAfmjNMzRmjmAfmjNMzRmjmAfmvC/iU4bX4gP4bdB/48x/rXuOa+f8Ax9J5nia4X/nmsa/+Og/1rnxMvdNKW5//1P0ld/O+NfjCdeAoVMHrkBB/7LXdbjXnWiv9p+Jnjy5/uXzx89fllkX8vl/lXoOa+Fw0rqT7yl+bPk1LVvzf5km40bjUeaM108xXMSbjRuNR5ozRzBzEm40bjUeaM0cwcxJuNG41HmjNHMHMSbjRuNR5ozRzBzEm40bjUeaM0cwcxJuNG41HmjNHMHMSbjRuNR5ozRzBzEm40bjUeaM0cwcxJuNG41HmjNHMHMeY/EofaJ/D1m3KzX8YIHU8gcfnX3fXwv4vUz+MvA9ovDTalGAT0H72If1r7ortyL+JWfp+R6OU7zfoFFFFfSHshRRRQAUUUUAFFFFABRRRQAUUUUAFczr/AIN8L+KFH9u6bFdOn3ZSNsyY/uyrh1/BhXTUVE6cZLlkromUU1Zo8w/4RLxnoHzeEfETXUC9LPVwbhMei3CYmUemd9H/AAsO90X5PHWg3WkKOt3APtln9S8Q3oP99Bj1r0+iub6o4/wpNeW6/H9GjL2LXwO34r+vQy9J1vR9etRe6Jew30B/jhkVwPY46H2PNalcJq3w38J6rdHUorZtM1Htd2Dm1nz6lo8B/wDgYasv7D8TvDn/ACD7228U2i/8srwC1uwPRZowY2PuyL9fU9vUj8cb+a1/Df7rh7SS+Jfd/l/w56fRXm1v8T9DgmSy8VW9x4Zu3O0LfpshY/7FwpaFh/wIfSvRIZ4bmJZ7eRZYnGVZCGUj1BHBraliIT+B3/rsaQqxlsyWiiitiwooooAKKKKACiiigAooooAKKKKACiiigAooooAKKKKACiiigAooooAKKKKACiiigAooooAKKKKACiiigAooooA8y+MMLS/D7Uiv/LMwtj281Qf55rz/AEOQS6LYSD+KCI/+OivWviJbfa/A+tRddts8n/fv5/6V4n4RmM3huxbrhCv/AHyxX+lfgvinT5cfTn3h+Tf+Z9vw1K9CS8/0R09FMyaMmvzXnPoR9FMyaMmjnAfRTMmjJo5wH0UzJoyaOcB9FMyaMmjnAfRTMmjJo5wH0UzJoyaOcB9FMyaMmjnAfRTMmjJo5wH0UzJoyaOcB9eIa7Pa23ifUxeEAs0ZXI3cbB6Z9q9sya+ffG//ACNF7/2z/wDRa1LruDUkNRvof//V/QzwPJ9o17xbf97jUZDz1++7cn/gVek7q8o+FLmXRr+7I2+feOcenyqev416jvr88wU70k+/+Z8dSleNybdRuqHfRvrr5jS5Nuo3VDvo30cwXJt1G6od9G+jmC5Nuo3VDvo30cwXJt1G6od9G+jmC5Nuo3VDvo30cwXJt1G6od9G+jmC5Nuo3VDvo30cwXJt1G6od9G+jmC5Nuo3VDvo30cwXPP/ABfL9l8W+CtRPS21KNjnp/rYm5/75r7tr4C+KMv2ax0vUhwbW9Q5HXoW4HT+Gvv2vSyCX7ysv8P5f8A9PKHrNegUUUV9Me0FFFFABRRRQAUUUUAFFFFABRRRQAUUUUAFFFFABRRRQBDcW1vdwvbXcSzQyDDI6hlYehB4NZGl+GfD+hljothFp6ucstuvkoT7omFP5Vu0VDpxbu1qJxTdwoooqxhRRRQAUUV8q/tE/GnXfBIi8K+ATnXTEby6mEayi1tE7lXBXL+44HuRWNevGnFykfP8UcTYXKMFPHYtvlj0WrbeyS6t/wDBdkj6qornvCutLr3hXSfEDsoF/Zw3DHoAZEDN+RJr53t/G3xM+Mfiu9tfhZqsfhrwnorvBJqr20d295OB0jjlGCo4xgrgHcSSQoVTEKKXVvYxzTirD4aFFxjKpOr8EIWcpaXb1aiklq3JpLvdq/1TRXyQ9t8YPBXws+JN5421ia4vkeSXT71Jl3GMgAvEqH9wp6qg27TnAHUs134wa/YeA/Cfgjwkzaz498Radbcht7W4kiBM8pP8RGSN3u7cD5snjUviVtP1tY+fqeJGHowvjKM6cuTm5ZJczbm4Rgkr3lJrS10073tqfXVFct4J0XV/D3hTTNF17Un1fUbWELPdSEs0smSSct8xAzgE8kAZ5rqa64u6uz77CVZVKUKk48raTae6bWztpptoFFFFM6AooooAKKKKACiiigAooooAKKKKACiiigAooooAKKKKACiiigAooooA5rxn/wAifrv/AF4XX/opq+fPBJx4Ysv+2n/oxq978ekjwVreP+fSb/0E14P4PwPDdl/ut/6Ea/CfFmX+1UV/df5n2vDC/dT9f0On3UbqbRX5RzH03KO3UbqbRRzByjt1G6m0Ucwco7dRuptFHMHKO3UbqbRRzByjt1G6m0Ucwco7dRuptFHMHKO3UbqbRRzByjt1G6m0Ucwco7dRuptFHMHKO3V4T4+j2eIpH/56xo36bf6V7pXjnxIixqdrN/fh2/8AfLE/1qZvQcVqf//W+/PhghtLDVNNP3ra8cHPX7oXnt/DXp2a888MJ9k8X+NNPX7tvqUqjHTiWVeB/wABrvt9fm+F0go9rr8T4yCsrEuaM1Fvo310cxZLmjNRb6N9HMBLmjNRb6N9HMBLmjNRb6N9HMBLmjNRb6N9HMBLmjNRb6N9HMBLmjNRb6N9HMBLmjNRb6N9HMBLmjNRb6N9HMBLmjNRb6N9HMB5z8Vl3+GFOM7LiM/Thhn9a+79MlE+m2k6tvEkMbBvXKg5r4W+Jg3+FJzn7kkZ/wDHsf1r7Y8KTfaPC2jz42+ZZ27Y64zGpr1Mgf7+qvJfqellD9+a9P1N+iiivrD3gooooAKKKKACiiigAooooAKKKKACiiigAooooAKKKKACiiigAooooAKKKKAOX8a+KLbwX4T1XxVdoJY9MgabYX2b2HCpuwcFmIUHB69K+EvBHg/47eNIvE3ixdG0pI/G9q5a+1R3Mn2eTgRW6QuzJxgrvjwQoOegP278QvAGj/Erw8fDOuz3EFm00czfZnVHYxnIUllcbT3GPxrr7O0ttPtILCyjENvbIsUaL0VEG1VHsAMVxV8M6k1zPRfmfm/EvBlbN8xhLFVZQw9KPuqLScpyupN3T0UdF11dmtb/ABj4T8Uag/7JGrfYSRfaPb3Ng+w5ZR5mCeMEYjf8hXvvwTtNF0f4ReHDprxpafYknlkBAXzHG+Vmb2bOc9MY7Vp+Evhb4Z8GnxDFppnntPEs7z3NtcMskKmQMHWNQoIVg2CGLHAHNeYzfsueB2trjSrXW9ds9FuZjO2lw3wFlnIOPLaNiRwBlmLcD5s81lTo1YcsrXaVjxMp4fznL3hcTGlGrOFH2LXPy2cZXjJOz0mkubS6sty78YvF3hrxZ8C/F2peG9Ri1G1hT7O0kJ3KJVmQEZ79Rgjggggkc14Z+zfqeieAfEA0bx/ZGz8QeJIIJtO1SdzJHc2siL5cCO33DwB15I2nBVQfqjxF8J/D+o/DO9+GPhxU0Gwuo1RGjjMuwq6vuYFgzkleSzZPc1HrXwe8J+KPAWmeA/E6NeRaVbxQw3SYinjeNAhkjPzbSccqdynjIOKVTDVHUVTS6Xy/rzMM54QzfEZvRzeKh7WlSjb/AJ9ynzT5o63lH3X7s7aPvdo9XorlvB3haPwboMOgQ6le6rHbk7JtQmE8+09F3hV+VeijHA4rqa9KLdtT9iwtSpOlGVWPLJrVXvZ9r9fUKKKKZ0BRRRQAUUUUAFFFFABRRRQAUUUUAFFFFABRRRQAUUUUAFFFFABRRRQByPj7/kStb/69Jv8A0E14L4QJ/wCEcsv91v8A0I1714+/5ErW/wDr0m/9BNeCeET/AMU5Zf7rf+hGvwTxcf8AtdH/AA/qfb8Lfwp+v6HTZNGTTcijIr8l5j6iw7JoyabkUZFHMFh2TRk03IoyKOYLDsmjJpuRRkUcwWHZNGTTcijIo5gsOyaMmm5FGRRzBYdk0ZNNyKMijmCw7JoyabkUZFHMFh2TRk03IoyKOYLDsmjJpuRRkUcwWHZNeT/En/X2H+7J/Na9WyK8o+JBzPYf7sn8xRzDsf/X+/8AwbN9s1vxTqpOfteoSNnOc/O7de/3q9A3CvMPhed2hXM7NueS6cse/wB1ev8AOvSc1+Y4Wd6afc+IhK6uTbhRuFQ5ozXRzF3Jtwo3Coc0Zo5guTbhRuFQ5ozRzBcm3CjcKhzRmjmC5NuFG4VDmjNHMFybcKNwqHNGaOYLk24UbhUOaM0cwXJtwo3Coc0Zo5guTbhRuFQ5ozRzBcm3CjcKhzRmjmC5wXxPl2+GCv8AfmjH8z/SvuzQ4Ba6Lp9sMYht4k4GB8qAdK+CPiYv2jTLCzzjzrtBnqR8rDp+NfoXXs8OK9Wq/KP6nrZMvem/T9Qooor6094KKKKACiiigAooooAKKKKAEZlRS7kKqjJJ4AAqhpmraVrdmmo6NeQ39pISFmt5FljYqcHDISDgjB5r53+PXibV9YutM+C/g2QjWPEx/wBMkTk21iPvs2Om4A59VBHcVT/ZZZtJ0HxN4EmYtN4b1eaLJwfkfhTx6lGNcn1r977NLTv59j4Bccxlnscpp07wtJOfT2iSlyLu1HV9rpdGfUlcj458aaR8PvDF34s1xZXs7PYGWBQ8jGRwgChio6nuRxXnHiP4w6zH4zuvA/w88LP4tv8ATIhJfMLyOyityxG1N8qlWbByRkfjg44X4yeKdW8Tfs765qeuaBc+Hb7zo4JLS5IYqUuEG9HAG9D2baM84yMElXFLlly7pPp2/AWfcc4eGDxjwUm6tKFRp8k+TmgtVz2UJNPRpSb6dGfU1ndQ39pBfW5JiuEWRCRg7XGRx9DVmvmTW/i/eaPH4Z+HXw0sodc8VXNva+bE2Tb2kAjXc0xRl2nHbI2jk/whvppdxUFwA2OQDkZ+vFa0qyldLofQ5JxDh8dKdOi7unZSaXu8zV3FPZtfaS2ur6nJaP488Ja/4h1TwppOopPq2jHF3b7XVo+cZBZQGAPBKkgEgHqK29Z1jTfD+lXet6xMLeysY2lmkILbUUZJwoJP0AJr8/b/AEDxhbfGX4g+P/A7Z1Pwrdw3DWo5F1bTKfOjwBySozjr1x82K+wIfFXh/wCKfwp1LWdGYTWuoWFzHJGw3PFL5RDRuv8AeUn8eCOCDXNQxblzJqz1t5/11PjeGOPK+OhiaFeChWg6nJvyzjCUoprW901aav2eikregaHrmleJdItde0O4W7sL1BJDKoIDKfZgCD2IIBB4NatfFPwa+J8vhD4afDvQF0/7bL4h1O4sATL5flIJuX+6ckFxxx9a+hvF/wASo/Cnjbwp4M+wfan8TSSp5vnbPIEYHzbNjb859V6da0o4uMoKT8vxPVyDj3B4rL6eMrz5ZWpc6SlZSqqLilprdyXe19Wj1CivjxP2nNcj1rxD4fg8M/23qOmX12kMFrI0ASxtAS808riQbuOMKAfY4DLD+1Rq0+iReLU8A3a+HVlhgnvnu1VUlkJDCNfK/eqpBG4EDOA20kCp/tGj3/BnDHxcyDVOu7q9/cqO3L8V2otabvXRNXtc+wqKjhljuIknhbfHIoZSOhBGQa8w8X+LfiXo+rmy8J+Am8Q2QRW+1HU7azBc9VEcgZsDjk4yegxyeqc1FXf+f5H3OY5pSwtL21RSa/uwnN/dCMnbztY9Torh/BGveM9dt7p/GXhY+F5oWURJ9thvRMpByd0QG3aeMEd+O+NTxf4p0zwV4a1DxVrG82enR+Y4jGXbkAKoJAyxIAyQOeaFUXLzdAp5tQlhXjG3GCTbcoyg0le7cZJSW3VLTXY6Sivkr/hbnx81aLS/E2jeAIrXw7fSW6hJGku7x45XIMqrE0ZRAozl48DIOSDx6T4v+LepaZ4wHgLwJ4al8Wa1BB9ou0W5jtIraNvu7pZFZdxyDtOOCMEngYLGQavr9z/A+Zw/iDl1SnKs+eMU4pXpzTnzX5eSPLzSvZvSO2u2p7ZRXg3hX43Nr2i+MLnVdBfS9W8GpI11Zi5S5jbajMFW4jXbnKFWG07ffkDzxv2otYuPC7eNNJ8BXNxolqIlu7uW8SCOOeRtpjhzGzTBTgFlAweoAwSPG0krt/gyMR4lZLSpwqzrO0lKStCo3aLak2lFtcrT5rpWtrY+vKK8k8L/ABVi8QeP9U8BXemnTp7S1gvbWR5gxuoJlViQm0bSu4ZGW79MGs/TfjXpN7qvjVLqzNtovgrCzX/mhvOlGQyLHtGCCCB853HHTNX9Zh3/AKR6keMctcYy9srSlOK0a1gm5300UVFtt2Vra6q/tdFfK17+0P4u0vQLfxtq3w8ms/C11IgjvJNSgE7RSNhWFqUDlmHzBc4I53bfmrsPiJ8dbH4f61oOlHRbnVhr9s88P2Y/vi/AijWErli7EA/MCvox4qPrlOzd/wAH1POXiLk/sp15VXGMeW/NCpHSbtBpSim1J7SSa8z3mivDvh98W9d8V+M9Q8DeKPCr+GtSsbNLzabtbvKSFQA2xFCnDA9SeoIBr3GtqdWM1eJ9Fk2d4bH0fb4WTcbtO8ZRaadmnGSTTT7oq319Z6ZZzahqEyW1rbI0kssjBURFGSzE8AAVV0TW9J8R6Tba5odyl5YXib4pU+6y9O/IIPBB5B4PNYfxA1yy8N+Cda13UrJNRtbO1keS2kICTLjBjbcGGG6HIP0NeY6h8XNB8D/CjQPFdh4fMR1hIUsNItAqDzZgXEalUAC9eQmTkYXmoqV1F+89LXPNzTiXD4PESjiasYwhTc5aSvbmSTutLbq2sm7WPfqK+cvC/jv47XnjnS9P8XeDrfSvD+qmc7od9xPbJHHuTz50kMSlmIHKKTyNoNcLYftG+O9bvNa8MeGPCUesa/p11dj93IYraC0gICPKzn5nJDDAZATjHPFZvHQW9/uZ41XxLy2nGMqyqRcpOMU6c1KTST0jbmd1JW073tZn2PRXAfDLx7afErwdZ+LLW2NmbgukkBfzDFJGxVl3YXd6g4HXpV7x94ysPAPhPUPFOobGFnGWjieVYfOlxlY1Zs/M2OMAn2NbqrHl576H1cM8wksEsxVRexcefm1+G1799ulr+VzsaK4PwD8Q/DvxA0W01DS721a9lt457izhuUnltjIPuyBcMMHjJUc9q67U7CHVdOutMuHeOK7ieJmiYo4VwVJVhyCM8GqjNSV4m+EzCliaCxGFkpxaumno/wDL9Oxzel/EHwdrfii+8G6RqaXer6anmXMMauyxgEKcyBfLyCQCobIPBGQa7Kvjb4M+DtE8EfH7xd4d8NLILDTdKtoy0r+Y7SP5TMzN0yxBJAAHoAOK+yaxwtWU4ty3uz57gnPMXj8JOrjYRjONScLRu17knHd77b2V+y2Ciiiug+vCiiigAooooAKKKKAOK+I0jReBtaZeptmX8G4P868M8KqF8PWQH9zP5kmvcPiV/wAiJrP/AFwP8xXh3hj/AJAFl/1zH86/n7xfl/tlL/D+rPuuFV+6l6/odDRUdFfkfMfU2JKKjoo5gsSUVHRRzBYkoqOijmCxJRUdFHMFiSio6KOYLElFR0UcwWJKKjoo5gsSUVHRRzBYkoqOijmCxJXlXxH/ANdY/wC7J/MV6jXlnxF/11j/ALsn8xVQlqJo/9D708CxfYJ9d0jp9jvZFx0xglfp/DXoO4V8zfHj4tf8KBsfid8RINGOuppWoK32MTi23edcshPmFHChd+eEJwMV8c237Vf7d3xA0y78cfC74JWVr4XijWWJNSWeW7lXyw5eHdcWT3KsOVMNuc/dBY1+cYTAzlB2skm1q0tmfH0sNJp2tZOx+r+4UbhXgnwX+LXiTxz8Lf8AhP8A4q+FZvhxdWxmF1bakzRBI4B81wfPSJ4425IDrwB95h8x+XfEX/BUD9nDQtbu9IsrTXtchtX2Le2Npb/ZpuASY/tFzDIQDxlo1yRkZGCbhhKspOMY3sEcPUk2oq9j9Hdwo3Cvi740/thaf8Nvhb4a+Lvgbwlf+OfD3iImRrqIS2UFpbDgSTu8EhRmchUV1UNzhumfF0/4Krfs+lAZPDvigMQMgWtkQD7H7aM/lVwwFaS5oxKhhasldRP053CjcK+Vv2ef2tvh5+0re6zZeBdJ1mx/sSOKSaTUreGKJvNJCqjwzzDdxkg445Gecer/ABd+Lngv4JeBr/x/46uWh0+yACxxBWnuJWzshhRmUNI2OAWAHJJABIwlRnGfs2texlKnJS5GtT1LcKNwrgvCvxA0Lxn8PtP+JOhebJpOqWC6jCHXEvlMnmBWUE4cDggE81+b2k/8FIviBr+jz+LNC+AOs6j4atWfztTtruea3jji5dnkTTzEpVeWBkwO571pRwlSpflW3ovzLp0JyvyrY/V7cKNwr5p0v9p/wD4l+AGr/tB+Ekm1DStIs7i4ls5AIblJ7ZctbyffVXzgbgWXBDAkV6B8GPiXF8YPhd4e+JUVgdKGvWwnNq0vneS24qV8zam4Ajg7Vz6Cs50ZRTcls7fMiVOSV2vI9W3CjcK+LP2nv20PCn7M99b6BqnhnU9b1jUbX7TZ+X5dvYSgPsdGuWZnVl6nbC/UZxnjkfhX/wAFFfgz8WPG+hfD3RtC8QWmr69KII2ntrY26SbCx3PHcu+0YPzCP3IAzjaOCquHtFHQ0WGqOPOo6H6A7hRuFeAfHP8AaT+FP7POkQ6j8Q9Sdbu8BNpp9ogmvbnb1KR5VVUf35GRM8bskA+RfBb9vb4I/HHxrB4A8O22s6Xq96rG2XULSMRzsilmUPbTThCFBOZNi9gckAxHC1JQ9oouxMaE3HmS0PtzcKNwr5z8MfH+38TftB+KvgNHorQN4YsIb06gZwwmMuzKCHYNoXeMNvOfQV3/AMXfiVpnwh+G3iD4katA13b6FbNP5CMEaZ/upGGIIXcxAzg4znBqHSkpKNtXb8SXCSaVtz03cKNwr8/fid+2/qHw/wDht8MfHmnfDybW7v4lwCWHT49Q2SQSOqFIkZLeVpmcuAuEQnjgE4HlI/aY/wCCg2k2dh4z134F2t34bu5gfsdnBcnVfKYnCtElzPPCwA5eS0wO6jIFdMMBUau7L1aNo4SbV9F80fqxuFG4V8HfHz9t6z/Z+m8DW/inwReTS+K7Jb69hF1HHNpyZUPGEKETSqSRtLRjj7wycez/AAV/aj+C3x8hEfgHXVOqrEJZdLvF+z38Qxlv3TEiQLxueFpEBIBbkVlLC1FD2jjp3M3QqKPPbQ9P8Wr9o1vwxaqcGXUIgD2HzqP61+gVfAOrlP8AhOfBHnf6n+04d+emPOi6/hmvv6vZ4Y3qvzX5Hq5L9t+gUUUV9We4FFFFABRRRQAUUUUAFU9Rv7fS9PutTusiC0ieaTAydkaljgdzgVcooZM03FqLsz4N+GPwW0v43PffFr4jS30i6pfyPaWom2o9rG2ArsVL7P4FCMmAvHbHa/DvRdL+FP7Qes+BNItns9H8QadFc2Ue+R13wjLjdIWJ6Sc5Pp7V9e0VwQwEY8rW6d79+5+X5b4WYPCLDVqLSxFOanKry+9UbTU09bpS5npdpaaOx8a/DXx94Q+FHiLxvoPxIuf7G1q71Se986SGQrdWzAtGyMitkD5sDuWwuTkC58bviBo3xA+AWr634cS4+wy30Nqkk8LR+aI5l/eRg9UJHBOD1BAPFfUms+G/DviOOKLxDpdrqiQNvjW6gScI3TcocHB9xWyAFAAGAO1NYWfI6fNpr011Lp8EY/6hXyh4mKw8ozjG0Hz+/fWT57Plu9kubd26/DEng65/ZsutE+Jfh6S41DQb6GK216KYq8oaU7hMvC4AY8DsRgk7jX3Ba3VvfWsN7aOJYLhFkjcdGRxlSPqDViitqGHVO6jt2PouGOE4ZS6lLCztRlZqFvhltJp32lo+W2kru+p8tfCK4ll+OnxUX70YmthuA6FAwAyOPWsf4jeF/Efwe1fVPiN8PLb7V4c1dGGt6WnSMsCDcxDtjJLY6c5+U/L9W2mk6VYXV1fWNlDb3N8ytcSxxqjzMowpkYAFiBwCc4rQrP6p7nK3rdtP1PGjwApZf9VnVtVjOpOFSK1g5zlLrurStKL0krrs1+bWltD4f+F/wk8cXqOmm6RrlxLdSAM2xJJshiACekZ6D9TXpWvfErwR8RPjt8Obrwdqgv0s3uI5f3M0JVnXK/61Ezn2zX2tPBDcwyW1zGssMqlHRwGVlYYIIPBBHBBrGtfC3hixWxSy0izt10subQR28aC3Mn3zFhRs3fxbcZ71isDJJRUtNOna3mfPUfDDGYeEMNh8TH2V6DleD5nKjyL3Wp2SkoapqVnpfW6+Xvg5pdtqF18YZniT7bdajd2zHbhxGyyYGeCASc4zjIrk9I/4nn7Gl9alfMfTkmUcdDBdeZn8AetfcMVjZW/n+Rbxx/anMku1APMdgFLPj7xIABJ5wBWda+GfDljpMmg2WlWlvpkwcSWscEaQOJPv7owAp3d8jnvVfUtLX6Nfed8PDacaCoKqreyr027b+2kpJ7/Z69+hi/DfUv7Y+H/hzUzjNxp9sxx/e8tQenvWD4v/AOF2/wBrn/hAj4e/svy1x/aYu/tHmfxf6n5NvTHevSrOztNPtYrGwgS2toFCRxRKERFXgKqrgADsBVmuv2d4qLZ97LKJ1MHTw1SrKMopXlB8rbSs++jOJ8Ej4jfZLk/EY6V9p3jyBpQn8sJjneZzktnpgYx+mR8Xde8GaD4JuX+IFpLe6FeyRWtwkKM5Akbhm2srKqkZ3A5BxtycCvTaQgMCCMg9qbp+7yp/fqVXyubwMsJTndtNXmuff+ZXXMu6urrQ/OvRdf8ABXhHxv4btP2fvFGpapFqmolL3R5lnNoIZcbmVZYo8FVGNxLMAAS3Bzb8X2un+HPi54usfiX4q1LwpoXiB1ukNjbsf7Qh2FBEbiNXdVTcQ0ewqwzkg7TX3XovhTwv4beaTw7o9npbXOPNNrbxwGTGcbiijOMnGa1L/T7DVbOXTtUtory0uF2yQzIskbr6MrAgj2Irz1l75bN9b21t+Z+VU/CjESwvJUrQUlPnjCMZqjH3XBx5faKVpJ3laSV9OVq6fyTpni34Vz+BPF3g/wCEGkTf2TbaPdzXGoJBIkBmMbYjkknxK8hBONwPAwOBx6v8FNK0zU/gj4Y03UbOG6tJrJC8MsavG53lvmRgQfm55HXnrXr5sLFrE6W1vGbMx+SYCg8rysbdmzG3bt4xjGOKdZ2dpp9rFY2ECW1tAoSOKJQiIq8BVVcAAdgK6aWHald22ttY+yyThCrh8TCvXnCSVOVPljDkik5KVoxvK0Ulazbb/A+Uv2j01HwLqnh74yeHIx9r0zzNPnUDho7hG8stjsrZH4isrUfhXr+nfsx3ei6fFJca9qXl6pfIBvllkd1kdADyWVAPl6kg9zX2XRUywScpSb3X/DnFjfDbD4jF4vEzqPlrQlHlS+BziozmnfeSjHp0e9z89fDXin9nxI7XxT8Q/E1/4y1+2i3RWl5aTLDbsORDBaqpt1PRcGRo8gEba9W1nVD4k+OPwt1m606bTnutOvJja3aBZoW2Nwy84I6jv7A8V9SDSdKGpnWxZQjUTF5JufLXzjFnds8zG7bnnGcZpZdK0ufUINWns4ZL61VkinaNTLGr/eVHI3KG7gHmohg5JWbW66dn11Z52A8O8VSoqhOrTsp05e7TknLknGV5ylOcpSaVlrZX66WVNM02PUJNWjtIlvpkWKScRqJXjU5VWfG4qCeATgVerkfGWj+Ktb0yO18IeIf+EavFlDNcfZI7zdGAQU2SkAZJBz14968x/wCFe/HL/orX/lBs/wD4uuqdRxdlFv7v8z7fH5tXw1R06GBqVFveDpJXe/x1YO/fT5nRfHZWb4P+KwoyfsT9PqK8Y17WfhHF8J/AXhn4t2txHY6jp0clvcxxylbeWKADcXi+fcd/ChXB43DHNe5eDfCvxJ0TVHu/F3jn/hJLNoyq239mW9ntckYfzImLHABGOnNeiX+n2Gq2cunapbRXlpcLtkhmRZI3X0ZWBBHsRWE6LneVraWs9fyZ83j+HsRmUquM5FTlKmqfJVjGasp815clRpqW1k7rfdJHxV8FPEVlY/FS38F/DHxJqHijwY+nNJOt+sh+xSR7tojLpFtUsVGFQA7sHJAI639mHSoW8NeMtRWPF/fatdQyOeCRGPlXHbBdvzr6f0fQ9E8PWf8AZ+gafb6ba7i/lW0SQx7m6nagAye5q5bWdpZrItpCkAldpXCKFDSOcsxx1ZjyT1J61NHBuLi29r/j2OTh3w9q4WeGq4ispeydRqKT5Y+0UVyw5pSaUbPdv4nstD5t/ZPl/wCLXS2TjbLZaldxOM98q3/s2K7b4t/Brwx8TtKuZp7CA+II7Z4rK7keSPy3PK7/ACj8yg9mVsZOByc+q6fpWl6RFJBpVnDZRyyNK6wRrGrSPyzkKACzdz1Per9bQwy9kqc9T38s4NoLJaWTY5KrGMVF3Wjtomk9muj3T1PLPhz8LfDngjS9JnGlWMOv2lilrcXdrGFMrYHmHdtUtuYfeYbq9H1C/tNKsLnVL+TyrWzieaV8FtscalmOFBJwAeAM1coraFNRVon0OX5VRweHWHwkVFJaadbWu7Wu+/V9z4e+FnxR8C3Px88W3kGpmeHxObSHTpPImBlkAAKYKZQA932jivuGiissPScE03f/AIPzZ4/COQYjLsPOjXqxqc05TuoOFueTk1ZznfVu2q0snfcKKKK6D6oKKKKACiiigAooooA474gxCbwRraHPFrI3H+yN39K8C8KSbvD1mT2Uj8mIr6K8ZYPhDXAxwPsNzk/9smr5s8HZ/wCEctM/9NP/AENq/n/xjjbEUJf3X+Z9zwnrTmvM6ndRuptFfjXMfWco7dRuptFHMHKO3UbqbRRzByjt1G6m0Ucwco7dRuptFHMHKO3UbqbRRzByjt1G6m0Ucwco7dRuptFHMHKO3UbqbRRzByjt1G6m0Ucwco7dXlvxFIM9iB/df+Yr1CvKPiER9vtV7iMn82rWi/eFJaH/0en/AOChGpfZvg/8X5osfvtWtLbDA9WvsNjHspIrwT4W/Hr9vPV/DWmeHvhX8GLKDQ9D06yggk1mCe1aZFiCCWOa4urKOUPtLYiQ7QRknIJ+pf2vvhr4k+L/AMM/ix4b8F2zXuqSaqt5b26lQ832a7klZF3EDcUzgZ5PAyeD4T4Y/bK/aG8O+G9K0CX9mPxRdtplpBbGb/TY/MMKBN23+zDtzjOMnHrXw2CfNQajFSfNLd7fij5qi702oxTd3u/+Cj3L41/D34+fH39k9vCur2ll4b+IN8IZ77T4LnFrL5EpZrcSq0oXzFAIBkZd2Az7ckeB+DfjL+1X+zV8P7Tw74r/AGcYJ9Js1It28NXCpHEkSZllu0tf7RO9yN7SsYwTnOTzXqfxh1D9rTxx4N+HHxn+DGlXHh7V9N8651Xwhez7GmEowouA5t/OVFDfum2OCwKqHAx5fq37QH7dXxk06fwv8NfgvJ4IMlt5N7fayHidTMdvm2pvhaRjaN2U8u4YAg9cZugm4csuVxu762t+P3bipJuNny2vrra34/5n3r8DfjX4V+Pnw9sviF4SWWC3nZ4Z7ecAS29xH9+NsEg4yCrDgqQeDkD40h8vSP8AgpzNtOP7X8K5ODjJCjrgc/6rv7c9q+j/ANk/4Bzfs6/Ca28E6lfx6jq9zPJeX80G4QefKANkW/DFEVQoYhS2CxVc4HA698G/iJeftwaB8aLK0j/4RGz8PPY3F0Zow4nBmAi8onzCT5ikMF24BywPB5KVSnGpVUH7tnYwhKCnNRelnY+1Lm6t7O3lu7uVYIIFZ5JHYKiIoyzMxwAAOST0r8Jf2k/jT8Nv2k/ixrFn4p8XQ6N8OvAFpcw6aI2llfVtWlVlSSKOAOXiLoB5oXaqAZYeaK/Wn9pPTfiRrnwT8U6D8JbMX3ibVLb7LBGZo7c+XMwSZleYqgYRlsZYc9815d8CP2PfhF8Pvhbofh3xv4L0TxB4iWES6hd39hbXkhuZfmdFklRzsT7qgHHGR1p4CvTpRdWT12Vt/N/oGEqQppzlvsv8zgv2B/Gi+Kf2SI9NeRXuPDh1DT5AGyVUZljyOo+SQfz+nwh+zR+0n8bPhf8AAC+8IfDT4Qal4qiNxdzJriQ3VxYwvIF3rJFBbkN5YHP79fU8cH7/AP2dvgT8Qvgl48+LfhS306BPh74ikN9olwksQImlVlMAiVt6LGrBPmUDCggnPHyD+z/H/wAFBPg54L1P4ZfDv4XWEtlp19cb7nVdsMpmlAy8Dy3tvHNGMAq6I6Z4JPIr0YSpSdVqzTaert3OyLg3O1mm09XYv/Aq+8If8O9vix/ZWuHUdZuIr641a3aNojaXFwqrGiqeCjqoYOnykkjgqa/QT9i+J4P2Xvh4rEHdpwYY9Gkcivkpv2VPiv4R/Z++MOv+KL1fFfxO+I1usl3b6agSLbFJ5myNUSNZJWBZiFjUZ+RQ33m5L4Z/H39sPQPh74P+D/wy+AN9Z6jodrFaPf69DdpaTpBGQx/erYxwMzcjfcMP4QCSDUYmKrRl7OS+K+6XT5aE1o+0jLkfX9D9EP2mr2Wx/Z6+I15CAXh0K/YBuRnyW64xXmv7CMKW/wCyv4ICEnzIbhzn1NxJXgPxWu/+CgHjT4UxeAJPh3oV9P4m0y7t9bmhu4Ea3+0O6JFEJL6NRIkWCzDzUJIweDlP2W7P9uL4aJ4R+FHir4e6Np/gPTWeK61B7uCS9jhbfIWBhvpAzbyAAICOxxyw5fYJYdx543vfddEYeytRceZXvfczvjd8FP2ltE/ajm+PXwv8I6N8SLe5toYrOLVpYQNLMKoP3cc09rtk3BmjkUvjcxOCa9D8K/tz6/bfEfSvh38cvhRqvw3OtXBsbS/uJmntpbsOEwpe3gVoixAEkTyDlTyp3Dza3+JH7bH7N3ifxHpPirwHqHxh8N6rqF1caXe2U0s88SyMHVcwx3MkMKqcCKSFArZEblAM0bL4R/tX/tU/EXwn4r/aJ0uy8C+DvCs8Oo21hbFPPuHLeYF2CaaZJCFVZDK0e0fdj3bsdLjFxXtuXlS0aev3X/Q25U1+9tZLR31+7/gHn+vftIeFv2f/ANuL4seI/Fml3+qyXlpa6dYwackbM8vkwSASGSRMAnjKhiP7pqr+0x+1h8ZfiL8FfEHhLxJ8Bdf8GaZqKwiXVbt7ryIVWVWG7zLCFSGICjMg69+lfZXwT+FPj/w5+1X8ZPiZ4p0lrTRvEQtY9LujLC4uEQAHCq7SLgKv3gvpXpX7XPgTxJ8S/wBn3xZ4P8IWTalrF3FE1vbo6RtI0UqOQDIVX7oPGcnoOan63RVWmnG/w638l+Qvb01UhdX21ufnJ+0hrV54R8KfsrRaPop1+/0y2t7620y2RzJcvAlsVjjCI5yTgABCc9Aa9w8KfHT/AIKQ+LYoNYsfg3olrpk05UpfiTTrlY1fDbo7rUI5V46P5OD1CkcVmfHv4bfF/wALeHvgB8T9A8JXnijWPhlDDDqelWJWWfcUhBAEKzFhujKlo0cL1IxyOw0z9tj4/wB/qVpYzfsw+JreO4ljjaVnvAsYdgCxL6aigDOfmZR6kDmtXLmpx5Ixlvu/N+aLbcoLlinvu/P1E/aDaR/24v2fWuFCSGC83qDuAJEmQDxkVJ+1t+yZ4LtvDGo/HT4O2y+CvHPhJDqay6Zi2huRb/O+6JcIkuMkOoBY5D7s8Vv2vfDnxg0b43fDX4/eBPBN1410zwZDItzY2Tg3PmzMV2eXGssxBD53pFIq4O7ArgPHvxX/AGt/2ptCl+Dvhf4O6h8NbDWgItV1TWGnVBZswDqjz21qBkE71QSOy5CqOTWdDntSnCSSS11Xd7oilzWhKL0S118z7B+GHxPvvid8Ffh58VtUiEF/cmJ7jHQzRMVkZduMBmjLADGM4r9e6/K3T/h3o/wq+DOg/DzRXaW10CKCBZXADyuM75GAAGXYlj9a/T3QpWm0PTpn+9JbwsfqUBrfh2pF166jto1+J0ZRJOdTl20/U1aKKK+tPdCiiigAooooAKKKKACiiigAooooAKKKKACiiigAooooAKKKKACiiigAooooAKKKKACiiigAooooAKKKKACiiigAooooAKKKKACiiigAooooAKKKKACiqeof2h9hn/sryjebD5Im3CIvjjeV5Az1xzXnn/Cw73Rfk8daDdaQo63cA+2Wf1LxDeg/30GPWsKuIhB+/p59Pv6fMznVjH4j0+isvSdb0fXrUXuiXsN9Af44ZFcD2OOh9jzWpW0ZJq6LTT1QUUUUxhRRRQAUUUUAch4/m8jwTrb5xm0lX/vtdv65r578KqU8P2a4x8rH82J/rXvPxMWR/AesiLhvJz68BgW/TNeE+HGU6HZbOnlj8+/61/PHjNN/W6K/u/qz73hKP7qb8zdyaMmmbqN1fjHOfW8o/JoyaZuo3Uc4co/JoyaZuo3Uc4co/JoyaZuo3Uc4co/JoyaZuo3Uc4co/JoyaZuo3Uc4co/JoyaZuo3Uc4co/JoyaZuo3Uc4co/JoyaZuo3Uc4co/JoyaZuo3Uc4co/Jrx7x3L5mtKn/ADziUfmSf6169urxPxgxbxDdA9tgH/fC104V3kZ1Fof/0vunwlL9qvdevuT9ovZGyfvHJLc/nXa5rzz4dMW0a5kY5drlsk9T8i9TXfbq/IKU7xufAKRLmjNRbqN1acw+YlzRmot1G6jmDmJc0ZqLdRuo5g5iXNGai3UbqOYOYlzRmot1G6jmDmJc0ZqLdRuo5g5iXNGai3UbqOYOYlzRmot1G6jmDmJc0ZqLdRuo5g5iXNGai3UbqOYOY4r4huR4fwP4pkB/U1+g+kRLBpNlCn3Y4I1GfQKBX55fEJmfR4LdBuea4RVH4N/Wv0Yt4fs9vFADu8tVXPrgYr6fhTWpVf8Ah/U9zIt5v0/Umooor7Q+iCiiigAooooAKKKKACiiigAooooAKKKKACiiigAooooAKKKKACiiigAooooAKKKKACiiigAooooAKKKKACiiigAooooAKKKKACiiigAooooAKKKKACiiigDhNW+G/hPVbo6lFbNpmo9ruwc2s+fUtHgN/wADDVl/Yfid4c/5B97beKbRf+WV4Ba3YHos0YMbH3ZF+vr6fRXLLBwveOj8tP8AgP53MXQjutH5Hm1v8T9DgmSy8VW9x4Zu3O0LfpshY/7FwpaFh/wIfSvRIZ4bmJZ7eRZYnGVZCGUj1BHBpLi2t7uF7a7iWaGQYZHUMrD0IPBrzqb4YaRaSteeELu58M3LHP8AoT/6Ox/27Zw0RH0UfWp/fQ7SX3P/ACf4C/eR8/wf+X5HpdFeYf2n8S/DnGq6dB4ms0/5b2BFvdYHdreUlGPskg+la+jfEXwnrN1/Zq3ZsdRHWzvUa2uAfTZIBu/4DkVUcZC/LLR+en/AfyuNV43s9H5ncUUUV1Gxzvi+3+1+FNZtgMmSznA+vlnH618x+EJfM0C3HdC6n/von+VfV+qsiaZeNINyCGQsPUbTkV8i+CQw0Tk9ZGx9OK/APGumlPDz62f6f5n3PB7uqi9DsaKZmjNfhHMfa8o+imZozRzByj6KZmjNHMHKPopmaM0cwco+imZozRzByj6KZmjNHMHKPopmaM0cwco+imZozRzByj6KZmjNHMHKPopmaM0cwco+vFfGC48QXJ/vBD/44BXs+a8a8YgjXpie6oR/3yK7MC/fMqq0P//T+1vh0f8AiST/APXw3/oCV32a4LwOn2azvrP/AJ43TjnrwAOfyrt91fjNN2ikfnqdibNGah3UbqvmHcmzRmod1G6jmC5NmjNQ7qN1HMFybNGah3UbqOYLk2aM1Duo3UcwXJs0ZqHdRuo5guTZozUO6jdRzBcmzRmod1G6jmC5NmjNQ7qN1HMFybNGah3UbqOYLnOavD9v8U+FdK7XeoQqfxkRff8AvV+iNfn3ZnPxO8Gf9fsf/oxa/QSvtOEl7lR+a/I+jyJe7J+YUUUV9ee8FFFFABRRRQAUUUUAFFFFABRRRQAUUUUAFFFFABRRRQAUUUUAFFFFABRRRQAUUUUAFFFFABRRRQAUUUUAFFFFABRRRQAUUUUAFFFFABRRRQAUUUUAFFFFABRRRQAUUUUAFZGs6BoniK1NlrthDfw9lmQPj3GRwfcc1r0VMoqStJXQmk1ZnmH/AAgGqaH8/gbxBc6ag6Wl3m9s8f3VWQ+ZGP8Adf8ACsvWta8RjSrrRfH/AIeneyuUKPe6LI06gdd3ljbPHjrwHHrkZr2OuR1/wrca9eJcDXtR02FIwnk2UkcSMcklmYxs+TkDhgOPc1wVsJyxfsr+nT7n09LHNUoWXufd0/H9DyHSPihZXug674X1TU4b69trK5Nndqdn22NY2wHQgGOdQPnQgE/eUEVwvhCSIaHbqrgs284yM/eNdh8UPhV4O0zwbrfie6+1ajqdtbN5VxeXc0rKzEKDywB68AjHtXifhf4UeG9a8N2GpXstzHcXMYdvLdQOSegZD2r8o404UxWZVKdKc0nFNrrpfr/TO7KOJquX3pSpqTeu9tPuZ7CZowSC4B+tI08Kjc0igHjJIrzd/gn4bH+ov7xB3y0Z/kgqWP4KeE15lubyU98yIBn14T+tfErwkxF9aq+7/gnuPxGnbTD/APk3/wBqdpJrejRnEl/boT6yoP61chu7a5BNvMkv+4wb+VclH8I/A6AhraV/czN/QiqNx8GPCEvzQSXVuR02SKRn/gSk/rW0/COtbSsr+hnHxErJ60F/4E/8j0LNGa8ub4OrGcWev3UKehGf5Mv8qhPwbkIwfENwR/uf/Z1wvwoxt/jX9fM6V4irrh3/AOBL/I9VaRV+8QM+ppvnxf31/MV5YvwXhOfP1y4cdsIB/NjUy/BTRiP32qXbt6jYP5g1cfCbFveov6+Yn4jdsP8A+TL/ACPTTcQgEmRQB7iozeWoBYzIAO+4V58Pgl4T4LXd6T3/AHkfP/kOrA+DPg4HJe6OO3mr/wDE1vHwjr9aq+7/AIJi/EWp0w6/8C/+1O0Gqacx2rdREngASL/jU32u2/57J/30K4xvg94KKkBJ1J7iXn9RUH/CmPB39+6/7+L/APEVcvCOt0rL7hLxErdaC/8AAv8A7U9AV1ddyEMD0IPFLmvN2+CfhJmJFzeqPQSR4/WM0z/hTelLzFq16jD7p3Lx+QFYS8JMT0qr7v8AgmkfEafXD/8Ak3/2p6XmjNeZH4TXCZFt4kvIweo5OfycVXf4XeJQMR+Lbh89dyuP/aprln4U45bST/r1No+IsPtUH96/4B6rmjNeTj4R6vMB9s8UTv6qEbH4Eyf0qVPgtYMc3esXMpPXAUZ/PdV0/CjGv4ppf16in4ir7NB/OS/yZ6nmjNeY/wDClNCHTUrv80/+Jpf+FLaIP+Ynef8AfSf/ABNbf8QlxX/P1fd/wTP/AIiNL/oH/wDJv/tT03NeQ+NARrbE941I/lWj/wAKW0T/AKCd5/30n/xNeR/ETwtaeENRtbKxupp/PiMjGUjI+YgYwB6UpeGlfDJ1Z1Vb0/4JjX8R2o3eH/8AJv8A7U//1PuTSY/sviLxPZH/AJYX8y88Hh3HI/CumzXMWM32rxX4rv8AO77RqMzbumcySN07da6DNfi9R+87d3+Z+eztzMnzRmoM0ZqeYm5PmjNQZozRzBcnzRmoM0Zo5guT5ozUGaM0cwXJ80ZqDNGaOYLk+aM1BmjNHMFyfNGagzRmjmC5PmjNQZozRzBcnzRmoM0Zo5guT5ozUGaM0cwXKVic/E7wb/1+x/8Aoxa/Qavzmvrn+zvFXhbV+gtNQhYn2EiNg9PQ96/RmvueD5XhUXmvyPpchfuSXmFFFFfYnvhRRRQAUUUUAFFFFABRRRQAUUUUAFFFFABRRRQAUUUUAFFFFABRRRQAUUUUAFFFFABRRRQAUUUUAFFFFABRRRQAUUUUAFFFFABRRRQAUUUUAFFFFABRRRQAUUUUAFFFFABRRRQAUUUUAePfHy4+z/CfXCCA0gt0Ge+6eMH9M15d4SAg8LaRFyCLSEkHrkoCa9L/AGgoPO+E+ssMkxNbOAP+u8YP6EmvK/DNx5vhzSpCRlrWAnHTOwZr5XMp2xv/AG6vzZ4GYO1f5fqzqvMFHmCqHme9Hme9R7Y5ucv+YKPMFUPM96PM96PbBzl/zBR5gqh5nvR5nvR7YOcv+YKPMFUPM96PM96PbBzl/wAwUeYKoeZ70eZ70e2DnL/mCjzBVDzPejzPej2wc5f8wUeYKoeZ70eZ70e2DnL/AJgo8wVQ8z3o8z3o9sHOX/MFHmCqHme9Hme9Htg5y/5go8wVQ8z3o8z3o9sHOX/MFfLnxkuBN4sjQf8ALG1jX82dv619KeZ718v/ABZUjxazHo8EZH6j+leNntW9C3mcmMl7h//V+0PCU32lNRvs5+0XTtk8E55/rXXbq4fwN/yCJv8Aru3/AKCtdnmvw7m7n5w2S7qN1RZozRzCJd1G6os0Zo5gJd1G6os0Zo5gJd1G6os0Zo5gJd1G6os0Zo5gJd1G6os0Zo5gJd1G6os0Zo5gJd1G6os0Zo5gJd1G6os0Zo5gJd1G6os0Zo5gOU8bbv7KjmQ4eGZWBHUcEV+kdhdC+sba9UYFxGkgH++oP9a/ODxhzoU3+8n/AKFX6C+DCW8H6ESck2Frz/2yWvtODZ+/VXp+p9Fw+9Zr0Olooor70+mCiiigAooooAKKKKACiiigAooooAKKKKACiiigAooooAKKKKACiiigAooooAKKKKACiiigAooooAKKKKACiiigAooooAKKKKACiiigAooooAKKKKACiiigAooooAKKKKACiiigAooooA8w+NEP2j4XeIU54tw/H+w6t/SvnjwXOX8KaYfSFR/3zx/SvpH4tzeR8NPEbgZzZyL/AN9/L/Wvie3+JPw8+HXhPRv+E88UaX4cF3G5g/tK9gtPN2sS3l+c67tuRnGe1fIZ1/vcbfy/qfP5ov3yt2/U9u8w0eYa+ONL/bx/ZN1jWYdCtPiFbR3M8hiV7i1vLa3DDPLXM8CQKvH3mcL719Y297b3lvHd2kqzwTqrxyRsGR0YZVlYcEEcgjrXDU54fGmjhnGUfiVjW8w0eYaz/Nrlrnx94Js/FEHgi78QafB4juo/Oh0x7uFb2SP5vnS3LeYy/K3IXHB9DUKq3sQpHc+YaPMNZ/m0ebS9sLnNDzDR5hrP82sjXvEug+FtKuNe8T6lbaRplqAZrq8mS3gjBOAXkkKqoJIHJ60KrfYakdP5ho8w15L4d+Nnwe8YarHoXhLx1oOt6lMGMdrY6pa3M7hRliscUjMQBycDgV1+u+K/DfheC3ufE2rWmkQ3c6W0L3k8duss8pwkSGRlDOx4VRyewqnOSdmhu6dmdX5ho8w1n+bWJqXivw3o2pado2r6taWOoaw7R2VvPPHFNdOg3MsMbMGkKjkhQSByalVewlI6vzDR5hrP82jzaPbC5zQ8w0eYazzKACTwBWHoHizw14ss5NR8K6taazaRSvA81lcR3EayxnDxlo2YBlPDLnI70e1HzHWeYaPMNcrrfinw74ajtpvEeqWulR3s8drA13PHAJbiY4jiQyMu6RzwqjJJ6CvOvH37QvwS+F5vYvHnjbStJu9PRZJrN7pJL5VfBXFpGWuGyCCAsZJHPSrjKUtkON3se3+YaPMNfL3w8/bB/Zv+Kmur4Z8E+OLW61STAit7iK4sXmZjgJD9rihEr/7CbmxzjFe2W3jnwde+JLrwbZa7YT6/ZIJZ9OjuonvIYzjDvAG8xVORyVA5HrTnzxdpKxUoyjo0dr5hr50+LageJYHA+/apn6h3Fe9+bXgfxXl367apj7tsD+bt/hXlZpUvSOTESvE//9b7F8FYXSHx1MrZ+u0V1+6uT8NxfY21LT+gtrp19Rx8vX8K6fNfhD0dmfmsrp2Jd1G6os0ZpXFcl3UbqizRmi4XJd1G6os0ZouFyXdRuqLNGaLhcl3UbqizRmi4XJd1G6os0ZouFyXdRuqLNGaLhcl3UbqizRmi4XJd1G6os0ZouFyXdRuqLNGaLhc5/wAXNnQ5v95P/QhX6EeC/wDkTtC/68LX/wBFLX55+LD/AMSSb/eT/wBCFfoZ4L/5E7Qv+vC1/wDRS19vwU/3lT0R9Fw98UzpaKKK/QT6kKKKKACiiigAooooAKKKKACiiigAooooAKKKKACiiigAooooAKKKKACiiigAooooAKKKKACiiigAooooAKKKKACiiigAooooAKKKKACiiigAooooAKKKKACiiigAooooAKKKKACiiigDzX4xf8kx8Rf9ep/mK/AD9tuy8D6x4z+AGjePpYINFubi5F/JPIYEWy8yHzd0yshRemSHB7jpX9AXxejeX4Z+I1QZItHb8FwT+gr+fT9r/SPBuu/F/wCAVl8TTGng65W9gv5J7g2sCp5ke4PMHj8sdMtuU46Gvmcc7ZhB/wB1/qePinbExfk/1OnuvFX/AASo8Q6Xp3gRrbSlht5I4oJIdN1W1uWfOxfNv4oY5pAc8tLMwPUnjNb/AO3L8YdW+G3/AAgPwS8J6+3w68KeIYSLzXbWGWZ7WxtisaxQLAfNIAILbCGIKjcFLV6v4N8Pf8E+vDMFjofhh/h/cSxzA2zT3mn6heGV3yoWe5kmnZtx+QbzjgLgACoPG37TfwK1D4za1+zz8ddBsbHT9MFtNZXuvxRT6ddzvHvJ2zRGKEIrYSV32sdwypwG86Na9ROMZNK7s/zS/wCHOGM/fTSbS11/M+c/gz+y9+xPNr/hnxP8NPjXqUviIyRy2UVvrVhZX0soBDILU2yXce8bg0Zw2wkHrmvrH46fsO/BP49+J28beJH1TS9ckQJPcaddKv2gIoSMSJcRzoNgGB5apnndnt+cv7YV7+xbqNnJpfwD0y3u/iZcXtpb2z+G450sk2svCLCVs5WkB2qbdXcyYyQQa/aD4cL4ktvh/wCHLbxexbXItOtUvSTuJuFiUSZPc7s5PrSxuIqQUayk03da7/8ADCxNWcVGopPXvufir+yV+xT8K/jrpvjaXxtqus2d34X1uXTYhp9xbRq0KKMM6y28p3ZB5BAPpxmv2U+DHwj8I/AP4fWvw88H3F1Lpdi803m30qyTM0zF3ZmRY0A9lVR+OTXxF+wLOsHjP48aYhYiHxVOwz0wZZ1H4/LzxXY/t8/FfxN4V8AaP8MPh/cyQ+KfiHd/2dCsAUyG1I2TAZBK7zIqblwwySCKeNrVa2I9hzaafkPEznUreyvp/wAA+Hv2o/2hvHfxO+JkPxH8HSOvwy+FGv2MFvcRswjudQDbnm4ALEhWVewjIP8Ay05+9f8AgoPf2+rfsg65qVs++G5l0qaNlPDLJdREHg4Iwf618jeOv+Cf3xW8OfAu9021+KdxqdloVnLqC+G7fTzDaXFymZnUut1iWTOQkskTNgADauAOj+KHxCg+I/8AwTJs9XFz9pu7JNK0+7JG1hcWd3FE2Rx1ADcdQa63KlKVJ0XdRkl/X4m7cG6bpvROx4x8bfA/7GHhT4DaD4h+FmrQQ/FOSPT5rVdF1We/uWvcRmUTRiaZbfaSWBxGwZQEyflr6E/bPvfFd58EPgFN42V4tel1jTHv0cncLn7P8+/IHzZJzkA5zXzD4xf/AIJyx/BuJ/DrajH49WytyG0v+0/PW/CDcW+3kWnl+Z/rNpztz5fOK774vat8QG+B/wCzba/Gy4ex1f8A4SBJbibUJTHMlnHIixS3Rl5V1hYF2fkdW5JrdXcoN33fxb7dPI21vHfd777dPI/ceOX90vP8Ir8Sv2/f2Wvhh4DEPxX0C81Jdb8aeII4JrWSaN7RTcK7yGIeV5iklcjfKwGSAMYA+/8Axf8Atv8A7L3gu8Onaj49tL64MayAaYk2pRlWJGPPtUkhDDGSpcMB1HIz8Pf8FBP2hPhB450jwv4L8K+IU1HWPDviG3u76FILgLDCsLhm8xoxGxBcAqrFgcgjIIHl5VGvGtH3Wk/I4MBGrGotHZn3D+zv+yd8Of2Z5NX8S+Cb/WNRvNZs4o54r64gkQCLMgEawwwjcScZYt7Yyc/mRpHif4Zftd/ELWb39q74r3fg/wAi8ng0fw7EfsdrZxR/8tHuriKWzR8ZRt37x2HL42rX6S/8NpfBnVvh54t8W/DLUH8YXngzTft9xYRwXVk7IPlB33ECgKD99lV9o5I6Z8nk+L/7AXxf8AXnxF+Idn4YtL7VYQNUhu7WIa5HM6qrqrQxi9kZcgLNBngZVhg4vD1qycp1Iyu7K6Wq+T7lUZ1E5SnF3fXqj2L9m34SfB74S+CfETfBnx7e+M9Bu1cOJNVt9Ss7aaNGZ/JW0RIo5GDAucbmAXPQV4v/AME+vF/hbwf+zhqvifxbrNnoekT+Ib3Zd39xHawEybAoLysoBYjgE5NfN/7L7+FB+0N8RvFH7POm32n/AAlstAuY7k3DTGGSeOMGPaZmeTLMGdFc7wm4kDO2k/Yo/Yr+Dfxc+GNh8VfiMmoancT3V3B9gW68iyeOFvLVm8lUuNwOTxMBntjrtXhGMantZPXl6a7PR67mlWKSn7ST6evXQ9d/bB+JfgH4p/FP4FeGPBPivS/EdpH4jiuLpNPvYL5EKywhBKkTtjcNwG49zXmXxTtP2fLn9uzxxq/7Qs1qnhjSdJtZxFcNOolvQsATbHbESTEDOYwrhlyWXAroPjf8AvhF8Bfj18C9Q+GHh86LHqeuhLoi6ubkyGN4tgxczSYxuP3cVia54L+BPiz9uL4qWf7Sc1nb6QLS0m046lqbabCXMMC/LIs8JJxuwu49zjvWtCpBRTg3blfr8RpSlFRXK3az9dz6M+H2sf8ABOb4nfFrw9N8OLLSR40smMmmx2mn32kxNJAGkz5PlW9rLIoBYb1ZuOOgx8vRfs2aR+0d+1r8cra58Q33hnVvDt5bXWm3tmFcRXDt9+RDtdtuwFdksZB53V+jHw0i/ZDi8R2kPwhHghvEMMTCA6MdNfUPLC4choCZiNv3jk5HWvkL4F/EnwD4J/bF+P13428R6d4civp7dIH1K7hs1laJmDBGldQxGQcA5xzXLRxMl7R0+a6XXV7owp1pLmcL6Lr6mt8OPjN8ff2Yvifo3wU/advx4o8MeJJfI0bxLvMjq5IVVmmfa7jJAcS5kQnId0xX2n8UG3a/bn/p2X/0N6+Cf2v/AIoeDv2h/F3w8+A3wcvLbxbrLazBf3N5YslzbWcEakMROh2E7WLvtYhQuD8xAr7z+I0ZS+sRnIWDbn/dY14+ea0oTatJ7r9beZxY/WEZNWb/AKuf/9f7anRbfxx4vtk+5FqVwoz1wJpB/Sr+6sO1uBd6/wCIL8ci5vpnznOcuzde/WtfdX4Rip3qSa7s/Nq8vfdiXdRuqLdRurDmMuYl3Ubqi3UbqOYOYl3Ubqi3UbqOYOYl3Ubqi3UbqOYOYl3Ubqi3UbqOYOYl3Ubqi3UbqOYOYl3Ubqi3UbqOYOYl3Ubqi3UbqOYOYl3Ubqi3UbqOYOYl3Ubqi3UbqOYOYwfFTD+xpQe7J/Ov0T8HI0fhHQ43G1lsbYEehES1+cfirfNZwWsXLzzKoH4H+tfpzbwJbW8VtF9yJVRfoowOlfe8Dxu6svT9T6bh1azfoTUUUV+gn1AUUUUAFFFFABRRRQAUUUUAFFFFABRRRQAUUUUAFFFFABRRRQAUUUUAFFFFABRRRQAUUUUAFFFFABRRRQAUUUUAFFFFABRRRQAUUUUAFFFFABRRRQAUUUUAFFFFABRRRQAUUUUAFFFFAHn/AMVnWP4beJGc4BsZh+JXA/Wvzl8R/B/4a/GTwJpnh/4m6DFrdnbMZog7SQyxPuPMc0LJImR94KwDDg5r9CPjXMYPhb4hcY5gVef9uRV/rXx94eYR6JZLn/lkp/PmvgeKq7hiYOLs0v1Z8xndRxqxadnY+bNP/YV/ZR0u/ttSs/AqrcWkqTRl9R1GRQ8bBlyj3LKwyOQwIPQgivY/iZ8EfhH8YrOOz+JPhe01ryQqxzOrRXUSK27ZHcwlJkUnqquAe4Nekeb70eb7187LMarak5u682eQ8VUbTcnc8s+HPwB+CnwlEMnw+8HafpV1b+YEvPK8+9Al++v2ucyTlT02mTAHAGOK9i8yqHm+9Hm+9ZVMVKbvJ3ZnKq5O8ncqaT4f8OaBNf3Og6Va6bNqkxubx7aCOFrmcjBlmKAF3I4LNk+9R6n4Z8L63qena3rOj2d/qOkO0llc3FvHLNau3DNDI4LRk9ypGav+b70eb70vrDve4vaPe5fLhgVYZB4INcFefDD4bX3g+++H83hjTk8Oal5huLCG2jht3eQ5Z9kQUBy3zbxhgwyCCAa67zfejzfeiOIa2YKo1szy/wAHfAP4H+AG06fwh4E0bTrvSQBbXi2UT3seAV3fapFadmwSCzOWPc1e+Kfwa+GHxr0q10X4naGmt2tjKZoAZZoHjcjaSskDxuAR1G7B4yOBXoXm+9Hm+9X9dnzc/M79y/byvzc2p4D4L/ZK/Zs8AXD3fhz4f6cZ3dJBJfK+pPG8RyrRNevMYiDzlNuTjPQV2+o/Az4Haxf3Gq6t8PPDt7e3btLNPPpNnLLLIxyzO7RFmYnkknJr0fzfejzfeqlj6jd3J39WN4mbd3JnL+F/hv8ADfwP9r/4QvwppOgf2gqpc/2fYwWvnqudqyeUi7wNxwGzjJ9a8bvf2OP2X9Q8Sx+LJ/h5pyXsTI4ji82GzzGMDNlHItqw4+YGIhv4ga+jPN96PN96UcfUi24yav5ijiJp3UmZujeFfCfhzQv+EX8PaLZaXo2JF+w2ttFBa4lJMg8lFCYckluOcnPWjwv4W8LeCNHi8PeDtJtdE0yFmZLazhSCJWclmIRABknknvWl5vvR5vvWbxDe7IdR9zI17wf4Q8U3ul6l4k0Wz1S70Wb7RYy3MCSvbS4xviZgSp+ncA9QCPLPih+zN8CfjNrMPiL4j+FIdV1OCPyRcJPcWsrRjosjW0sRk2/w7920ZAxk17V5vvR5vvV08ZODvGTRUa8ou8XY8B+Hf7J37PXwp8UQeM/AfhJdN1m1R0iuGvLy52CQbWwlxPIgJHGduR2NWfiN+yv+z38WNa/4SPx14Ltb3VGz5lzBJPZSzE4G6ZrSSIysAoAaTcQOAQK91833o833q/7Rq83Pzu/e7uX9aqX5uZ3PL/hd8Bvg98FkuB8M/C9to0t1kSzhpLi5dTj5DPO8kuzIB2b9uecZqx8R8G5sn7lHH5EV6R5vvXl/xActd2gzwEb9TXNicRKom5O7MqlRy1k7n//Q+uPCzO9pcyS/61p2LZ4OcDt9a6bNYtrD9i1rXNPHS2vZU46fK7L169q1N1fz/XvGbTPzCrdSaJs0ZqHdRurHmM7k2aM1Duo3UcwXJs0ZqHdRuo5guTZozUO6jdRzBcmzRmod1G6jmC5NmjNQ7qN1HMFybNGah3UbqOYLk2aM1Duo3UcwXJs0ZqHdRuo5guTZozUO6jdRzBcrLHHceLPDFtOcQy6hArn0BlQHpz0Pav0tr8ypJTD4h8P3IGTFfQsB2OJFP9K/TWv0zgZ/uqnqv1Pr+HH7kgooor7o+kCiiigAooooAKKKKACiiigAooooAKKKKACiiigAooooAKKKKACiiigAooooAKKKKACiiigAooooAKKKKACiiigAooooAKKKKACiiigAooooAKKKKACiiigAooooAKKKKACiiigAooooA8W/aDm8v4T6wmM+a1sv0xcRt/SvlDS22aZaJn7sMY/JRX1Z+0NG7/CjVWUcRyWzH6eeg/mRXyPp8oOn2xHTyk/9Br8x4zlbFR/wr82fH8QP98vT/M2/N96PN96oeZR5lfI+1PC5y/5vvR5vvVDzKPMo9qHOX/N96PN96oeZR5lHtQ5y/wCb70eb71Q8yjzKPahzl/zfejzfeqHmUeZR7UOcv+b70eb71Q8yjzKPahzl/wA33o833qh5lHmUe1DnL/m+9Hm+9UPMo8yj2oc5f833o833qh5lHmUe1DnL/m+9Hm+9UPMo8yj2oc5f833rzHxwwbUYOeRF/wCzGu/8yvNvGDBtTj9oV/8AQmpxncqMj//R+/8Ax38OvF2jeKtc1eO6szHqV3cXIG6QsFZzIAQUwDh+xP1ryK81zVtOn8i4WF2IDZUN0P4j+VfaPxW/4+pf92X/ANAWvh3xN/yER/1zX+Zr8azfDU41ZNLqfB42jFTdkXbfxDqd7OltAkSNJ0JDY9fWvVdB+GPxC8T7Dp9/YQ+Z03s4/h3dom7V4jon/IVt/qf5Gvvv4UdLb/P/ACyrLLsJTnK0kZ4WhCT1R5Kv7OnxKZQZNesAx6geYRn2/dD+VL/wzn8R/wDoP2P/AJE/+N19q0V9RHJMLb4Pz/zPXWX0f5T4S1L4G/E3SFEkuradKjEgYaTPHr+5/rXmOoWXifS5RBcS2rsdpyu4/eOB2FfoZ4w/484vq38q+H/F/wDx/r9I/wD0OvDx+X0YfDE4MThacdkW/D/wr+IfipPM0/ULCBSM/O0gOMA9om/vV3EX7NnjV4y9z4mgSUdFSN2U/U/L29q9c+EP/Hqv+6f/AEFK9wr18rybDVI3nD8/8ztweAoyXvRPg/Wvgj8R9AgN1Jq1hPCAT1kDccnjyv6141qmq6zo121jdeRJIuclQxHBI9vT0r9GviD/AMgVvo//AKDX5v8Ajr/kYJv+Bf8AobV4ma4GlTfuRsefjcPCL91D7HWNY1N3S3ECFBk7g3f8TWn/AMVF/ftv/Hv8KwvCv/HxP/uj+ddtXn08PBq7RyxpxtsY3/FRf37b/wAe/wAKs2lp4nvrhbWGS1V5M4J3Y4BPoa0K2fD/APyF7f8A4F/6Ca1jhad1oVGjG+w+w+Hfj7VA7W99YoI8A7i/f/tmaff/AA38f6bEJ7i+sHVm24Uv1IJ/55D0r3vwn/qrn6r/AFqz4q/5B8f/AF1H/oLV6Ky+jyX5Ts+q07bHx3ql1r2jbvtRt5NshjO0MeRnntxxWv4b0vxV4uKjTJrWDfnHmbx6jsr+hql466zf9fTf+zV6J8F/vw/j/N682lhqbq8rWhxwoxc7WOps/wBnT4hXaq+oeILOBXwf3Ikc4P1SOp5P2bvHaLmDxHau3o6OBj/vlv5V9k23/HtF/uL/ACqavsaWRYR0+Zw19X/me/HLqPJfl/M+H5P2dviKl7aS3Wr6fJBDPEwYNKJB8w5AEQ5Hb5q+4Kp33+rj/wCusf8A6EKuV7XD+Ep0udU1bb9TvyuhGHNyoKKKK+jPVCiiigAooooAKKKKACiiigAooooAKKKKACiiigAooooAKKKKACiiigAooooAKKKKACiiigAooooAKKKKACiiigAooooAKKKKACiiigAooooAKKKKACiiigAooooAKKKKACiiigAooooA89+Kvhu98XeANW8P6dJHFcXCxMrSkhB5MqSnJUMeQpA4618fRfCP4iQxJDHqGnhY1Cj5pOgGB/yyr731H/kH3X/XJ/8A0E15PXxXEmEp1K0XNX0/Vnz+bUISqJyXQ+Zk+EvxIkdUXUdPBYgD5pO//bGulj/Z4+KD5+0a5p6emwyH/wBorXvVv/x8Rf7y/wA69erxsPlWHk9Yfn/mefSwVJ7xPjdf2avGDBjL4piUgfKFicgn35GP1rl9d+CvxG8OQG6k1ewuYBwOZA/4jyv/AGavvCvPviR/yAj9f8K7swyTCwp80Yfi/wDM6sVl1GMbqJ+clx4j1Szme2mSJ3TjIDY9fUVtaKPEniH/AI8Xtoup+fcPu8ejetcVrf8AyFbj6j+Qr1D4adPwf+Yr4ujQg52aPn6dKLlax31l8C/inqUP2iDVtNRQSuC8mcj/ALYGryfs9fFVmCza1pqoepVpCfy8gfzr658L/wDINP8A10b+Qroq+np5Th3a8PzPXhgqT+yfFf8Awzp8SP8AoP2P/kT/AON05P2c/iIzAS+IbNUPUqJCfwGwfzr7SorujkmFv8H4v/M3WX0b/CfGEn7OHj5ADb+I7Vyeu9XH/srVXf8AZ3+JqLuh12wdvRjIB/6JP8q+16KK+SYVXtD8X/mVUy6inpE+JY/2efim5xPrenIvqjSE5/78L/OrCfs5fEN2Am8Q2ap3KiQn8tg/nX2lRWdDJcK7Xh+L/wAyKeX0XvE+NP8Ahm3xt/0M0H/ft6Q/s3eNwCV8TW5PYFHAz+VfZlFdzyDB/wAn4v8AzOp5ZQ/l/M+ILv4AfFCzieePWtOkjjUsdxkB47AeSf51wl94K8c6bMbe4vLJ2G3lS+Pm6f8ALMetfoXqv/INuf8Arm38q+XfFX/ISf6xfzFfP43LKEfhieVXwdNbI4LR/gn8S9dhFzFq2nwQsAT80m75hkceT/Wuoi/Zp8WSLuufFUcb+iQuw/Pcv8q+jvAX/IHX/cj/APQBXcV6+WZJhai9+H4v/M7sJl1GW8T40l/Zt8bR7vs3iaCTH3d8brn6/ex+tcXr/wCzz46t7iN7rU7C4Mi8NvlUjB6YEXvX3/XFeLf9ZbfRv6VGOybDQ+CH4v8AzFiMBRj8MT//2Q==;" vertex="1" parent="1">
          <mxGeometry x="160" y="90" width="813" height="678" as="geometry" />
        </mxCell>
        <mxCell id="UPtp2LmFLoY91FLDqyxt-7" value="&lt;span style=&quot;font-weight: 700&quot;&gt;SYN_SENT&lt;/span&gt;" style="rounded=0;whiteSpace=wrap;html=1;fontSize=16;fillColor=#ffcd28;gradientColor=#ffa500;strokeColor=none;fontFamily=Comic Sans MS;" vertex="1" parent="1">
          <mxGeometry x="180" y="340" width="150" height="60" as="geometry" />
        </mxCell>
      </root>
    </mxGraphModel>
  </diagram>
</mxfile>
